<svg width="544" height="365" viewBox="0 0 544 365" fill="none" xmlns="http://www.w3.org/2000/svg">
<path d="M368.629 68.5721V79C379.797 68.9084 392.904 74.7952 398.062 79V68.5721C382.992 58.4805 372.161 64.3673 368.629 68.5721Z" fill="url(#paint0_linear_1984_634)"/>
<path d="M373.38 351.496L365.788 341.753C369.888 341.592 379.131 339.403 383.302 331.944C386.723 325.853 393.755 324.349 396.844 324.359L405.158 333.697C400.817 333.994 391.563 336.188 389.269 342.597C385.537 351.518 377.121 352.247 373.38 351.496Z" fill="url(#paint1_linear_1984_634)"/>
<path d="M56.7495 219.16L51.7094 208C26.0771 220.96 30.8292 236.92 36.4093 243.28C35.8333 229.024 49.7294 221.26 56.7495 219.16Z" fill="url(#paint2_linear_1984_634)"/>
<path d="M172.255 343.481L175.138 356.226C150.259 354.154 144.457 336.92 144.665 328.562C152.357 342.473 166.264 344.304 172.255 343.481Z" fill="url(#paint3_linear_1984_634)"/>
<path d="M3.13406 42.295L8.41819 32.4543C10.0505 35.7866 15.2388 42.6323 22.934 43.356C29.2219 43.959 33.0363 49.2267 34.1576 51.7852L29.472 62.0755C27.6402 58.5932 22.4419 51.7401 16.303 52.1852C7.5592 52.3591 3.88045 45.6642 3.13406 42.295Z" fill="url(#paint4_linear_1984_634)"/>
<path d="M516.377 227.511L515 218.486C517.702 219.863 524.453 221.79 529.837 218.486C534.243 215.794 539.321 217.365 541.309 218.486L543.298 227.511C540.392 226.135 533.631 224.207 529.837 227.511C524.208 231.917 518.518 229.347 516.377 227.511Z" fill="url(#paint5_linear_1984_634)"/>
<circle cx="56.6377" cy="136.325" r="4.1" fill="url(#paint6_linear_1984_634)"/>
<circle cx="258.562" cy="4.1" r="4.1" fill="url(#paint7_linear_1984_634)"/>
<circle cx="512.1" cy="90.3625" r="4.1" fill="url(#paint8_linear_1984_634)"/>
<circle cx="488.163" cy="270.087" r="4.1" fill="url(#paint9_linear_1984_634)"/>
<circle cx="236.012" cy="323.9" r="4.1" fill="url(#paint10_linear_1984_634)"/>
<circle cx="22.8125" cy="319.8" r="4.1" fill="url(#paint11_linear_1984_634)"/>
<circle cx="21.0188" cy="268.294" r="2.30625" fill="url(#paint12_linear_1984_634)"/>
<circle cx="84.0561" cy="236.006" r="2.30625" fill="url(#paint13_linear_1984_634)"/>
<circle cx="106.606" cy="314.931" r="2.30625" fill="url(#paint14_linear_1984_634)"/>
<circle cx="96.8689" cy="126.844" r="2.30625" fill="url(#paint15_linear_1984_634)"/>
<circle cx="111.219" cy="76.6188" r="2.30625" fill="url(#paint16_linear_1984_634)"/>
<circle cx="148.119" cy="24.8562" r="2.30625" fill="url(#paint17_linear_1984_634)"/>
<circle cx="359.781" cy="31.0062" r="2.30625" fill="url(#paint18_linear_1984_634)"/>
<circle cx="373.619" cy="18.1937" r="2.30625" fill="url(#paint19_linear_1984_634)"/>
<circle cx="446.394" cy="137.094" r="2.30625" fill="url(#paint20_linear_1984_634)"/>
<circle cx="515.432" cy="16.3062" r="2.30625" fill="url(#paint21_linear_1984_634)"/>
<circle cx="540.306" cy="152.306" r="2.30625" fill="url(#paint22_linear_1984_634)"/>
<circle cx="467.406" cy="232.419" r="2.30625" fill="url(#paint23_linear_1984_634)"/>
<path d="M303.663 274.706C303.663 275.98 302.63 277.013 301.357 277.013C300.083 277.013 299.05 275.98 299.05 274.706C299.05 273.433 300.083 272.4 301.357 272.4C302.63 272.4 303.663 273.433 303.663 274.706Z" fill="url(#paint24_linear_1984_634)"/>
<defs>
<linearGradient id="paint0_linear_1984_634" x1="383.346" y1="63" x2="383.346" y2="79" gradientUnits="userSpaceOnUse">
<stop stop-color="#FFFE89"/>
<stop offset="1" stop-color="#C65E34"/>
</linearGradient>
<linearGradient id="paint1_linear_1984_634" x1="381.507" y1="330.644" x2="390.065" y2="345.923" gradientUnits="userSpaceOnUse">
<stop stop-color="#FFFE89"/>
<stop offset="1" stop-color="#C65E34"/>
</linearGradient>
<linearGradient id="paint2_linear_1984_634" x1="44.3748" y1="208" x2="44.3748" y2="243.28" gradientUnits="userSpaceOnUse">
<stop stop-color="#FFFE89"/>
<stop offset="1" stop-color="#C65E34"/>
</linearGradient>
<linearGradient id="paint3_linear_1984_634" x1="170.123" y1="359.191" x2="150.113" y2="325.342" gradientUnits="userSpaceOnUse">
<stop stop-color="#FFFE89"/>
<stop offset="1" stop-color="#C65E34"/>
</linearGradient>
<linearGradient id="paint4_linear_1984_634" x1="23.3528" y1="41.396" x2="13.8424" y2="54.0591" gradientUnits="userSpaceOnUse">
<stop stop-color="#FFFE89"/>
<stop offset="1" stop-color="#C65E34"/>
</linearGradient>
<linearGradient id="paint5_linear_1984_634" x1="529.149" y1="217" x2="529.149" y2="229.944" gradientUnits="userSpaceOnUse">
<stop stop-color="#FFFE89"/>
<stop offset="1" stop-color="#C65E34"/>
</linearGradient>
<linearGradient id="paint6_linear_1984_634" x1="56.6377" y1="132.225" x2="56.6377" y2="140.425" gradientUnits="userSpaceOnUse">
<stop stop-color="#FFFE89"/>
<stop offset="1" stop-color="#C65E34"/>
</linearGradient>
<linearGradient id="paint7_linear_1984_634" x1="258.562" y1="0" x2="258.562" y2="8.2" gradientUnits="userSpaceOnUse">
<stop stop-color="#FFFE89"/>
<stop offset="1" stop-color="#C65E34"/>
</linearGradient>
<linearGradient id="paint8_linear_1984_634" x1="512.1" y1="86.2625" x2="512.1" y2="94.4625" gradientUnits="userSpaceOnUse">
<stop stop-color="#FFFE89"/>
<stop offset="1" stop-color="#C65E34"/>
</linearGradient>
<linearGradient id="paint9_linear_1984_634" x1="488.162" y1="265.987" x2="488.162" y2="274.187" gradientUnits="userSpaceOnUse">
<stop stop-color="#FFFE89"/>
<stop offset="1" stop-color="#C65E34"/>
</linearGradient>
<linearGradient id="paint10_linear_1984_634" x1="236.012" y1="319.8" x2="236.012" y2="328" gradientUnits="userSpaceOnUse">
<stop stop-color="#FFFE89"/>
<stop offset="1" stop-color="#C65E34"/>
</linearGradient>
<linearGradient id="paint11_linear_1984_634" x1="22.8125" y1="315.7" x2="22.8125" y2="323.9" gradientUnits="userSpaceOnUse">
<stop stop-color="#FFFE89"/>
<stop offset="1" stop-color="#C65E34"/>
</linearGradient>
<linearGradient id="paint12_linear_1984_634" x1="21.0188" y1="265.987" x2="21.0188" y2="270.6" gradientUnits="userSpaceOnUse">
<stop stop-color="#FFFE89"/>
<stop offset="1" stop-color="#C65E34"/>
</linearGradient>
<linearGradient id="paint13_linear_1984_634" x1="84.0561" y1="233.7" x2="84.0561" y2="238.313" gradientUnits="userSpaceOnUse">
<stop stop-color="#FFFE89"/>
<stop offset="1" stop-color="#C65E34"/>
</linearGradient>
<linearGradient id="paint14_linear_1984_634" x1="106.606" y1="312.625" x2="106.606" y2="317.237" gradientUnits="userSpaceOnUse">
<stop stop-color="#FFFE89"/>
<stop offset="1" stop-color="#C65E34"/>
</linearGradient>
<linearGradient id="paint15_linear_1984_634" x1="96.8689" y1="124.538" x2="96.8689" y2="129.15" gradientUnits="userSpaceOnUse">
<stop stop-color="#FFFE89"/>
<stop offset="1" stop-color="#C65E34"/>
</linearGradient>
<linearGradient id="paint16_linear_1984_634" x1="111.219" y1="74.3125" x2="111.219" y2="78.925" gradientUnits="userSpaceOnUse">
<stop stop-color="#FFFE89"/>
<stop offset="1" stop-color="#C65E34"/>
</linearGradient>
<linearGradient id="paint17_linear_1984_634" x1="148.119" y1="22.55" x2="148.119" y2="27.1625" gradientUnits="userSpaceOnUse">
<stop stop-color="#FFFE89"/>
<stop offset="1" stop-color="#C65E34"/>
</linearGradient>
<linearGradient id="paint18_linear_1984_634" x1="359.781" y1="28.7" x2="359.781" y2="33.3125" gradientUnits="userSpaceOnUse">
<stop stop-color="#FFFE89"/>
<stop offset="1" stop-color="#C65E34"/>
</linearGradient>
<linearGradient id="paint19_linear_1984_634" x1="373.619" y1="15.8875" x2="373.619" y2="20.5" gradientUnits="userSpaceOnUse">
<stop stop-color="#FFFE89"/>
<stop offset="1" stop-color="#C65E34"/>
</linearGradient>
<linearGradient id="paint20_linear_1984_634" x1="446.394" y1="134.788" x2="446.394" y2="139.4" gradientUnits="userSpaceOnUse">
<stop stop-color="#FFFE89"/>
<stop offset="1" stop-color="#C65E34"/>
</linearGradient>
<linearGradient id="paint21_linear_1984_634" x1="515.432" y1="14" x2="515.432" y2="18.6125" gradientUnits="userSpaceOnUse">
<stop stop-color="#FFFE89"/>
<stop offset="1" stop-color="#C65E34"/>
</linearGradient>
<linearGradient id="paint22_linear_1984_634" x1="540.306" y1="150" x2="540.306" y2="154.613" gradientUnits="userSpaceOnUse">
<stop stop-color="#FFFE89"/>
<stop offset="1" stop-color="#C65E34"/>
</linearGradient>
<linearGradient id="paint23_linear_1984_634" x1="467.406" y1="230.112" x2="467.406" y2="234.725" gradientUnits="userSpaceOnUse">
<stop stop-color="#FFFE89"/>
<stop offset="1" stop-color="#C65E34"/>
</linearGradient>
<linearGradient id="paint24_linear_1984_634" x1="301.357" y1="272.4" x2="301.357" y2="277.013" gradientUnits="userSpaceOnUse">
<stop stop-color="#FFFE89"/>
<stop offset="1" stop-color="#C65E34"/>
</linearGradient>
</defs>
</svg>
