<svg width="66" height="97" viewBox="0 0 66 97" fill="none" xmlns="http://www.w3.org/2000/svg">
<path d="M31.4617 96.4639C30.2283 94.1173 28.223 92.607 25.9792 91.3293C23.3614 89.8383 20.7292 88.3655 18.1855 86.7552C15.7312 85.2007 13.5979 83.2492 12.1742 80.668C11.5175 79.4768 11.0599 78.1761 10.5091 76.9187C10.4553 77.0552 10.3678 77.2667 10.287 77.4801C8.47968 82.2388 6.14648 86.71 2.9846 90.7189C2.46643 91.3755 1.93769 92.0677 0.931152 92.3782C1.05805 92.1436 1.11189 92.0157 1.1888 91.9042C3.25763 88.9154 4.97844 85.7285 6.45411 82.4176C7.6981 79.6278 8.85461 76.7966 9.96978 73.952C10.2736 73.1771 10.3159 72.2927 10.4341 71.4524C10.9494 67.8128 12.1818 64.3942 13.6152 61.0362C13.8315 60.5296 14.0497 60.0239 14.3372 59.3567C12.8327 60.294 11.3801 60.8314 9.77558 60.918C7.55775 61.0372 5.84943 59.8537 5.46104 57.8743C5.22551 56.6717 5.72348 55.6603 6.43008 54.7557C7.72694 53.0964 9.4843 52.1427 11.4858 51.5967C11.7002 51.538 11.9165 51.4842 12.0078 51.4611C12.3924 48.6694 12.8288 45.9459 13.1269 43.2079C13.3797 40.8901 12.8673 38.6261 12.1626 36.441C11.108 33.1695 9.91114 29.9432 8.80655 26.6871C8.57005 25.9901 8.40758 25.2537 8.32395 24.5222C8.20858 23.5147 8.83057 22.9917 9.82173 23.2003C11.1263 23.4733 12.1453 24.2559 13.0913 25.1336C14.5535 26.491 15.7004 28.0945 16.6127 29.8673C16.3945 28.6137 16.1282 27.3793 15.9773 26.1305C15.8206 24.8336 16.0023 23.5714 16.7156 22.4303C17.1866 21.6775 17.8644 21.1834 18.7363 21.117C20.1774 21.0084 21.6069 20.4931 23.0759 20.944C23.2114 20.9853 23.4364 20.9036 23.5556 20.8036C25.6225 19.0655 28.072 18.2541 30.685 17.8283C30.9042 17.7927 31.1195 17.7369 31.3743 17.6821C31.4646 16.6756 31.8703 15.8633 32.8807 15.4528C31.7819 13.8185 31.207 12.0573 31.0734 10.1701C30.7888 6.13054 33.2085 2.28321 37.5183 0.8681C38.221 0.637376 38.9478 0.430685 39.6784 0.348971C41.1502 0.183618 42.6327 0.110555 44.1102 0C44.1352 0.0721014 44.1593 0.144203 44.1843 0.216304C43.4017 0.580656 42.6202 0.945008 41.8376 1.30936C41.8415 1.36127 41.8453 1.41223 41.8491 1.46414C42.3462 1.46414 42.8451 1.4401 43.3402 1.46798C45.3456 1.58046 47.2221 2.18996 49.0487 2.98115C49.8947 3.34743 50.7388 3.72043 51.5934 4.06556C53.5834 4.86925 55.5917 5.32973 57.7297 4.17803C56.9837 5.29705 55.3292 6.3305 53.6805 6.51219C51.8751 6.71216 50.0485 6.71792 48.2316 6.81117C46.4819 6.90058 44.7169 6.87462 42.9883 7.114C40.4081 7.47258 38.3162 8.79348 36.7501 10.8873C35.8407 12.1025 35.3841 13.5108 35.1889 15.0038C35.1697 15.149 35.2927 15.4018 35.4177 15.4614C36.381 15.9209 36.8424 16.6621 36.7684 17.8023C37.0895 17.8725 37.4135 17.9321 37.7317 18.0157C39.1593 18.3907 40.4869 18.9646 41.6675 19.8779C41.8953 20.0538 42.2769 20.1172 42.5779 20.0961C43.8747 20.0076 45.1668 19.8 46.4636 19.7663C47.8143 19.7308 48.8286 20.4028 49.4496 21.6112C50.2629 23.1926 50.3485 24.8961 50.1744 26.6141C50.0418 27.9253 49.8024 29.226 49.6197 30.47C50.2427 29.4856 50.8541 28.4166 51.5655 27.4187C52.672 25.8671 53.9852 24.5145 55.7109 23.6319C56.4252 23.2666 57.2115 22.9263 57.9374 23.4589C58.642 23.9761 58.3911 24.7961 58.195 25.4662C57.5182 27.7715 56.7059 30.0384 56.0762 32.3562C55.3946 34.8663 54.6592 37.3898 54.3265 39.9576C54.0766 41.887 54.3794 43.8972 54.5207 45.8651C54.6515 47.6984 55.062 49.5144 54.6418 51.365C54.3457 52.6696 53.6382 53.6713 52.5307 54.3702C52.051 54.673 51.9731 54.9143 52.2135 55.4354C53.5478 58.3348 54.8956 61.2294 56.1358 64.1702C57.6163 67.682 58.1412 71.339 57.4692 75.1306C57.4298 75.3546 57.4846 75.6228 57.574 75.8391C58.2834 77.5647 58.9948 79.2903 59.7389 81.0006C61.4876 85.019 63.2556 89.0298 65.0158 93.0444C65.06 93.1453 65.1014 93.2472 65.0312 93.4732C64.712 93.1713 64.3284 92.9137 64.0852 92.5589C63.2604 91.3553 62.3461 90.1844 61.7203 88.8789C60.0975 85.4959 58.6103 82.0475 57.0693 78.6251C56.9712 78.4078 56.878 78.1877 56.7712 77.9416C56.2954 78.7549 55.8897 79.5576 55.384 80.2901C53.619 82.8454 51.1964 84.6826 48.5565 86.215C45.7176 87.8627 42.7922 89.3605 39.9188 90.9496C38.9949 91.4601 38.0989 92.0254 37.2202 92.6108C35.8455 93.526 34.912 94.7373 34.8332 96.4658C33.7123 96.4639 32.5865 96.4639 31.4617 96.4639ZM37.9922 30.9074C37.9672 30.845 37.9422 30.7825 37.9172 30.719C38.197 30.5681 38.4613 30.3633 38.7603 30.2749C40.0024 29.9086 41.1454 30.2268 42.1289 30.9872C44.4227 32.76 45.3331 35.146 45.037 38.0003C44.8457 39.8471 44.1497 41.5198 43.0739 43.1589C44.3044 42.8215 45.409 42.2774 46.7751 42.5331C45.4542 43.0512 44.2631 43.4502 43.1325 43.9789C41.306 44.8317 39.638 45.9363 38.3258 47.4994C38.1547 47.7042 37.9961 48.0926 38.0749 48.3069C38.8478 50.4027 38.6113 52.4677 37.9691 54.5288C37.799 55.0749 37.5827 55.6074 37.3721 56.1881C40.3196 55.4056 44.2487 51.1314 44.041 48.9597C42.2433 49.7326 40.6773 50.8257 39.2516 52.2629C39.5275 50.5796 42.2125 48.6473 44.863 47.8734C46.3165 47.4494 47.7845 47.0649 49.2679 47.5955C49.2698 47.658 49.2717 47.7215 49.2737 47.784C48.9026 47.8176 48.5325 47.8513 48.172 47.884C48.072 49.6163 50.1379 54.8951 51.3733 56.1718C51.055 54.8239 50.7263 53.4521 50.409 52.0774C49.9341 50.0201 50.0274 48.0541 51.3579 46.2891C51.478 46.1295 51.5626 45.9391 51.6395 45.7526C52.1818 44.4404 51.8607 43.4252 50.6561 42.6927C50.2725 42.46 49.862 42.2725 49.464 42.063C48.0989 41.3439 47.2289 40.2614 47.3394 38.6723C47.4452 37.1562 47.5452 35.6027 47.9643 34.1568C48.4546 32.4639 48.5459 30.7873 48.3517 29.0905C48.2287 28.0099 47.9806 26.9101 47.5769 25.9036C46.9655 24.3789 45.7224 23.5464 44.0622 23.7213C43.0345 23.83 41.9953 24.153 41.0426 24.5664C40.1533 24.9528 39.3708 25.5864 38.394 26.2055C39.0247 23.9713 40.6273 22.6716 42.1279 21.2247C40.9436 21.6429 39.7592 22.0611 38.4162 22.535C39.067 21.3987 40.1245 21.0969 40.9964 20.5373C37.5673 17.7888 26.9828 18.3214 24.4122 21.3103C24.9053 21.6323 25.4033 21.9573 25.9013 22.2822C25.8686 22.3351 25.8359 22.388 25.8023 22.4408C24.7419 22.2101 23.6825 21.9794 22.6221 21.7496C24.5189 22.9696 26.4502 24.0684 27.4741 26.1834C27.1722 26.0997 26.9415 25.92 26.6848 25.794C25.7792 25.3518 24.8986 24.8231 23.9469 24.5173C21.8963 23.8598 20.213 24.6202 19.5054 26.6487C19.0459 27.9657 18.8911 29.3972 18.6729 30.7892C18.3758 32.6879 19.044 34.4789 19.3814 36.3064C19.6717 37.8792 19.8852 39.4625 19.6073 41.067C19.4679 41.8697 19.0882 42.4831 18.3374 42.8628C17.7365 43.1666 17.1415 43.4925 16.5791 43.8617C15.6965 44.4404 15.4726 45.0508 15.785 46.0651C15.9494 46.5977 16.1599 47.137 16.457 47.6042C17.4039 49.0933 17.6289 50.7084 17.3424 52.4013C17.1415 53.5877 16.8367 54.7566 16.5589 56.0266C17.9423 53.5175 19.5343 51.2025 20.2783 48.33C19.4112 48.2916 18.6527 48.2589 17.8942 48.2252C19.7323 47.2773 21.5146 47.6503 23.2441 48.4406C24.8111 49.1558 26.1685 50.1258 26.6906 51.9062C25.7792 51.1679 24.8669 50.4306 23.8594 49.6144C23.9151 51.7582 27.3568 55.4661 29.7486 56.1074C29.4352 55.17 29.1237 54.25 29.4333 53.2675C29.7111 53.9087 29.9034 54.5682 30.1264 55.2181C30.5802 56.538 31.3387 57.6196 32.5904 58.3079C33.7844 58.9645 34.5227 58.8866 35.3812 57.8436C35.8888 57.2264 36.3464 56.5275 36.654 55.793C38.0922 52.361 38.6267 48.5108 35.012 45.8536C34.8351 45.7238 34.6784 45.5402 34.5679 45.3489C34.39 45.0412 34.1795 44.7211 34.1208 44.3827C33.3758 40.1124 34.292 36.2429 37.0587 32.8792C37.673 32.1332 38.4873 31.5516 39.2612 30.8478C38.817 30.8671 38.4046 30.8873 37.9922 30.9074ZM20.9071 48.5242C20.5754 49.4731 20.3428 50.3988 19.939 51.2429C18.571 54.102 17.1203 56.9216 15.7427 59.7768C13.9988 63.3915 12.4405 67.0773 11.9655 71.115C11.6223 74.0337 11.8867 76.8687 13.2989 79.5105C15.0621 82.8089 17.9115 84.822 21.3387 86.0256C27.1289 88.0569 33.0903 88.4145 39.1103 87.3695C43.6642 86.5793 47.8018 84.772 51.3531 81.7466C54.8495 78.7674 56.5895 75.0835 56.2204 70.393C55.9301 66.7053 54.7659 63.3742 52.8489 60.2585C51.8828 58.6886 50.8983 57.1283 49.9793 55.5305C48.644 53.2098 47.7403 50.7276 47.4298 47.9532C46.9799 48.0387 46.5925 48.1243 46.2012 48.1829C45.6109 48.2704 45.3542 48.5934 45.384 49.1933C45.4321 50.1806 45.3071 51.1996 45.5109 52.1495C45.9974 54.4086 46.5925 56.6467 47.2202 58.8722C48.0316 61.7476 49.0718 64.5663 49.7351 67.4734C50.6244 71.3736 49.7582 74.8508 46.5011 77.4772C44.9187 78.7539 43.1037 79.5855 41.1666 80.1507C37.2808 81.2832 33.3268 81.4495 29.3362 80.8756C26.1916 80.4238 23.173 79.5778 20.4687 77.8406C19.0094 76.9033 17.7875 75.7276 16.979 74.1635C15.8561 71.9908 15.9917 69.7307 16.5224 67.4494C17.2405 64.3634 18.5854 61.5092 19.789 58.6011C20.8984 55.9199 22.0328 53.2444 22.3068 50.3085C22.4462 48.827 22.3847 48.7492 20.9071 48.5242ZM32.0568 73.1867C29.3035 72.6445 26.6694 72.1254 23.9853 71.5966C23.8238 72.1446 23.6277 72.807 23.4325 73.4694C23.3653 73.4501 23.2989 73.4309 23.2316 73.4117C23.371 72.7147 23.5104 72.0187 23.6585 71.2804C21.3137 70.3469 19.1507 69.1394 17.3779 67.2965C16.2955 69.7009 16.6204 72.5147 18.1836 74.6393C19.5333 76.4736 21.3454 77.7128 23.4239 78.5318C29.1458 80.7872 35.0005 80.966 40.9013 79.3692C43.4815 78.6712 45.7657 77.3869 47.523 75.2902C49.3179 73.1483 49.6197 70.7103 49.042 68.0704C48.9545 68.0848 48.8987 68.0762 48.8728 68.1012C46.9318 69.9287 44.6169 71.0823 42.1058 71.9004C41.9338 71.9562 41.7674 72.26 41.7347 72.4696C41.6751 72.857 41.7174 73.2607 41.7174 73.6568C41.6675 73.6578 41.6175 73.6587 41.5675 73.6597C41.4521 73.1675 41.3358 72.6753 41.2608 72.3561C38.3152 72.6503 35.4475 72.9358 32.5481 73.2252C32.4491 73.7655 32.3318 74.4086 32.2145 75.0517C32.1616 75.045 32.1097 75.0383 32.0568 75.0325C32.0568 74.3778 32.0568 73.7241 32.0568 73.1867ZM40.4783 60.8872C42.2952 60.2998 43.8545 59.3702 45.2841 58.1791C45.7926 57.7551 45.883 57.385 45.6955 56.7505C44.9966 54.3885 44.5381 51.9851 44.8447 49.499C44.8803 49.2068 44.9197 48.9145 44.9582 48.6232C44.7399 48.8165 44.6572 49.0366 44.5957 49.2625C43.5209 53.2185 41.0041 55.8074 37.1577 57.162C36.8069 57.286 36.4637 57.5561 36.2224 57.8455C34.7025 59.6624 33.2864 59.8028 31.4685 58.2714C31.2628 58.0983 31.0916 57.883 30.8811 57.7157C30.6417 57.5253 30.3975 57.31 30.1178 57.2062C26.5637 55.8795 24.2103 53.4473 23.1989 49.7615C23.1441 49.5634 23.072 49.3702 23.0076 49.175C22.8759 49.7567 22.9749 50.3258 22.8586 50.8468C22.4539 52.6619 21.9674 54.4586 21.5358 56.2679C21.4829 56.489 21.4896 56.8245 21.6214 56.9735C22.8288 58.3435 24.3256 59.3096 26.0301 60.0575C26.1955 59.5134 26.3445 59.0193 26.4944 58.5251C26.5464 58.5376 26.5983 58.5492 26.6502 58.5617C26.6021 59.1145 26.5531 59.6672 26.506 60.2142C27.8048 60.9631 31.6281 61.8524 32.7355 61.662C32.8028 61.2563 32.8711 60.8458 32.9393 60.4354C32.9913 60.4363 33.0441 60.4373 33.096 60.4373C33.1528 60.8708 33.2085 61.3054 33.2739 61.8024C35.4542 61.9658 37.5836 61.7351 39.6726 61.1381C39.7976 61.1025 39.9043 60.8036 39.9188 60.619C39.9543 60.1652 39.9303 59.7067 39.9303 59.251C39.9851 59.2462 40.0399 59.2404 40.0947 59.2356C40.2158 59.7653 40.3398 60.295 40.4783 60.8872ZM37.6807 47.4562C38.6815 45.9497 40.0841 44.8499 41.6655 43.9511C41.8347 43.8549 41.9722 43.6886 42.0962 43.5319C43.1835 42.1476 43.9737 40.6142 44.2362 38.8626C44.6476 36.1189 44.1006 33.6569 41.8828 31.789C40.6292 30.7334 40.0235 30.7017 38.8449 31.8198C35.36 35.123 34.0757 39.2289 34.6871 43.9414C34.7525 44.4452 35.1053 44.9739 35.4619 45.3652C36.1243 46.0901 36.8886 46.7217 37.6807 47.4562ZM20.883 69.3663C27.8923 72.7541 34.9639 73.329 42.2904 71.2534C41.7703 68.1829 39.4198 65.5776 35.8349 66.214C34.3083 66.4851 32.9624 67.1206 31.5473 68.1733C32.4702 68.5463 33.2172 68.8491 34.0286 69.1769C33.1662 69.4105 32.4183 69.2086 31.7453 68.7953C31.1176 68.4088 30.5456 67.9281 29.9601 67.4753C29.0478 66.7687 28.1259 66.0323 26.9088 66.0362C24.3775 66.0448 22.4962 67.2917 20.883 69.3663ZM16.1167 53.5127C16.1897 53.3242 16.2589 53.207 16.2811 53.081C16.6243 51.1718 16.5022 49.3683 15.5148 47.5994C14.1641 45.1777 14.592 43.978 17.0117 42.6552C17.0319 42.6446 17.0501 42.6302 17.0713 42.6234C17.7529 42.3937 17.8279 41.9947 17.5741 41.3362C16.0397 37.3418 14.2901 33.4483 12.252 29.6846C12.0896 29.3856 11.9319 29.0838 11.7714 28.7829C11.8502 28.7444 11.929 28.706 12.0078 28.6685C15.0582 32.5831 16.6512 37.2341 18.5037 41.8121C18.7219 41.3333 18.9478 40.8497 18.9584 40.3623C19.0007 38.4867 18.8104 36.6284 18.124 34.8644C17.1963 32.4793 15.9138 30.2893 14.3401 28.2753C13.1182 26.7121 11.8127 25.2201 10.1053 24.1588C9.83231 23.9886 9.44969 23.9944 9.11802 23.9184C9.13917 24.2424 9.08725 24.5943 9.19396 24.8865C9.96785 26.9976 10.7273 29.1155 11.5772 31.1968C13.7585 36.5371 14.7198 42.0101 13.6825 47.7647C13.4412 49.1039 13.3999 50.4911 13.397 51.8563C13.3951 52.7484 13.744 53.5925 14.3881 54.324C14.8794 53.777 15.0794 52.734 16.1167 53.5127ZM51.6819 53.9712C52.8528 53.1368 53.495 52.0802 53.5767 50.7978C53.6613 49.4596 53.6084 48.1041 53.5026 46.7649C53.2863 44.028 53.0335 41.2958 53.4104 38.555C53.9045 34.9672 55.0975 31.5717 56.2646 28.1686C56.6876 26.9361 57.0875 25.695 57.4528 24.4452C57.6134 23.8953 57.3634 23.6858 56.8539 23.9463C56.2992 24.2299 55.7532 24.5664 55.2831 24.9721C52.8134 27.1015 50.9945 29.7336 49.4496 32.5821C48.3863 34.5423 48.0816 36.6515 48.0912 38.8338C48.0941 39.476 48.2585 40.0701 48.8324 40.5517C49.8697 36.1324 51.0579 31.8342 54.0554 28.3272C54.067 28.5637 53.9747 28.755 53.8747 28.9415C51.9404 32.5225 50.5378 36.3026 49.5832 40.2566C49.4304 40.8892 49.5371 41.2612 50.1552 41.5227C50.6282 41.7226 51.0666 42.0111 51.5011 42.2898C52.4394 42.8907 52.9306 43.7828 52.7413 44.8672C52.6067 45.6373 52.2077 46.3631 51.9039 47.0995C51.6155 47.7984 51.1512 48.4588 51.0233 49.1827C50.7378 50.7863 51.1454 52.3389 51.6819 53.9712ZM15.7879 54.0751C14.938 54.8874 14.2939 55.694 13.4739 56.2333C12.6491 56.7755 11.6685 57.1081 10.7206 57.4234C10.1793 57.6032 9.57082 57.4898 9.22858 56.9283C8.8998 56.39 9.14014 55.8843 9.45642 55.4248C9.59486 55.2229 9.7506 55.0066 9.94959 54.8768C10.8571 54.2904 11.7838 53.7338 12.7423 53.1425C12.6625 52.9493 12.527 52.6215 12.3635 52.2283C10.2111 52.8599 8.25569 53.7367 6.99055 55.6901C6.40509 56.5938 6.23301 57.5638 6.76464 58.5626C7.31068 59.5884 8.25665 59.8932 9.32375 59.8499C11.3426 59.7691 13.1345 59.0529 14.6996 57.7801C14.8813 57.6321 15.0534 57.4196 15.1284 57.2023C15.3995 56.4169 15.6494 55.6228 15.859 54.8191C15.9196 54.5913 15.8158 54.3202 15.7879 54.0751ZM14.044 54.6701C13.571 54.4481 13.1182 54.0645 12.9125 54.1683C11.9617 54.6509 11.0638 55.245 10.187 55.8584C10.0073 55.9843 10.0015 56.3592 9.91498 56.6188C10.1688 56.6419 10.4428 56.739 10.6725 56.6765C11.8886 56.3438 12.9163 55.6699 14.044 54.6701ZM32.2087 17.6062C33.469 17.6062 34.6688 17.6062 35.8715 17.6062C35.8013 16.8054 35.2062 16.2536 34.3516 16.167C33.2989 16.0613 32.5404 16.5429 32.2087 17.6062Z" fill="#560532"/>
<path d="M37.9922 30.9075C38.4046 30.8873 38.817 30.8671 39.2592 30.845C38.4853 31.5487 37.6711 32.1303 37.0568 32.8763C34.291 36.2392 33.3738 40.1086 34.1189 44.3799C34.1775 44.7183 34.389 45.0384 34.5659 45.346C34.6765 45.5364 34.8322 45.72 35.01 45.8507C38.6238 48.507 38.0902 52.3581 36.652 55.7902C36.3444 56.5246 35.8868 57.2235 35.3792 57.8407C34.5207 58.8838 33.7824 58.9617 32.5884 58.305C31.3367 57.6167 30.5782 56.5352 30.1245 55.2153C29.9014 54.5664 29.7092 53.9069 29.4313 53.2647C29.1218 54.2472 29.4332 55.1672 29.7467 56.1045C27.3548 55.4633 23.9132 51.7563 23.8574 49.6116C24.8649 50.4277 25.7772 51.1651 26.6886 51.9034C26.1666 50.123 24.8091 49.153 23.2421 48.4377C21.5127 47.6475 19.7303 47.2745 17.8922 48.2224C18.6507 48.256 19.4102 48.2897 20.2764 48.3272C19.5333 51.1997 17.9403 53.5146 16.5569 56.0238C16.8357 54.7538 17.1395 53.5858 17.3404 52.3985C17.6269 50.7056 17.4019 49.0905 16.455 47.6014C16.1579 47.1341 15.9474 46.5948 15.783 46.0622C15.4706 45.048 15.6946 44.4376 16.5771 43.8588C17.1395 43.4897 17.7346 43.1647 18.3354 42.86C19.0862 42.4802 19.466 41.8669 19.6054 41.0642C19.8832 39.4597 19.6707 37.8773 19.3794 36.3036C19.042 34.476 18.3729 32.685 18.6709 30.7864C18.8892 29.3943 19.0439 27.9629 19.5034 26.6458C20.211 24.6174 21.8943 23.857 23.9449 24.5145C24.8966 24.8193 25.7772 25.348 26.6828 25.7912C26.9405 25.9171 27.1702 26.0969 27.4721 26.1805C26.4483 24.0656 24.5169 22.9667 22.6202 21.7468C23.6805 21.9775 24.7399 22.2082 25.8003 22.438C25.833 22.3851 25.8657 22.3322 25.8993 22.2794C25.4013 21.9544 24.9043 21.6295 24.4102 21.3074C26.9818 18.3196 37.5663 17.787 40.9945 20.5345C40.1225 21.094 39.066 21.3959 38.4142 22.5322C39.7572 22.0583 40.9416 21.6401 42.126 21.2219C40.6253 22.6687 39.0227 23.9685 38.3921 26.2026C39.3688 25.5845 40.1504 24.95 41.0406 24.5635C41.9933 24.1492 43.0325 23.8271 44.0602 23.7185C45.7205 23.5426 46.9635 24.3761 47.5749 25.9008C47.9787 26.9073 48.2257 28.0071 48.3498 29.0877C48.544 30.7854 48.4526 32.461 47.9623 34.154C47.5432 35.5999 47.4432 37.1544 47.3375 38.6695C47.2269 40.2586 48.0969 41.341 49.462 42.0601C49.86 42.2697 50.2705 42.4562 50.6541 42.6898C51.8587 43.4224 52.1798 44.4366 51.6376 45.7498C51.5607 45.9363 51.4761 46.1267 51.3559 46.2862C50.0254 48.0513 49.9322 50.0172 50.4071 52.0745C50.7243 53.4493 51.0531 54.8211 51.3713 56.1689C50.136 54.8923 48.07 49.6135 48.17 47.8811C48.5305 47.8484 48.9006 47.8148 49.2717 47.7811C49.2698 47.7187 49.2679 47.6552 49.2659 47.5927C47.7826 47.062 46.3146 47.4466 44.861 47.8705C42.2106 48.6444 39.5255 50.5758 39.2496 52.2601C40.6753 50.8238 42.2404 49.7298 44.0391 48.9569C44.2467 51.1286 40.3177 55.4027 37.3702 56.1853C37.5807 55.6046 37.797 55.073 37.9672 54.526C38.6094 52.4648 38.8458 50.3999 38.0729 48.3041C37.9941 48.0907 38.1517 47.7013 38.3238 47.4966C39.6351 45.9334 41.304 44.8298 43.1306 43.9761C44.2611 43.4474 45.4522 43.0494 46.7731 42.5302C45.4061 42.2755 44.3025 42.8186 43.0719 43.1561C44.1477 41.5179 44.8437 39.8442 45.035 37.9975C45.3302 35.1432 44.4198 32.7571 42.1269 30.9844C41.1425 30.224 40.0004 29.9058 38.7584 30.272C38.4594 30.3605 38.195 30.5653 37.9153 30.7162C37.9412 30.7816 37.9672 30.845 37.9922 30.9075ZM21.9664 42.5735C25.4302 43.8857 27.6692 46.3795 29.3073 49.5731C29.2323 49.0809 29.1573 48.5877 29.0814 48.0917C30.3023 48.0695 30.908 47.7273 31.4857 46.7112C31.6953 46.342 31.877 45.9498 32.0164 45.5489C32.7028 43.5743 32.7884 41.5372 32.5355 39.4856C32.1183 36.1036 31.0772 32.9965 28.4431 30.6326C28.4123 30.6047 28.4017 30.5556 28.3815 30.5153C28.495 30.4634 28.6075 30.4114 28.8737 30.2894C28.4498 30.0673 28.1604 29.8539 27.8355 29.7587C26.8876 29.4809 26.0032 29.726 25.1985 30.2365C23.7113 31.1796 22.8413 32.5533 22.525 34.2761C22.1702 36.2074 22.2654 38.133 22.7442 40.0278C22.9807 40.9642 23.3392 41.8698 23.6382 42.7754C23.0778 42.7062 22.5221 42.6398 21.9664 42.5735Z" fill="url(#paint0_linear_356_1677)"/>
<path d="M20.9069 48.5243C22.3845 48.7492 22.4461 48.8271 22.3076 50.3066C22.0336 53.2426 20.8983 55.918 19.7898 58.5992C18.5872 61.5073 17.2413 64.3616 16.5232 67.4475C15.9925 69.7288 15.857 71.9889 16.9798 74.1616C17.7873 75.7257 19.0092 76.9014 20.4695 77.8387C23.1738 79.5759 26.1934 80.4219 29.337 80.8737C33.3276 81.4467 37.2807 81.2813 41.1674 80.1489C43.1045 79.5846 44.9196 78.752 46.502 77.4754C49.7581 74.8489 50.6252 71.3708 49.7359 67.4715C49.0736 64.5644 48.0334 61.7457 47.221 58.8703C46.5933 56.6448 45.9982 54.4068 45.5118 52.1476C45.307 51.1968 45.4329 50.1778 45.3849 49.1914C45.356 48.5925 45.6117 48.2695 46.202 48.1811C46.5933 48.1224 46.9797 48.0369 47.4306 47.9513C47.7411 50.7258 48.6458 53.208 49.9801 55.5287C50.8992 57.1264 51.8836 58.6867 52.8498 60.2566C54.7667 63.3714 55.9309 66.7024 56.2212 70.3912C56.5904 75.0816 54.8503 78.7665 51.3539 81.7447C47.8036 84.7701 43.666 86.5774 39.1111 87.3677C33.0901 88.4127 27.1298 88.055 21.3395 86.0237C17.9114 84.821 15.0629 82.807 13.2998 79.5086C11.8875 76.8668 11.6232 74.0318 11.9664 71.1131C12.4413 67.0755 13.9996 63.3906 15.7435 59.775C17.1211 56.9197 18.5718 54.1001 19.9398 51.241C20.3426 50.3989 20.5753 49.4731 20.9069 48.5243Z" fill="url(#paint1_linear_356_1677)"/>
<path d="M32.057 73.1867C32.057 73.7241 32.057 74.3768 32.057 75.0305C32.1098 75.0373 32.1618 75.044 32.2146 75.0498C32.3319 74.4066 32.4502 73.7635 32.5482 73.2232C35.4477 72.9338 38.3154 72.6474 41.2609 72.3541C41.3359 72.6733 41.4522 73.1655 41.5676 73.6577C41.6176 73.6568 41.6676 73.6558 41.7176 73.6549C41.7176 73.2578 41.6753 72.855 41.7349 72.4676C41.7666 72.258 41.9329 71.9542 42.106 71.8985C44.617 71.0804 46.9319 69.9267 48.8729 68.0992C48.8989 68.0752 48.9546 68.0829 49.0421 68.0684C49.6189 70.7083 49.318 73.1463 47.5232 75.2882C45.7668 77.3849 43.4817 78.6683 40.9014 79.3672C35.0006 80.965 29.146 80.7852 23.424 78.5299C21.3456 77.7108 19.5325 76.4716 18.1837 74.6374C16.6215 72.5128 16.2966 69.6989 17.3781 67.2946C19.1508 69.1375 21.3139 70.3449 23.6586 71.2784C23.5106 72.0167 23.3712 72.7137 23.2318 73.4097C23.2991 73.4289 23.3654 73.4482 23.4327 73.4674C23.6288 72.805 23.824 72.1426 23.9855 71.5947C26.6696 72.1253 29.3037 72.6445 32.057 73.1867Z" fill="white"/>
<path d="M40.478 60.8872C40.3396 60.296 40.2165 59.7653 40.0925 59.2356C40.0377 59.2404 39.9829 59.2462 39.9281 59.251C39.9281 59.7076 39.9522 60.1662 39.9166 60.619C39.9022 60.8036 39.7955 61.1025 39.6705 61.1381C37.5815 61.7351 35.4531 61.9668 33.2717 61.8024C33.2073 61.3054 33.1506 60.8708 33.0939 60.4373C33.042 60.4363 32.9891 60.4354 32.9372 60.4354C32.8689 60.8458 32.8007 61.2563 32.7334 61.662C31.6259 61.8524 27.8026 60.9631 26.5038 60.2142C26.5519 59.6672 26.6 59.1145 26.648 58.5617C26.5961 58.5492 26.5442 58.5376 26.4923 58.5251C26.3423 59.0193 26.1924 59.5134 26.028 60.0575C24.3235 59.3086 22.8267 58.3435 21.6192 56.9735C21.4885 56.8245 21.4817 56.489 21.5337 56.2679C21.9643 54.4586 22.4517 52.6619 22.8565 50.8468C22.9728 50.3258 22.8747 49.7557 23.0055 49.175C23.0699 49.3702 23.1429 49.5634 23.1968 49.7615C24.2081 53.4473 26.5615 55.8795 30.1156 57.2062C30.3954 57.31 30.6386 57.5263 30.8789 57.7157C31.0895 57.882 31.2606 58.0973 31.4663 58.2714C33.2842 59.8028 34.7003 59.6624 36.2202 57.8455C36.4625 57.5561 36.8047 57.285 37.1556 57.162C41.002 55.8074 43.5178 53.2185 44.5936 49.2625C44.6551 49.0366 44.7378 48.8165 44.956 48.6232C44.9185 48.9155 44.8791 49.2068 44.8426 49.499C44.5359 51.9851 44.9945 54.3885 45.6934 56.7505C45.8808 57.385 45.7905 57.7561 45.2819 58.1791C43.8543 59.3702 42.295 60.2998 40.478 60.8872Z" fill="white"/>
<path d="M37.6806 47.4561C36.8894 46.7217 36.1241 46.09 35.4618 45.3652C35.1041 44.9739 34.7523 44.4452 34.6869 43.9414C34.0755 39.2279 35.3599 35.123 38.8448 31.8198C40.0234 30.7027 40.629 30.7334 41.8826 31.789C44.0995 33.6569 44.6465 36.118 44.236 38.8626C43.9736 40.6142 43.1843 42.1475 42.0961 43.5319C41.973 43.6886 41.8346 43.8559 41.6654 43.951C40.0839 44.8499 38.6813 45.9497 37.6806 47.4561ZM38.0863 42.3523C37.8892 41.7688 37.7863 41.2045 37.5181 40.7353C37.1653 40.1191 36.5241 40.1412 36.077 40.6998C35.4195 41.5217 35.3551 43.1329 35.9444 44.0145C36.3789 44.6644 37.0643 44.7134 37.4604 44.0404C37.7565 43.5357 37.8796 42.9301 38.0863 42.3523Z" fill="white"/>
<path d="M20.8831 69.3663C22.4962 67.2917 24.3776 66.0448 26.9098 66.0362C28.1268 66.0313 29.0488 66.7687 29.9611 67.4753C30.5466 67.9291 31.1186 68.4088 31.7463 68.7952C32.4183 69.2096 33.1672 69.4105 34.0295 69.1769C33.2182 68.8491 32.4712 68.5462 31.5483 68.1732C32.9634 67.1206 34.3102 66.4851 35.8359 66.214C39.4198 65.5776 41.7713 68.1829 42.2914 71.2534C34.964 73.328 27.8913 72.7541 20.8831 69.3663Z" fill="#E0013F"/>
<path d="M16.1166 53.5127C15.0783 52.734 14.8793 53.778 14.389 54.3231C13.7449 53.5906 13.3959 52.7474 13.3979 51.8553C13.4008 50.4902 13.4421 49.103 13.6834 47.7638C14.7207 42.0092 13.7593 36.5362 11.578 31.1959C10.7282 29.1145 9.96776 26.9967 9.19484 24.8856C9.08716 24.5923 9.14005 24.2415 9.1189 23.9175C9.45056 23.9934 9.83317 23.9886 10.1062 24.1578C11.8136 25.2192 13.1191 26.7102 14.341 28.2743C15.9147 30.2884 17.1981 32.4793 18.1248 34.8634C18.8112 36.6285 19.0006 38.4858 18.9593 40.3614C18.9487 40.8498 18.7228 41.3324 18.5046 41.8111C16.652 37.2341 15.0591 32.5821 12.0087 28.6675C11.9299 28.706 11.8511 28.7444 11.7722 28.7819C11.9328 29.0828 12.0904 29.3837 12.2529 29.6837C14.291 33.4474 16.0406 37.3408 17.5749 41.3352C17.8278 41.9947 17.7538 42.3937 17.0722 42.6225C17.051 42.6292 17.0327 42.6436 17.0126 42.6542C14.5919 43.977 14.1641 45.1768 15.5157 47.5985C16.5021 49.3673 16.6251 51.1708 16.2819 53.0801C16.2589 53.206 16.1906 53.3233 16.1166 53.5127Z" fill="#CCE70B" stroke="url(#paint2_linear_356_1677)" stroke-width="0.0240338" stroke-miterlimit="10"/>
<path d="M51.6819 53.9713C51.1455 52.3389 50.7379 50.7853 51.0234 49.1808C51.1522 48.4569 51.6166 47.7965 51.904 47.0976C52.2078 46.3612 52.6068 45.6344 52.7413 44.8653C52.9307 43.7819 52.4404 42.8898 51.5012 42.288C51.0667 42.0092 50.6273 41.7208 50.1553 41.5208C49.5372 41.2593 49.4314 40.8873 49.5833 40.2547C50.5379 36.3007 51.9405 32.5197 53.8748 28.9396C53.9757 28.7531 54.067 28.5618 54.0555 28.3253C51.058 31.8333 49.8698 36.1305 48.8325 40.5498C48.2586 40.0682 48.0942 39.4741 48.0913 38.8319C48.0817 36.6496 48.3864 34.5414 49.4497 32.5802C50.9936 29.7317 52.8134 27.1005 55.2831 24.9702C55.7532 24.5645 56.2993 24.228 56.854 23.9444C57.3635 23.6839 57.6135 23.8935 57.4529 24.4434C57.0876 25.6941 56.6877 26.9342 56.2647 28.1667C55.0976 31.5698 53.9046 34.9653 53.4104 38.5531C53.0336 41.2949 53.2864 44.0261 53.5027 46.763C53.6085 48.1022 53.6613 49.4577 53.5767 50.7959C53.495 52.0803 52.8529 53.1368 51.6819 53.9713Z" fill="#CCE70B" stroke="url(#paint3_linear_356_1677)" stroke-width="0.0240338" stroke-miterlimit="10"/>
<path d="M15.7876 54.075C15.8155 54.3201 15.9193 54.5912 15.8597 54.82C15.6501 55.6237 15.4011 56.4178 15.129 57.2032C15.0541 57.4205 14.882 57.6329 14.7003 57.781C13.1352 59.0538 11.3433 59.77 9.32441 59.8508C8.25635 59.8931 7.31037 59.5893 6.76529 58.5635C6.23366 57.5647 6.40671 56.5947 6.99121 55.691C8.25539 53.7375 10.2117 52.8608 12.3642 52.2292C12.5267 52.6224 12.6632 52.9512 12.743 53.1434C11.7855 53.7347 10.8587 54.2913 9.95024 54.8777C9.75028 55.0065 9.5955 55.2238 9.45707 55.4257C9.14079 55.8862 8.90045 56.3909 9.22923 56.9292C9.57147 57.4907 10.18 57.6041 10.7212 57.4243C11.6701 57.109 12.6507 56.7764 13.4746 56.2342C14.2936 55.6939 14.9377 54.8873 15.7876 54.075Z" fill="#80C41C" stroke="url(#paint4_linear_356_1677)" stroke-width="0.0240338" stroke-miterlimit="10"/>
<path d="M21.9666 42.5735C22.5222 42.6398 23.0779 42.7071 23.6383 42.7744C23.3394 41.8688 22.9808 40.9632 22.7443 40.0269C22.2665 38.1321 22.1704 36.2065 22.5251 34.2751C22.8414 32.5533 23.7114 31.1796 25.1986 30.2355C26.0033 29.7251 26.8887 29.4799 27.8356 29.7577C28.1596 29.8529 28.4489 30.0663 28.8739 30.2884C28.6076 30.4105 28.4951 30.4624 28.3816 30.5153C28.4018 30.5547 28.4124 30.6047 28.4432 30.6326C31.0773 32.9965 32.1194 36.1036 32.5356 39.4857C32.7885 41.5362 32.7029 43.5743 32.0165 45.5489C31.8771 45.9498 31.6954 46.342 31.4858 46.7112C30.9071 47.7273 30.3024 48.0696 29.0815 48.0917C29.1574 48.5877 29.2324 49.0809 29.3074 49.5731C27.6693 46.3795 25.4313 43.8848 21.9666 42.5735ZM32.1348 41.7564C31.9194 40.1913 31.8281 38.906 31.5541 37.661C30.9773 35.0432 29.9102 32.6726 27.7837 30.8979C27.4049 30.5816 27.0694 30.5211 26.6233 30.7124C24.9958 31.4084 24.0046 32.6687 23.5057 34.3117C22.5693 37.3957 23.2701 40.3143 24.5382 43.1494C24.6276 43.3484 24.8794 43.4926 25.0813 43.6204C26.3936 44.453 27.4674 45.5249 28.3105 46.8265C28.7864 47.56 29.5651 47.7783 30.2246 47.2043C30.6793 46.8083 31.1292 46.2622 31.2888 45.6998C31.6781 44.3289 31.8973 42.91 32.1348 41.7564Z" fill="black"/>
<path d="M38.0863 42.3523C37.8796 42.931 37.7565 43.5367 37.4604 44.0404C37.0643 44.7134 36.3779 44.6644 35.9444 44.0145C35.355 43.1329 35.4204 41.5217 36.077 40.6997C36.5241 40.1412 37.1653 40.1191 37.5181 40.7353C37.7863 41.2045 37.8892 41.7688 38.0863 42.3523Z" fill="black"/>
<path d="M32.1348 41.7563C31.8974 42.9099 31.6792 44.3288 31.2898 45.6988C31.1302 46.2612 30.6803 46.8072 30.2256 47.2033C29.5661 47.7772 28.7874 47.559 28.3116 46.8255C27.4684 45.5238 26.3956 44.4519 25.0824 43.6194C24.8795 43.4915 24.6276 43.3473 24.5392 43.1483C23.2712 40.3133 22.5704 37.3956 23.5067 34.3106C24.0056 32.6686 24.9968 31.4083 26.6244 30.7113C27.0704 30.52 27.4059 30.5806 27.7847 30.8969C29.9112 32.6715 30.9783 35.0422 31.5551 37.66C31.8282 38.9059 31.9195 40.1912 32.1348 41.7563ZM28.475 42.832C28.6557 43.4098 28.7393 43.9318 28.9749 44.3731C29.3585 45.0893 30.0583 45.0883 30.5419 44.4336C31.1418 43.6213 31.1764 41.9793 30.6101 41.165C30.1843 40.5517 29.5094 40.4931 29.1268 41.1276C28.8163 41.6438 28.6826 42.2687 28.475 42.832Z" fill="white"/>
<path d="M28.4746 42.832C28.6823 42.2696 28.8159 41.6438 29.1274 41.1266C29.51 40.4921 30.1849 40.5517 30.6107 41.1641C31.177 41.9793 31.1424 43.6203 30.5425 44.4327C30.0589 45.0874 29.3581 45.0883 28.9755 44.3721C28.739 43.9318 28.6553 43.4098 28.4746 42.832Z" fill="black"/>
<g opacity="0.9">
<path d="M33.5249 27.7888C38.3077 27.7888 43.0923 27.7139 47.8741 27.8081C53.6768 27.9225 58.8104 32.0669 59.9909 37.9523C61.1311 43.6396 58.5826 49.1866 53.5345 51.8832C48.9921 54.3106 43.6287 54.0741 39.3152 50.5758C38.2183 49.6865 37.0387 48.9501 35.6726 48.5627C33.3586 47.9061 31.1917 48.3041 29.17 49.5606C28.6701 49.8711 28.199 50.2316 27.7357 50.5969C25.8706 52.0687 23.7682 53.0282 21.4167 53.3214C16.6946 53.9107 12.7761 52.3312 9.71996 48.7021C7.94242 46.591 7.0224 44.1145 6.86185 41.3497C6.49173 34.9634 10.7746 29.3703 17.0695 28.0369C17.9981 27.8408 18.9364 27.7725 19.8843 27.7744C22.1675 27.7792 24.4507 27.7677 26.734 27.7658C28.9979 27.7638 31.261 27.7658 33.5249 27.7658C33.5249 27.7725 33.5249 27.7812 33.5249 27.7888Z" fill="#058E16" stroke="url(#paint5_linear_356_1677)" stroke-width="0.0240338" stroke-miterlimit="10"/>
<path d="M34.0035 26.8669C38.8218 26.8669 43.641 26.7919 48.4564 26.8861C54.3014 27.0015 59.4725 31.1757 60.6617 37.1034C61.8106 42.8311 59.2428 48.4194 54.1582 51.1353C49.5831 53.58 44.1813 53.3425 39.836 49.8182C38.7314 48.9222 37.5432 48.181 36.1665 47.7898C33.8352 47.1283 31.653 47.5292 29.6168 48.7953C29.1131 49.1078 28.6382 49.4712 28.1719 49.8394C26.2925 51.3218 24.1756 52.2879 21.8068 52.584C17.05 53.1781 13.1037 51.5871 10.0245 47.9311C8.23444 45.8055 7.30675 43.3108 7.14524 40.5258C6.77223 34.0934 11.0858 28.4599 17.4269 27.1169C18.3623 26.9188 19.3073 26.8506 20.2619 26.8525C22.5615 26.8573 24.862 26.8458 27.1615 26.8438C29.4419 26.8419 31.7212 26.8438 34.0015 26.8438C34.0035 26.8506 34.0035 26.8583 34.0035 26.8669Z" fill="url(#paint6_linear_356_1677)"/>
</g>
<defs>
<linearGradient id="paint0_linear_356_1677" x1="15.6513" y1="38.7353" x2="51.8956" y2="38.7353" gradientUnits="userSpaceOnUse">
<stop stop-color="#008CFF"/>
<stop offset="0.0207" stop-color="#0B86F7"/>
<stop offset="0.2107" stop-color="#6F4DB1"/>
<stop offset="0.364" stop-color="#B7247E"/>
<stop offset="0.4731" stop-color="#E50A5E"/>
<stop offset="0.5279" stop-color="#F60052"/>
<stop offset="0.5816" stop-color="#E20C4D"/>
<stop offset="0.6915" stop-color="#AF2A40"/>
<stop offset="0.8461" stop-color="#5D5A2C"/>
<stop offset="1" stop-color="#058E16"/>
</linearGradient>
<linearGradient id="paint1_linear_356_1677" x1="11.8309" y1="67.9451" x2="56.2695" y2="67.9451" gradientUnits="userSpaceOnUse">
<stop stop-color="#008CFF"/>
<stop offset="0.0207" stop-color="#0B86F7"/>
<stop offset="0.2107" stop-color="#6F4DB1"/>
<stop offset="0.364" stop-color="#B7247E"/>
<stop offset="0.4731" stop-color="#E50A5E"/>
<stop offset="0.5279" stop-color="#F60052"/>
<stop offset="0.5816" stop-color="#E20C4D"/>
<stop offset="0.6915" stop-color="#AF2A40"/>
<stop offset="0.8461" stop-color="#5D5A2C"/>
<stop offset="1" stop-color="#058E16"/>
</linearGradient>
<linearGradient id="paint2_linear_356_1677" x1="9.10551" y1="39.1208" x2="18.9764" y2="39.1208" gradientUnits="userSpaceOnUse">
<stop stop-color="#FFFF25"/>
<stop offset="0.0611" stop-color="#FFE816"/>
<stop offset="0.1314" stop-color="#FED50B"/>
<stop offset="0.2038" stop-color="#FECA03"/>
<stop offset="0.2809" stop-color="#FEC601"/>
<stop offset="0.6685" stop-color="#FB7B1E"/>
<stop offset="0.8876" stop-color="#F9441B"/>
<stop offset="1" stop-color="#F71818"/>
</linearGradient>
<linearGradient id="paint3_linear_356_1677" x1="48.0794" y1="38.907" x2="57.5129" y2="38.907" gradientUnits="userSpaceOnUse">
<stop stop-color="#FFFF25"/>
<stop offset="0.0611" stop-color="#FFE816"/>
<stop offset="0.1314" stop-color="#FED50B"/>
<stop offset="0.2038" stop-color="#FECA03"/>
<stop offset="0.2809" stop-color="#FEC601"/>
<stop offset="0.6685" stop-color="#FB7B1E"/>
<stop offset="0.8876" stop-color="#F9441B"/>
<stop offset="1" stop-color="#F71818"/>
</linearGradient>
<linearGradient id="paint4_linear_356_1677" x1="6.43401" y1="56.0403" x2="15.8896" y2="56.0403" gradientUnits="userSpaceOnUse">
<stop stop-color="#FFFF25"/>
<stop offset="0.0611" stop-color="#FFE816"/>
<stop offset="0.1314" stop-color="#FED50B"/>
<stop offset="0.2038" stop-color="#FECA03"/>
<stop offset="0.2809" stop-color="#FEC601"/>
<stop offset="0.6685" stop-color="#FB7B1E"/>
<stop offset="0.8876" stop-color="#F9441B"/>
<stop offset="1" stop-color="#F71818"/>
</linearGradient>
<linearGradient id="paint5_linear_356_1677" x1="6.82751" y1="40.6248" x2="60.272" y2="40.6248" gradientUnits="userSpaceOnUse">
<stop stop-color="#FFFF25"/>
<stop offset="0.0611" stop-color="#FFE816"/>
<stop offset="0.1314" stop-color="#FED50B"/>
<stop offset="0.2038" stop-color="#FECA03"/>
<stop offset="0.2809" stop-color="#FEC601"/>
<stop offset="0.6685" stop-color="#FB7B1E"/>
<stop offset="0.8876" stop-color="#F9441B"/>
<stop offset="1" stop-color="#F71818"/>
</linearGradient>
<linearGradient id="paint6_linear_356_1677" x1="7.12422" y1="39.796" x2="60.9323" y2="39.796" gradientUnits="userSpaceOnUse">
<stop stop-color="#008CFF"/>
<stop offset="0.0207" stop-color="#0B86F7"/>
<stop offset="0.2107" stop-color="#6F4DB1"/>
<stop offset="0.364" stop-color="#B7247E"/>
<stop offset="0.4731" stop-color="#E50A5E"/>
<stop offset="0.5279" stop-color="#F60052"/>
<stop offset="0.5816" stop-color="#E20C4D"/>
<stop offset="0.6915" stop-color="#AF2A40"/>
<stop offset="0.8461" stop-color="#5D5A2C"/>
<stop offset="1" stop-color="#058E16"/>
</linearGradient>
</defs>
</svg>
