<svg width="25" height="24" viewBox="0 0 25 24" fill="none" xmlns="http://www.w3.org/2000/svg">
<path opacity="0.4" d="M20.9728 16.8354C20.3165 12.8866 18.2733 9.94613 16.4971 8.219C15.9802 7.71642 15.7218 7.46513 15.1509 7.23257C14.58 7 14.0893 7 13.1079 7H10.9523C9.97096 7 9.48025 7 8.90937 7.23257C8.33849 7.46513 8.08006 7.71642 7.56319 8.219C5.78697 9.94613 3.74376 12.8866 3.08742 16.8354C2.59908 19.7734 5.30942 22 8.33847 22H15.7218C18.7508 22 21.4612 19.7734 20.9728 16.8354Z" fill="#FFFFE3"/>
<path d="M20.9728 16.8354C20.3165 12.8866 18.2733 9.94613 16.4971 8.219C15.9802 7.71642 15.7218 7.46513 15.1509 7.23257C14.58 7 14.0893 7 13.1079 7H10.9523C9.97096 7 9.48025 7 8.90937 7.23257C8.33849 7.46513 8.08006 7.71642 7.56319 8.219C5.78697 9.94613 3.74376 12.8866 3.08742 16.8354C2.59908 19.7734 5.30942 22 8.33847 22H15.7218C18.7508 22 21.4612 19.7734 20.9728 16.8354Z" stroke="#FFFFE3" stroke-width="1.5" stroke-linecap="round"/>
<path d="M13.7995 12.9259C13.5833 12.1278 12.4829 11.4076 11.162 11.9464C9.84102 12.4851 9.6312 14.2186 11.6293 14.4028C12.5323 14.486 13.1211 14.3062 13.6601 14.8149C14.1992 15.3235 14.2993 16.7381 12.9213 17.1193C11.5433 17.5005 10.1788 16.9049 10.0302 16.059M12.0145 11V11.7604M12.0145 17.2366V18" stroke="#FFFFE3" stroke-width="1.5" stroke-linecap="round" stroke-linejoin="round"/>
<path d="M7.28677 4.44287C7.08046 4.14258 6.78143 3.73499 7.39914 3.64205C8.03407 3.54651 8.69336 3.98114 9.3387 3.97221C9.92252 3.96413 10.22 3.70519 10.5391 3.33548C10.8751 2.94617 11.3954 2 12.0302 2C12.665 2 13.1853 2.94617 13.5213 3.33548C13.8404 3.70519 14.1378 3.96413 14.7216 3.97221C15.367 3.98114 16.0263 3.54651 16.6612 3.64205C17.2789 3.73499 16.9799 4.14258 16.7736 4.44287L15.8407 5.80064C15.4417 6.38146 15.2422 6.67187 14.8246 6.83594C14.4071 7 13.8675 7 12.7884 7H11.272C10.1929 7 9.65325 7 9.23571 6.83594C8.81817 6.67187 8.61865 6.38146 8.2196 5.80064L7.28677 4.44287Z" stroke="#FFFFE3" stroke-width="1.5"/>
</svg>
