<svg width="82" height="28" viewBox="0 0 82 28" fill="none" xmlns="http://www.w3.org/2000/svg">
<mask id="path-1-outside-1_277_734" maskUnits="userSpaceOnUse" x="-1" y="-1" width="84" height="30" fill="black">
<rect fill="white" x="-1" y="-1" width="84" height="30"/>
<path d="M11.4154 22.256C4.88737 22.256 0.375375 17.424 0.375375 11.248C0.375375 5.072 4.88737 0.24 11.4154 0.24C17.9434 0.24 22.4554 5.072 22.4554 11.248C22.4554 17.424 17.9434 22.256 11.4154 22.256ZM11.4154 16.656C14.7434 16.656 16.3754 14.352 16.3754 11.248C16.3754 8.144 14.7434 5.84 11.4154 5.84C8.08737 5.84 6.45537 8.144 6.45537 11.248C6.45537 14.352 8.08737 16.656 11.4154 16.656ZM31.5814 22.32C26.5254 22.32 23.3574 18.8 23.3574 14.096C23.3574 9.392 26.5254 5.872 31.5814 5.872C36.8934 5.872 40.0614 9.392 40.0614 14.096C40.0614 18.8 36.8934 22.32 31.5814 22.32ZM31.7094 17.712C33.1814 17.712 34.2054 16.848 34.2054 14.096C34.2054 11.344 33.1814 10.48 31.7094 10.48C30.2374 10.48 29.2134 11.344 29.2134 14.096C29.2134 16.848 30.2374 17.712 31.7094 17.712ZM47.1181 27.952H41.3581V6.192H47.1181V10.864C47.5341 8.24 48.7181 5.872 52.1101 5.872C55.5661 5.872 57.9021 8.688 57.9021 14.096C57.9021 19.504 55.5661 22.32 51.7901 22.32C48.3981 22.32 47.5021 19.984 47.1181 17.392V27.952ZM47.1181 14.8C47.1181 17.36 48.1421 17.968 49.3581 17.968C51.2141 17.968 52.0461 16.432 52.0461 14.096C52.0461 11.76 51.2141 10.224 49.3581 10.224C48.1421 10.224 47.1181 10.832 47.1181 13.392V14.8ZM66.3974 22.32C62.7494 22.32 59.5494 21.136 57.9814 19.92L60.1254 15.76C61.9494 17.008 64.6694 18.096 66.5574 18.096C67.4214 18.096 67.8374 17.904 67.8374 17.456C67.8374 16.976 67.2934 16.752 65.6934 16.336L63.5174 15.76C60.2854 14.896 58.4934 13.712 58.4934 11.056C58.4934 7.792 61.2134 5.904 65.4054 5.904C68.8934 5.904 71.4214 7.216 72.6694 8.144L70.7174 12.24C68.6694 10.736 66.4294 10.096 64.8614 10.096C64.0614 10.096 63.6774 10.352 63.6774 10.736C63.6774 11.216 64.1254 11.44 66.1734 12.048L67.8054 12.528C71.2294 13.52 72.9574 14.8 72.9574 17.36C72.9574 20.336 70.4614 22.32 66.3974 22.32ZM80.1909 14.544H75.0709C75.0709 10.576 73.7909 5.744 73.7909 0.559999H81.4709C81.4709 5.712 80.1909 10.576 80.1909 14.544ZM80.5109 22H74.7509V16.528H80.5109V22Z"/>
</mask>
<path d="M11.4154 22.256C4.88737 22.256 0.375375 17.424 0.375375 11.248C0.375375 5.072 4.88737 0.24 11.4154 0.24C17.9434 0.24 22.4554 5.072 22.4554 11.248C22.4554 17.424 17.9434 22.256 11.4154 22.256ZM11.4154 16.656C14.7434 16.656 16.3754 14.352 16.3754 11.248C16.3754 8.144 14.7434 5.84 11.4154 5.84C8.08737 5.84 6.45537 8.144 6.45537 11.248C6.45537 14.352 8.08737 16.656 11.4154 16.656ZM31.5814 22.32C26.5254 22.32 23.3574 18.8 23.3574 14.096C23.3574 9.392 26.5254 5.872 31.5814 5.872C36.8934 5.872 40.0614 9.392 40.0614 14.096C40.0614 18.8 36.8934 22.32 31.5814 22.32ZM31.7094 17.712C33.1814 17.712 34.2054 16.848 34.2054 14.096C34.2054 11.344 33.1814 10.48 31.7094 10.48C30.2374 10.48 29.2134 11.344 29.2134 14.096C29.2134 16.848 30.2374 17.712 31.7094 17.712ZM47.1181 27.952H41.3581V6.192H47.1181V10.864C47.5341 8.24 48.7181 5.872 52.1101 5.872C55.5661 5.872 57.9021 8.688 57.9021 14.096C57.9021 19.504 55.5661 22.32 51.7901 22.32C48.3981 22.32 47.5021 19.984 47.1181 17.392V27.952ZM47.1181 14.8C47.1181 17.36 48.1421 17.968 49.3581 17.968C51.2141 17.968 52.0461 16.432 52.0461 14.096C52.0461 11.76 51.2141 10.224 49.3581 10.224C48.1421 10.224 47.1181 10.832 47.1181 13.392V14.8ZM66.3974 22.32C62.7494 22.32 59.5494 21.136 57.9814 19.92L60.1254 15.76C61.9494 17.008 64.6694 18.096 66.5574 18.096C67.4214 18.096 67.8374 17.904 67.8374 17.456C67.8374 16.976 67.2934 16.752 65.6934 16.336L63.5174 15.76C60.2854 14.896 58.4934 13.712 58.4934 11.056C58.4934 7.792 61.2134 5.904 65.4054 5.904C68.8934 5.904 71.4214 7.216 72.6694 8.144L70.7174 12.24C68.6694 10.736 66.4294 10.096 64.8614 10.096C64.0614 10.096 63.6774 10.352 63.6774 10.736C63.6774 11.216 64.1254 11.44 66.1734 12.048L67.8054 12.528C71.2294 13.52 72.9574 14.8 72.9574 17.36C72.9574 20.336 70.4614 22.32 66.3974 22.32ZM80.1909 14.544H75.0709C75.0709 10.576 73.7909 5.744 73.7909 0.559999H81.4709C81.4709 5.712 80.1909 10.576 80.1909 14.544ZM80.5109 22H74.7509V16.528H80.5109V22Z" fill="#FFFFE3"/>
<path d="M11.4154 21.256C5.45688 21.256 1.37537 16.8891 1.37537 11.248H-0.624626C-0.624626 17.9589 4.31787 23.256 11.4154 23.256V21.256ZM1.37537 11.248C1.37537 5.6069 5.45688 1.24 11.4154 1.24V-0.76C4.31787 -0.76 -0.624626 4.53709 -0.624626 11.248H1.37537ZM11.4154 1.24C17.3739 1.24 21.4554 5.6069 21.4554 11.248H23.4554C23.4554 4.53709 18.5129 -0.76 11.4154 -0.76V1.24ZM21.4554 11.248C21.4554 16.8891 17.3739 21.256 11.4154 21.256V23.256C18.5129 23.256 23.4554 17.9589 23.4554 11.248H21.4554ZM11.4154 17.656C13.3277 17.656 14.8626 16.9835 15.9035 15.7658C16.9247 14.571 17.3754 12.9637 17.3754 11.248H15.3754C15.3754 12.6363 15.01 13.733 14.3832 14.4662C13.7761 15.1765 12.8311 15.656 11.4154 15.656V17.656ZM17.3754 11.248C17.3754 9.53234 16.9247 7.92495 15.9035 6.73025C14.8626 5.51252 13.3277 4.84 11.4154 4.84V6.84C12.8311 6.84 13.7761 7.31948 14.3832 8.02975C15.01 8.76304 15.3754 9.85965 15.3754 11.248H17.3754ZM11.4154 4.84C9.50306 4.84 7.96811 5.51252 6.92723 6.73025C5.90603 7.92495 5.45538 9.53234 5.45538 11.248H7.45538C7.45538 9.85965 7.82072 8.76304 8.44752 8.02975C9.05464 7.31948 9.99969 6.84 11.4154 6.84V4.84ZM5.45538 11.248C5.45538 12.9637 5.90603 14.571 6.92723 15.7658C7.96811 16.9835 9.50306 17.656 11.4154 17.656V15.656C9.99969 15.656 9.05464 15.1765 8.44752 14.4662C7.82072 13.733 7.45538 12.6363 7.45538 11.248H5.45538ZM31.5814 21.32C29.2949 21.32 27.5076 20.5297 26.2912 19.2757C25.0702 18.017 24.3574 16.2215 24.3574 14.096H22.3574C22.3574 16.6745 23.2286 18.991 24.8556 20.6683C26.4872 22.3503 28.8118 23.32 31.5814 23.32V21.32ZM24.3574 14.096C24.3574 11.9705 25.0702 10.175 26.2912 8.91627C27.5076 7.66226 29.2949 6.872 31.5814 6.872V4.872C28.8118 4.872 26.4872 5.84174 24.8556 7.52373C23.2286 9.20103 22.3574 11.5175 22.3574 14.096H24.3574ZM31.5814 6.872C34.0094 6.872 35.8607 7.67129 37.1034 8.9242C38.3493 10.1804 39.0614 11.9712 39.0614 14.096H41.0614C41.0614 11.5168 40.1894 9.19558 38.5234 7.5158C36.854 5.83271 34.4654 4.872 31.5814 4.872V6.872ZM39.0614 14.096C39.0614 16.2208 38.3493 18.0116 37.1034 19.2678C35.8607 20.5207 34.0094 21.32 31.5814 21.32V23.32C34.4654 23.32 36.854 22.3593 38.5234 20.6762C40.1894 18.9964 41.0614 16.6752 41.0614 14.096H39.0614ZM31.7094 18.712C32.6512 18.712 33.6114 18.4247 34.2957 17.5538C34.9384 16.7359 35.2054 15.5633 35.2054 14.096H33.2054C33.2054 15.3807 32.9604 16.0161 32.7231 16.3182C32.5273 16.5673 32.2395 16.712 31.7094 16.712V18.712ZM35.2054 14.096C35.2054 12.6287 34.9384 11.4561 34.2957 10.6382C33.6114 9.76728 32.6512 9.48 31.7094 9.48V11.48C32.2395 11.48 32.5273 11.6247 32.7231 11.8738C32.9604 12.1759 33.2054 12.8113 33.2054 14.096H35.2054ZM31.7094 9.48C30.7675 9.48 29.8073 9.76728 29.1231 10.6382C28.4804 11.4561 28.2134 12.6287 28.2134 14.096H30.2134C30.2134 12.8113 30.4584 12.1759 30.6957 11.8738C30.8914 11.6247 31.1792 11.48 31.7094 11.48V9.48ZM28.2134 14.096C28.2134 15.5633 28.4804 16.7359 29.1231 17.5538C29.8073 18.4247 30.7675 18.712 31.7094 18.712V16.712C31.1792 16.712 30.8914 16.5673 30.6957 16.3182C30.4584 16.0161 30.2134 15.3807 30.2134 14.096H28.2134ZM47.1181 27.952V28.952H48.1181V27.952H47.1181ZM41.3581 27.952H40.3581V28.952H41.3581V27.952ZM41.3581 6.192V5.192H40.3581V6.192H41.3581ZM47.1181 6.192H48.1181V5.192H47.1181V6.192ZM47.1181 10.864H46.1181L48.1058 11.0206L47.1181 10.864ZM47.1181 17.392L48.1073 17.2455L46.1181 17.392H47.1181ZM47.1181 26.952H41.3581V28.952H47.1181V26.952ZM42.3581 27.952V6.192H40.3581V27.952H42.3581ZM41.3581 7.192H47.1181V5.192H41.3581V7.192ZM46.1181 6.192V10.864H48.1181V6.192H46.1181ZM48.1058 11.0206C48.3018 9.78415 48.6615 8.74495 49.2642 8.0268C49.8278 7.35509 50.6799 6.872 52.1101 6.872V4.872C50.1483 4.872 48.7124 5.57291 47.7321 6.7412C46.7907 7.86305 46.3504 9.31985 46.1305 10.7074L48.1058 11.0206ZM52.1101 6.872C53.5338 6.872 54.6772 7.43558 55.4968 8.54888C56.3431 9.69839 56.9021 11.5186 56.9021 14.096H58.9021C58.9021 11.2654 58.2931 8.97361 57.1074 7.36312C55.8951 5.71642 54.1425 4.872 52.1101 4.872V6.872ZM56.9021 14.096C56.9021 16.6749 56.3426 18.4853 55.468 19.6283C54.6222 20.7336 53.4031 21.32 51.7901 21.32V23.32C53.9532 23.32 55.7901 22.4984 57.0563 20.8437C58.2937 19.2267 58.9021 16.9251 58.9021 14.096H56.9021ZM51.7901 21.32C50.3605 21.32 49.6009 20.8473 49.1198 20.2196C48.5861 19.5234 48.2942 18.5066 48.1073 17.2455L46.1289 17.5385C46.3261 18.8694 46.6741 20.3166 47.5325 21.4364C48.4433 22.6247 49.8277 23.32 51.7901 23.32V21.32ZM46.1181 17.392V27.952H48.1181V17.392H46.1181ZM46.1181 14.8C46.1181 16.1815 46.3889 17.2614 47.0256 17.998C47.6939 18.7711 48.588 18.968 49.3581 18.968V16.968C48.9123 16.968 48.6864 16.8609 48.5387 16.69C48.3593 16.4826 48.1181 15.9785 48.1181 14.8H46.1181ZM49.3581 18.968C50.6127 18.968 51.6054 18.4226 52.2362 17.4535C52.8262 16.547 53.0461 15.3561 53.0461 14.096H51.0461C51.0461 15.1719 50.85 15.917 50.56 16.3625C50.3108 16.7454 49.9595 16.968 49.3581 16.968V18.968ZM53.0461 14.096C53.0461 12.8359 52.8262 11.645 52.2362 10.7385C51.6054 9.76936 50.6127 9.224 49.3581 9.224V11.224C49.9595 11.224 50.3108 11.4466 50.56 11.8295C50.85 12.275 51.0461 13.0201 51.0461 14.096H53.0461ZM49.3581 9.224C48.588 9.224 47.6939 9.42093 47.0256 10.194C46.3889 10.9306 46.1181 12.0105 46.1181 13.392H48.1181C48.1181 12.2135 48.3593 11.7094 48.5387 11.502C48.6864 11.3311 48.9123 11.224 49.3581 11.224V9.224ZM46.1181 13.392V14.8H48.1181V13.392H46.1181ZM57.9814 19.92L57.0925 19.4619L56.7117 20.2008L57.3686 20.7102L57.9814 19.92ZM60.1254 15.76L60.6901 14.9347L59.7553 14.2951L59.2365 15.3019L60.1254 15.76ZM65.6934 16.336L65.4375 17.3027L65.4417 17.3038L65.6934 16.336ZM63.5174 15.76L63.2591 16.7261L63.2615 16.7267L63.5174 15.76ZM72.6694 8.144L73.5721 8.57421L73.9258 7.83208L73.2661 7.34154L72.6694 8.144ZM70.7174 12.24L70.1255 13.046L71.1 13.7617L71.6201 12.6702L70.7174 12.24ZM66.1734 12.048L65.8888 13.0066L65.8912 13.0074L66.1734 12.048ZM67.8054 12.528L67.5232 13.4874L67.5271 13.4885L67.8054 12.528ZM66.3974 21.32C62.9263 21.32 59.9544 20.1846 58.5942 19.1298L57.3686 20.7102C59.1444 22.0874 62.5724 23.32 66.3974 23.32V21.32ZM58.8703 20.3781L61.0143 16.2181L59.2365 15.3019L57.0925 19.4619L58.8703 20.3781ZM59.5607 16.5853C60.5449 17.2587 61.7538 17.8787 62.967 18.3326C64.1685 18.7821 65.4468 19.096 66.5574 19.096V17.096C65.78 17.096 64.7542 16.8659 63.6678 16.4594C62.5929 16.0573 61.5299 15.5093 60.6901 14.9347L59.5607 16.5853ZM66.5574 19.096C67.0256 19.096 67.5368 19.0503 67.9618 18.8418C68.1926 18.7286 68.4265 18.5535 68.598 18.2889C68.7719 18.0207 68.8374 17.7286 68.8374 17.456H66.8374C66.8374 17.4074 66.8509 17.3073 66.9197 17.2011C66.9862 17.0985 67.0621 17.0554 67.0809 17.0462C67.0937 17.04 67.0658 17.0557 66.968 17.0709C66.8733 17.0857 66.7395 17.096 66.5574 17.096V19.096ZM68.8374 17.456C68.8374 17.1222 68.7342 16.7947 68.5082 16.5123C68.3051 16.2584 68.0443 16.0934 67.8126 15.9776C67.3663 15.7544 66.7252 15.571 65.945 15.3682L65.4417 17.3038C66.2615 17.517 66.6925 17.6536 66.9182 17.7664C67.0224 17.8186 66.9977 17.8256 66.9465 17.7617C66.8726 17.6693 66.8374 17.5498 66.8374 17.456H68.8374ZM65.9493 15.3693L63.7733 14.7933L63.2615 16.7267L65.4375 17.3027L65.9493 15.3693ZM63.7756 14.7939C62.1952 14.3714 61.1218 13.9061 60.4471 13.3233C59.8321 12.792 59.4934 12.1168 59.4934 11.056H57.4934C57.4934 12.6512 58.0507 13.896 59.1397 14.8367C60.1689 15.7259 61.6075 16.2846 63.2591 16.7261L63.7756 14.7939ZM59.4934 11.056C59.4934 9.73856 60.0247 8.75238 60.9675 8.06334C61.9461 7.34804 63.443 6.904 65.4054 6.904V4.904C63.1757 4.904 61.2166 5.40396 59.7873 6.44866C58.322 7.51962 57.4934 9.10944 57.4934 11.056H59.4934ZM65.4054 6.904C68.6404 6.904 70.9639 8.12201 72.0727 8.94646L73.2661 7.34154C71.8788 6.30999 69.1464 4.904 65.4054 4.904V6.904ZM71.7666 7.71379L69.8146 11.8098L71.6201 12.6702L73.5721 8.57421L71.7666 7.71379ZM71.3093 11.434C69.1064 9.81627 66.6622 9.096 64.8614 9.096V11.096C66.1966 11.096 68.2323 11.6557 70.1255 13.046L71.3093 11.434ZM64.8614 9.096C64.3798 9.096 63.8843 9.16889 63.4732 9.40376C63.0075 9.66989 62.6774 10.1394 62.6774 10.736H64.6774C64.6774 10.8138 64.6557 10.911 64.5991 11.002C64.5451 11.0889 64.485 11.1291 64.4655 11.1402C64.4491 11.1496 64.4655 11.1366 64.5369 11.1222C64.6067 11.1081 64.7125 11.096 64.8614 11.096V9.096ZM62.6774 10.736C62.6774 11.0337 62.7542 11.3598 62.9813 11.6606C63.1833 11.9281 63.4514 12.1036 63.6948 12.2306C64.1648 12.4758 64.8883 12.7096 65.8888 13.0066L66.458 11.0894C65.4105 10.7784 64.8859 10.5962 64.6199 10.4574C64.4954 10.3924 64.5234 10.3839 64.5774 10.4554C64.6566 10.5602 64.6774 10.6783 64.6774 10.736H62.6774ZM65.8912 13.0074L67.5232 13.4874L68.0875 11.5686L66.4555 11.0886L65.8912 13.0074ZM67.5271 13.4885C69.1999 13.9731 70.3118 14.4911 71.0012 15.1036C71.6347 15.6663 71.9574 16.348 71.9574 17.36H73.9574C73.9574 15.812 73.4161 14.5736 72.3295 13.6084C71.2989 12.6929 69.8349 12.0749 68.0836 11.5675L67.5271 13.4885ZM71.9574 17.36C71.9574 18.5384 71.4769 19.4846 70.5929 20.1624C69.6834 20.8598 68.2786 21.32 66.3974 21.32V23.32C68.5801 23.32 70.4553 22.7882 71.8099 21.7496C73.1898 20.6914 73.9574 19.1576 73.9574 17.36H71.9574ZM80.1909 14.544V15.544H81.1909V14.544H80.1909ZM75.0709 14.544H74.0709V15.544H75.0709V14.544ZM73.7909 0.559999V-0.440001H72.7909V0.559999H73.7909ZM81.4709 0.559999H82.4709V-0.440001H81.4709V0.559999ZM80.5109 22V23H81.5109V22H80.5109ZM74.7509 22H73.7509V23H74.7509V22ZM74.7509 16.528V15.528H73.7509V16.528H74.7509ZM80.5109 16.528H81.5109V15.528H80.5109V16.528ZM80.1909 13.544H75.0709V15.544H80.1909V13.544ZM76.0709 14.544C76.0709 12.4763 75.738 10.1974 75.4217 7.87319C75.1016 5.52009 74.7909 3.0768 74.7909 0.559999H72.7909C72.7909 3.2272 73.1201 5.79191 73.44 8.14281C73.7638 10.5226 74.0709 12.6437 74.0709 14.544H76.0709ZM73.7909 1.56H81.4709V-0.440001H73.7909V1.56ZM80.4709 0.559999C80.4709 3.06071 80.1602 5.5038 79.84 7.86141C79.5237 10.1898 79.1909 12.4765 79.1909 14.544H81.1909C81.1909 12.6435 81.498 10.5142 81.8218 8.13059C82.1416 5.7762 82.4709 3.21129 82.4709 0.559999H80.4709ZM80.5109 21H74.7509V23H80.5109V21ZM75.7509 22V16.528H73.7509V22H75.7509ZM74.7509 17.528H80.5109V15.528H74.7509V17.528ZM79.5109 16.528V22H81.5109V16.528H79.5109Z" fill="black" mask="url(#path-1-outside-1_277_734)"/>
</svg>
