<svg width="126" height="28" viewBox="0 0 126 28" fill="none" xmlns="http://www.w3.org/2000/svg">
<mask id="path-1-outside-1_272_720" maskUnits="userSpaceOnUse" x="-1.5" y="-1" width="128" height="30" fill="black">
<rect fill="white" x="-1.5" y="-1" width="128" height="30"/>
<path d="M9.5435 22.32C5.1915 22.32 1.9275 20.432 0.135498 16.08L4.9355 11.952C5.5435 14.608 6.8875 16.752 9.3835 16.752C10.8875 16.752 12.0715 16.08 12.0715 13.648V0.559999H17.8315V14.288C17.8315 20.08 14.3755 22.32 9.5435 22.32ZM23.288 22.352C20.984 22.352 19.16 21.2 19.16 18.352C19.16 15.792 20.6 14.384 24.12 13.296L28.376 11.984C28.216 11.088 27.736 10.704 26.456 10.704C24.632 10.704 22.584 11.696 21.272 13.168L18.712 8.944C20.696 7.152 23.48 5.872 26.776 5.872C30.84 5.872 33.336 7.856 33.336 11.92V16.688C33.336 17.392 33.528 17.616 34.104 17.616H35.032V22H31.768C29.976 22 28.216 21.232 28.216 18.992V17.776C27.736 19.824 26.52 22.352 23.288 22.352ZM24.28 17.552C24.28 18.064 24.664 18.352 25.496 18.352C27.384 18.352 28.216 17.616 28.216 15.984V15.504L25.624 16.432C24.536 16.816 24.28 17.136 24.28 17.552ZM43.401 22.32C38.345 22.32 35.177 18.8 35.177 14.096C35.177 9.392 38.345 5.872 43.401 5.872C46.921 5.872 49.673 7.696 50.793 10.128L46.313 13.072C45.865 11.44 45.001 10.64 43.657 10.64C42.153 10.64 41.033 11.696 41.033 14.096C41.033 16.496 42.153 17.552 43.657 17.552C45.033 17.552 45.865 16.752 46.313 15.12L50.793 18.064C49.673 20.496 46.921 22.32 43.401 22.32ZM57.3752 22H51.6152V0.559999H57.3752V7.504L57.0552 12.912L60.3192 8.624L62.4632 6.192H69.1192L63.1032 12.592L68.9912 22H62.5592L59.3272 16.048L57.3752 18.224V22ZM75.7985 27.952H70.0385V6.192H75.7985V10.864C76.2145 8.24 77.3985 5.872 80.7905 5.872C84.2465 5.872 86.5825 8.688 86.5825 14.096C86.5825 19.504 84.2465 22.32 80.4705 22.32C77.0785 22.32 76.1825 19.984 75.7985 17.392V27.952ZM75.7985 14.8C75.7985 17.36 76.8225 17.968 78.0385 17.968C79.8945 17.968 80.7265 16.432 80.7265 14.096C80.7265 11.76 79.8945 10.224 78.0385 10.224C76.8225 10.224 75.7985 10.832 75.7985 13.392V14.8ZM95.7332 22.32C90.6772 22.32 87.5092 18.8 87.5092 14.096C87.5092 9.392 90.6772 5.872 95.7332 5.872C101.045 5.872 104.213 9.392 104.213 14.096C104.213 18.8 101.045 22.32 95.7332 22.32ZM95.8612 17.712C97.3332 17.712 98.3572 16.848 98.3572 14.096C98.3572 11.344 97.3332 10.48 95.8612 10.48C94.3892 10.48 93.3652 11.344 93.3652 14.096C93.3652 16.848 94.3892 17.712 95.8612 17.712ZM111.952 22.32C107.856 22.32 106.352 19.984 106.352 16.912V10.544H104.112V6.192H106.352V4.4L112.112 1.84V6.192H115.952V10.544H112.112V16.08C112.112 16.912 112.528 17.328 113.264 17.328C113.968 17.328 114.8 16.816 115.312 16.016L116.88 20.336C116.208 21.104 114.512 22.32 111.952 22.32ZM123.951 14.544H118.831C118.831 10.576 117.551 5.744 117.551 0.559999H125.231C125.231 5.712 123.951 10.576 123.951 14.544ZM124.271 22H118.511V16.528H124.271V22Z"/>
</mask>
<path d="M9.5435 22.32C5.1915 22.32 1.9275 20.432 0.135498 16.08L4.9355 11.952C5.5435 14.608 6.8875 16.752 9.3835 16.752C10.8875 16.752 12.0715 16.08 12.0715 13.648V0.559999H17.8315V14.288C17.8315 20.08 14.3755 22.32 9.5435 22.32ZM23.288 22.352C20.984 22.352 19.16 21.2 19.16 18.352C19.16 15.792 20.6 14.384 24.12 13.296L28.376 11.984C28.216 11.088 27.736 10.704 26.456 10.704C24.632 10.704 22.584 11.696 21.272 13.168L18.712 8.944C20.696 7.152 23.48 5.872 26.776 5.872C30.84 5.872 33.336 7.856 33.336 11.92V16.688C33.336 17.392 33.528 17.616 34.104 17.616H35.032V22H31.768C29.976 22 28.216 21.232 28.216 18.992V17.776C27.736 19.824 26.52 22.352 23.288 22.352ZM24.28 17.552C24.28 18.064 24.664 18.352 25.496 18.352C27.384 18.352 28.216 17.616 28.216 15.984V15.504L25.624 16.432C24.536 16.816 24.28 17.136 24.28 17.552ZM43.401 22.32C38.345 22.32 35.177 18.8 35.177 14.096C35.177 9.392 38.345 5.872 43.401 5.872C46.921 5.872 49.673 7.696 50.793 10.128L46.313 13.072C45.865 11.44 45.001 10.64 43.657 10.64C42.153 10.64 41.033 11.696 41.033 14.096C41.033 16.496 42.153 17.552 43.657 17.552C45.033 17.552 45.865 16.752 46.313 15.12L50.793 18.064C49.673 20.496 46.921 22.32 43.401 22.32ZM57.3752 22H51.6152V0.559999H57.3752V7.504L57.0552 12.912L60.3192 8.624L62.4632 6.192H69.1192L63.1032 12.592L68.9912 22H62.5592L59.3272 16.048L57.3752 18.224V22ZM75.7985 27.952H70.0385V6.192H75.7985V10.864C76.2145 8.24 77.3985 5.872 80.7905 5.872C84.2465 5.872 86.5825 8.688 86.5825 14.096C86.5825 19.504 84.2465 22.32 80.4705 22.32C77.0785 22.32 76.1825 19.984 75.7985 17.392V27.952ZM75.7985 14.8C75.7985 17.36 76.8225 17.968 78.0385 17.968C79.8945 17.968 80.7265 16.432 80.7265 14.096C80.7265 11.76 79.8945 10.224 78.0385 10.224C76.8225 10.224 75.7985 10.832 75.7985 13.392V14.8ZM95.7332 22.32C90.6772 22.32 87.5092 18.8 87.5092 14.096C87.5092 9.392 90.6772 5.872 95.7332 5.872C101.045 5.872 104.213 9.392 104.213 14.096C104.213 18.8 101.045 22.32 95.7332 22.32ZM95.8612 17.712C97.3332 17.712 98.3572 16.848 98.3572 14.096C98.3572 11.344 97.3332 10.48 95.8612 10.48C94.3892 10.48 93.3652 11.344 93.3652 14.096C93.3652 16.848 94.3892 17.712 95.8612 17.712ZM111.952 22.32C107.856 22.32 106.352 19.984 106.352 16.912V10.544H104.112V6.192H106.352V4.4L112.112 1.84V6.192H115.952V10.544H112.112V16.08C112.112 16.912 112.528 17.328 113.264 17.328C113.968 17.328 114.8 16.816 115.312 16.016L116.88 20.336C116.208 21.104 114.512 22.32 111.952 22.32ZM123.951 14.544H118.831C118.831 10.576 117.551 5.744 117.551 0.559999H125.231C125.231 5.712 123.951 10.576 123.951 14.544ZM124.271 22H118.511V16.528H124.271V22Z" fill="url(#paint0_linear_272_720)"/>
<path d="M0.135498 16.08L-0.516541 15.3218L-1.06421 15.7928L-0.78918 16.4608L0.135498 16.08ZM4.9355 11.952L5.91028 11.7289L5.54036 10.1129L4.28346 11.1938L4.9355 11.952ZM12.0715 0.559999V-0.440001H11.0715V0.559999H12.0715ZM17.8315 0.559999H18.8315V-0.440001H17.8315V0.559999ZM9.5435 21.32C7.51242 21.32 5.80718 20.8804 4.4194 19.9903C3.03592 19.1029 1.89191 17.7192 1.06018 15.6992L-0.78918 16.4608C0.171091 18.7928 1.55508 20.5291 3.3396 21.6737C5.11982 22.8156 7.22258 23.32 9.5435 23.32V21.32ZM0.787538 16.8382L5.58754 12.7102L4.28346 11.1938L-0.516541 15.3218L0.787538 16.8382ZM3.96071 12.1751C4.28335 13.5846 4.82015 14.9534 5.68357 15.9885C6.57375 17.0558 7.8036 17.752 9.3835 17.752V15.752C8.4674 15.752 7.77725 15.3762 7.21943 14.7075C6.63485 14.0066 6.19565 12.9754 5.91028 11.7289L3.96071 12.1751ZM9.3835 17.752C10.265 17.752 11.2423 17.5568 11.9897 16.8279C12.7402 16.096 13.0715 15.0098 13.0715 13.648H11.0715C11.0715 14.7182 10.8108 15.184 10.5933 15.3961C10.3727 15.6112 10.006 15.752 9.3835 15.752V17.752ZM13.0715 13.648V0.559999H11.0715V13.648H13.0715ZM12.0715 1.56H17.8315V-0.440001H12.0715V1.56ZM16.8315 0.559999V14.288H18.8315V0.559999H16.8315ZM16.8315 14.288C16.8315 16.9797 16.0358 18.6784 14.8411 19.7233C13.622 20.7896 11.8235 21.32 9.5435 21.32V23.32C12.0955 23.32 14.441 22.7304 16.1579 21.2287C17.8992 19.7056 18.8315 17.3883 18.8315 14.288H16.8315ZM24.12 13.296L23.8254 12.3404L23.8247 12.3406L24.12 13.296ZM28.376 11.984L28.6706 12.9396L29.5159 12.679L29.3604 11.8082L28.376 11.984ZM21.272 13.168L20.4168 13.6863L21.1182 14.8435L22.0185 13.8334L21.272 13.168ZM18.712 8.944L18.0417 8.2019L17.4286 8.75571L17.8568 9.4623L18.712 8.944ZM35.032 17.616H36.032V16.616H35.032V17.616ZM35.032 22V23H36.032V22H35.032ZM28.216 17.776H29.216L27.2424 17.5478L28.216 17.776ZM28.216 15.504H29.216V14.0838L27.8789 14.5625L28.216 15.504ZM25.624 16.432L25.9568 17.375L25.9611 17.3735L25.624 16.432ZM23.288 21.352C22.2877 21.352 21.5193 21.1009 21.0145 20.6639C20.5344 20.2483 20.16 19.5503 20.16 18.352H18.16C18.16 20.0017 18.6976 21.3037 19.7055 22.1761C20.6887 23.0271 21.9843 23.352 23.288 23.352V21.352ZM20.16 18.352C20.16 17.2861 20.4481 16.5639 21.0306 15.9756C21.6576 15.3423 22.7096 14.7786 24.4153 14.2514L23.8247 12.3406C22.0104 12.9014 20.5824 13.5857 19.6094 14.5684C18.5919 15.5961 18.16 16.8579 18.16 18.352H20.16ZM24.4146 14.2516L28.6706 12.9396L28.0814 11.0284L23.8254 12.3404L24.4146 14.2516ZM29.3604 11.8082C29.2545 11.2151 29.0057 10.6022 28.4058 10.1862C27.8527 9.80276 27.1618 9.704 26.456 9.704V11.704C27.0302 11.704 27.2193 11.7972 27.2662 11.8298C27.2663 11.8298 27.3375 11.8569 27.3916 12.1598L29.3604 11.8082ZM26.456 9.704C24.3122 9.704 22.0029 10.8451 20.5255 12.5026L22.0185 13.8334C23.1651 12.5469 24.9518 11.704 26.456 11.704V9.704ZM22.1272 12.6497L19.5672 8.4257L17.8568 9.4623L20.4168 13.6863L22.1272 12.6497ZM19.3823 9.6861C21.1979 8.04623 23.7476 6.872 26.776 6.872V4.872C23.2124 4.872 20.1941 6.25777 18.0417 8.2019L19.3823 9.6861ZM26.776 6.872C28.6597 6.872 30.0285 7.33256 30.9165 8.12014C31.7844 8.88995 32.336 10.0995 32.336 11.92H34.336C34.336 9.67651 33.6396 7.86205 32.2435 6.62386C30.8675 5.40344 28.9563 4.872 26.776 4.872V6.872ZM32.336 11.92V16.688H34.336V11.92H32.336ZM32.336 16.688C32.336 17.0646 32.3718 17.6194 32.7358 18.0562C33.1479 18.5507 33.728 18.616 34.104 18.616V16.616C34.0157 16.616 34.0105 16.6062 34.0486 16.6185C34.0713 16.6258 34.1083 16.6407 34.1515 16.6686C34.1957 16.6973 34.2371 16.7337 34.2722 16.7758C34.3423 16.86 34.3542 16.9263 34.3506 16.9105C34.3462 16.8907 34.336 16.8261 34.336 16.688H32.336ZM34.104 18.616H35.032V16.616H34.104V18.616ZM34.032 17.616V22H36.032V17.616H34.032ZM35.032 21H31.768V23H35.032V21ZM31.768 21C30.9915 21 30.3342 20.83 29.8994 20.5209C29.5159 20.2484 29.216 19.8092 29.216 18.992H27.216C27.216 20.4148 27.7961 21.4796 28.7406 22.1511C29.6338 22.786 30.7525 23 31.768 23V21ZM29.216 18.992V17.776H27.216V18.992H29.216ZM27.2424 17.5478C27.0199 18.4969 26.6456 19.4633 26.0276 20.1778C25.4418 20.8552 24.6019 21.352 23.288 21.352V23.352C25.2061 23.352 26.5902 22.5848 27.5404 21.4862C28.4584 20.4247 28.9321 19.1031 29.1896 18.0042L27.2424 17.5478ZM23.28 17.552C23.28 18.097 23.5068 18.6263 24.0137 18.9709C24.4543 19.2705 24.9945 19.352 25.496 19.352V17.352C25.3427 17.352 25.2403 17.3384 25.178 17.3242C25.1155 17.3099 25.1121 17.2993 25.1383 17.3171C25.1707 17.3391 25.2166 17.3834 25.2492 17.4494C25.28 17.5115 25.28 17.5543 25.28 17.552H23.28ZM25.496 19.352C26.5375 19.352 27.5105 19.1548 28.222 18.533C28.9643 17.8844 29.216 16.9602 29.216 15.984H27.216C27.216 16.6398 27.0517 16.8996 26.906 17.027C26.7295 17.1812 26.3425 17.352 25.496 17.352V19.352ZM29.216 15.984V15.504H27.216V15.984H29.216ZM27.8789 14.5625L25.2869 15.4905L25.9611 17.3735L28.5531 16.4455L27.8789 14.5625ZM25.2912 15.489C24.7172 15.6916 24.2267 15.9202 23.875 16.2367C23.454 16.6157 23.28 17.0747 23.28 17.552H25.28C25.28 17.5512 25.2801 17.5625 25.2764 17.5821C25.2726 17.6026 25.2657 17.6274 25.2544 17.6535C25.2296 17.7105 25.2021 17.733 25.213 17.7233C25.2292 17.7087 25.2836 17.6656 25.4102 17.6009C25.5355 17.5368 25.7116 17.4615 25.9568 17.375L25.2912 15.489ZM50.793 10.128L51.3422 10.9637L52.0612 10.4912L51.7013 9.7097L50.793 10.128ZM46.313 13.072L45.3487 13.3367L45.7128 14.663L46.8622 13.9077L46.313 13.072ZM46.313 15.12L46.8622 14.2843L45.7128 13.529L45.3487 14.8553L46.313 15.12ZM50.793 18.064L51.7013 18.4823L52.0612 17.7008L51.3422 17.2283L50.793 18.064ZM43.401 21.32C41.1145 21.32 39.3272 20.5297 38.1108 19.2757C36.8898 18.017 36.177 16.2215 36.177 14.096H34.177C34.177 16.6745 35.0482 18.991 36.6752 20.6683C38.3068 22.3503 40.6315 23.32 43.401 23.32V21.32ZM36.177 14.096C36.177 11.9705 36.8898 10.175 38.1108 8.91627C39.3272 7.66226 41.1145 6.872 43.401 6.872V4.872C40.6315 4.872 38.3068 5.84174 36.6752 7.52373C35.0482 9.20103 34.177 11.5175 34.177 14.096H36.177ZM43.401 6.872C46.5787 6.872 48.9472 8.51052 49.8847 10.5463L51.7013 9.7097C50.3988 6.88148 47.2633 4.872 43.401 4.872V6.872ZM50.2438 9.29229L45.7638 12.2363L46.8622 13.9077L51.3422 10.9637L50.2438 9.29229ZM47.2773 12.8073C47.0241 11.8849 46.6236 11.0824 45.9973 10.5074C45.349 9.91209 44.5451 9.64 43.657 9.64V11.64C44.1129 11.64 44.413 11.7679 44.6447 11.9806C44.8984 12.2136 45.1539 12.6271 45.3487 13.3367L47.2773 12.8073ZM43.657 9.64C42.6561 9.64 41.6984 10.0015 41.0114 10.8294C40.3447 11.6329 40.033 12.7549 40.033 14.096H42.033C42.033 13.0371 42.2813 12.4311 42.5506 12.1066C42.7996 11.8065 43.1539 11.64 43.657 11.64V9.64ZM40.033 14.096C40.033 15.4371 40.3447 16.5591 41.0114 17.3626C41.6984 18.1905 42.6561 18.552 43.657 18.552V16.552C43.1539 16.552 42.7996 16.3855 42.5506 16.0854C42.2813 15.7609 42.033 15.1549 42.033 14.096H40.033ZM43.657 18.552C44.5565 18.552 45.3641 18.2825 46.0127 17.6815C46.6363 17.1037 47.0263 16.2991 47.2773 15.3847L45.3487 14.8553C45.1517 15.5729 44.9017 15.9843 44.6533 16.2145C44.4299 16.4215 44.1335 16.552 43.657 16.552V18.552ZM45.7638 15.9557L50.2438 18.8997L51.3422 17.2283L46.8622 14.2843L45.7638 15.9557ZM49.8847 17.6457C48.9472 19.6815 46.5787 21.32 43.401 21.32V23.32C47.2633 23.32 50.3988 21.3105 51.7013 18.4823L49.8847 17.6457ZM57.3752 22V23H58.3752V22H57.3752ZM51.6152 22H50.6152V23H51.6152V22ZM51.6152 0.559999V-0.440001H50.6152V0.559999H51.6152ZM57.3752 0.559999H58.3752V-0.440001H57.3752V0.559999ZM57.3752 7.504L58.3735 7.56307L58.3752 7.53356V7.504H57.3752ZM57.0552 12.912L56.057 12.8529L55.8631 16.1291L57.851 13.5177L57.0552 12.912ZM60.3192 8.624L59.5691 7.9627L59.5453 7.98969L59.5235 8.01831L60.3192 8.624ZM62.4632 6.192V5.192H62.0117L61.7131 5.5307L62.4632 6.192ZM69.1192 6.192L69.8479 6.87691L71.4317 5.192H69.1192V6.192ZM63.1032 12.592L62.3746 11.9071L61.8465 12.4689L62.2556 13.1225L63.1032 12.592ZM68.9912 22V23H70.7968L69.8389 21.4695L68.9912 22ZM62.5592 22L61.6805 22.4772L61.9643 23H62.5592V22ZM59.3272 16.048L60.206 15.5708L59.5295 14.3249L58.5829 15.3802L59.3272 16.048ZM57.3752 18.224L56.6309 17.5562L56.3752 17.8412V18.224H57.3752ZM57.3752 21H51.6152V23H57.3752V21ZM52.6152 22V0.559999H50.6152V22H52.6152ZM51.6152 1.56H57.3752V-0.440001H51.6152V1.56ZM56.3752 0.559999V7.504H58.3752V0.559999H56.3752ZM56.377 7.44493L56.057 12.8529L58.0535 12.9711L58.3735 7.56307L56.377 7.44493ZM57.851 13.5177L61.115 9.22968L59.5235 8.01831L56.2595 12.3063L57.851 13.5177ZM61.0694 9.2853L63.2134 6.85329L61.7131 5.5307L59.5691 7.9627L61.0694 9.2853ZM62.4632 7.192H69.1192V5.192H62.4632V7.192ZM68.3906 5.50709L62.3746 11.9071L63.8319 13.2769L69.8479 6.87691L68.3906 5.50709ZM62.2556 13.1225L68.1436 22.5305L69.8389 21.4695L63.9509 12.0615L62.2556 13.1225ZM68.9912 21H62.5592V23H68.9912V21ZM63.438 21.5228L60.206 15.5708L58.4485 16.5252L61.6805 22.4772L63.438 21.5228ZM58.5829 15.3802L56.6309 17.5562L58.1196 18.8918L60.0716 16.7158L58.5829 15.3802ZM56.3752 18.224V22H58.3752V18.224H56.3752ZM75.7985 27.952V28.952H76.7985V27.952H75.7985ZM70.0385 27.952H69.0385V28.952H70.0385V27.952ZM70.0385 6.192V5.192H69.0385V6.192H70.0385ZM75.7985 6.192H76.7985V5.192H75.7985V6.192ZM75.7985 10.864H74.7985L76.7862 11.0206L75.7985 10.864ZM75.7985 17.392L76.7877 17.2455L74.7985 17.392H75.7985ZM75.7985 26.952H70.0385V28.952H75.7985V26.952ZM71.0385 27.952V6.192H69.0385V27.952H71.0385ZM70.0385 7.192H75.7985V5.192H70.0385V7.192ZM74.7985 6.192V10.864H76.7985V6.192H74.7985ZM76.7862 11.0206C76.9822 9.78415 77.3419 8.74495 77.9445 8.0268C78.5082 7.35509 79.3603 6.872 80.7905 6.872V4.872C78.8287 4.872 77.3928 5.57291 76.4125 6.7412C75.4711 7.86305 75.0308 9.31985 74.8108 10.7074L76.7862 11.0206ZM80.7905 6.872C82.2142 6.872 83.3576 7.43558 84.1772 8.54888C85.0235 9.69839 85.5825 11.5186 85.5825 14.096H87.5825C87.5825 11.2654 86.9735 8.97361 85.7878 7.36312C84.5754 5.71642 82.8228 4.872 80.7905 4.872V6.872ZM85.5825 14.096C85.5825 16.6749 85.023 18.4853 84.1483 19.6283C83.3026 20.7336 82.0834 21.32 80.4705 21.32V23.32C82.6336 23.32 84.4704 22.4984 85.7367 20.8437C86.974 19.2267 87.5825 16.9251 87.5825 14.096H85.5825ZM80.4705 21.32C79.0409 21.32 78.2813 20.8473 77.8002 20.2196C77.2665 19.5234 76.9745 18.5066 76.7877 17.2455L74.8093 17.5385C75.0065 18.8694 75.3545 20.3166 76.2128 21.4364C77.1237 22.6247 78.5081 23.32 80.4705 23.32V21.32ZM74.7985 17.392V27.952H76.7985V17.392H74.7985ZM74.7985 14.8C74.7985 16.1815 75.0693 17.2614 75.706 17.998C76.3743 18.7711 77.2684 18.968 78.0385 18.968V16.968C77.5926 16.968 77.3667 16.8609 77.219 16.69C77.0397 16.4826 76.7985 15.9785 76.7985 14.8H74.7985ZM78.0385 18.968C79.2931 18.968 80.2858 18.4226 80.9166 17.4535C81.5066 16.547 81.7265 15.3561 81.7265 14.096H79.7265C79.7265 15.1719 79.5304 15.917 79.2404 16.3625C78.9912 16.7454 78.6399 16.968 78.0385 16.968V18.968ZM81.7265 14.096C81.7265 12.8359 81.5066 11.645 80.9166 10.7385C80.2858 9.76936 79.2931 9.224 78.0385 9.224V11.224C78.6399 11.224 78.9912 11.4466 79.2404 11.8295C79.5304 12.275 79.7265 13.0201 79.7265 14.096H81.7265ZM78.0385 9.224C77.2684 9.224 76.3743 9.42093 75.706 10.194C75.0693 10.9306 74.7985 12.0105 74.7985 13.392H76.7985C76.7985 12.2135 77.0397 11.7094 77.219 11.502C77.3667 11.3311 77.5926 11.224 78.0385 11.224V9.224ZM74.7985 13.392V14.8H76.7985V13.392H74.7985ZM95.7332 21.32C93.4468 21.32 91.6594 20.5297 90.443 19.2757C89.2221 18.017 88.5092 16.2215 88.5092 14.096H86.5092C86.5092 16.6745 87.3804 18.991 89.0075 20.6683C90.639 22.3503 92.9637 23.32 95.7332 23.32V21.32ZM88.5092 14.096C88.5092 11.9705 89.2221 10.175 90.443 8.91627C91.6594 7.66226 93.4468 6.872 95.7332 6.872V4.872C92.9637 4.872 90.639 5.84174 89.0075 7.52373C87.3804 9.20103 86.5092 11.5175 86.5092 14.096H88.5092ZM95.7332 6.872C98.1612 6.872 100.013 7.67129 101.255 8.9242C102.501 10.1804 103.213 11.9712 103.213 14.096H105.213C105.213 11.5168 104.341 9.19558 102.675 7.5158C101.006 5.83271 98.6173 4.872 95.7332 4.872V6.872ZM103.213 14.096C103.213 16.2208 102.501 18.0116 101.255 19.2678C100.013 20.5207 98.1612 21.32 95.7332 21.32V23.32C98.6173 23.32 101.006 22.3593 102.675 20.6762C104.341 18.9964 105.213 16.6752 105.213 14.096H103.213ZM95.8613 18.712C96.8031 18.712 97.7633 18.4247 98.4476 17.5538C99.0902 16.7359 99.3572 15.5633 99.3572 14.096H97.3572C97.3572 15.3807 97.1123 16.0161 96.8749 16.3182C96.6792 16.5673 96.3914 16.712 95.8613 16.712V18.712ZM99.3572 14.096C99.3572 12.6287 99.0902 11.4561 98.4476 10.6382C97.7633 9.76728 96.8031 9.48 95.8613 9.48V11.48C96.3914 11.48 96.6792 11.6247 96.8749 11.8738C97.1123 12.1759 97.3572 12.8113 97.3572 14.096H99.3572ZM95.8613 9.48C94.9194 9.48 93.9592 9.76728 93.2749 10.6382C92.6323 11.4561 92.3652 12.6287 92.3652 14.096H94.3652C94.3652 12.8113 94.6102 12.1759 94.8476 11.8738C95.0433 11.6247 95.3311 11.48 95.8613 11.48V9.48ZM92.3652 14.096C92.3652 15.5633 92.6323 16.7359 93.2749 17.5538C93.9592 18.4247 94.9194 18.712 95.8613 18.712V16.712C95.3311 16.712 95.0433 16.5673 94.8476 16.3182C94.6102 16.0161 94.3652 15.3807 94.3652 14.096H92.3652ZM106.352 10.544H107.352V9.544H106.352V10.544ZM104.112 10.544H103.112V11.544H104.112V10.544ZM104.112 6.192V5.192H103.112V6.192H104.112ZM106.352 6.192V7.192H107.352V6.192H106.352ZM106.352 4.4L105.946 3.48619L105.352 3.75013V4.4H106.352ZM112.112 1.84H113.112V0.301236L111.706 0.926187L112.112 1.84ZM112.112 6.192H111.112V7.192H112.112V6.192ZM115.952 6.192H116.952V5.192H115.952V6.192ZM115.952 10.544V11.544H116.952V10.544H115.952ZM112.112 10.544V9.544H111.112V10.544H112.112ZM115.312 16.016L116.252 15.6748L115.562 13.7716L114.47 15.4769L115.312 16.016ZM116.88 20.336L117.633 20.9945L118.022 20.55L117.82 19.9948L116.88 20.336ZM111.952 21.32C110.095 21.32 108.999 20.7956 108.353 20.092C107.693 19.3722 107.352 18.3002 107.352 16.912H105.352C105.352 18.5958 105.764 20.2278 106.88 21.444C108.01 22.6764 109.714 23.32 111.952 23.32V21.32ZM107.352 16.912V10.544H105.352V16.912H107.352ZM106.352 9.544H104.112V11.544H106.352V9.544ZM105.112 10.544V6.192H103.112V10.544H105.112ZM104.112 7.192H106.352V5.192H104.112V7.192ZM107.352 6.192V4.4H105.352V6.192H107.352ZM106.759 5.31381L112.519 2.75381L111.706 0.926187L105.946 3.48619L106.759 5.31381ZM111.112 1.84V6.192H113.112V1.84H111.112ZM112.112 7.192H115.952V5.192H112.112V7.192ZM114.952 6.192V10.544H116.952V6.192H114.952ZM115.952 9.544H112.112V11.544H115.952V9.544ZM111.112 10.544V16.08H113.112V10.544H111.112ZM111.112 16.08C111.112 16.6505 111.255 17.2462 111.685 17.7018C112.123 18.1672 112.71 18.328 113.264 18.328V16.328C113.173 16.328 113.128 16.3148 113.117 16.3106C113.11 16.3079 113.124 16.3125 113.14 16.3302C113.178 16.3698 113.112 16.3415 113.112 16.08H111.112ZM113.264 18.328C114.401 18.328 115.514 17.5558 116.155 16.5551L114.47 15.4769C114.087 16.0762 113.536 16.328 113.264 16.328V18.328ZM114.372 16.3572L115.94 20.6772L117.82 19.9948L116.252 15.6748L114.372 16.3572ZM116.128 19.6775C115.622 20.2557 114.19 21.32 111.952 21.32V23.32C114.835 23.32 116.795 21.9523 117.633 20.9945L116.128 19.6775ZM123.951 14.544V15.544H124.951V14.544H123.951ZM118.831 14.544H117.831V15.544H118.831V14.544ZM117.551 0.559999V-0.440001H116.551V0.559999H117.551ZM125.231 0.559999H126.231V-0.440001H125.231V0.559999ZM124.271 22V23H125.271V22H124.271ZM118.511 22H117.511V23H118.511V22ZM118.511 16.528V15.528H117.511V16.528H118.511ZM124.271 16.528H125.271V15.528H124.271V16.528ZM123.951 13.544H118.831V15.544H123.951V13.544ZM119.831 14.544C119.831 12.4763 119.498 10.1974 119.182 7.87319C118.861 5.52009 118.551 3.0768 118.551 0.559999H116.551C116.551 3.2272 116.88 5.79191 117.2 8.14281C117.524 10.5226 117.831 12.6437 117.831 14.544H119.831ZM117.551 1.56H125.231V-0.440001H117.551V1.56ZM124.231 0.559999C124.231 3.06071 123.92 5.5038 123.6 7.86141C123.284 10.1898 122.951 12.4765 122.951 14.544H124.951C124.951 12.6435 125.258 10.5142 125.582 8.13059C125.901 5.7762 126.231 3.21129 126.231 0.559999H124.231ZM124.271 21H118.511V23H124.271V21ZM119.511 22V16.528H117.511V22H119.511ZM118.511 17.528H124.271V15.528H118.511V17.528ZM123.271 16.528V22H125.271V16.528H123.271Z" fill="black" mask="url(#path-1-outside-1_272_720)"/>
<defs>
<linearGradient id="paint0_linear_272_720" x1="-10.5" y1="13" x2="229.5" y2="22" gradientUnits="userSpaceOnUse">
<stop stop-color="#FFFE89"/>
<stop offset="1" stop-color="#C65E34"/>
</linearGradient>
</defs>
</svg>
