<svg width="112" height="97" viewBox="0 0 112 97" fill="none" xmlns="http://www.w3.org/2000/svg">
<g clip-path="url(#clip0_356_1358)">
<g clip-path="url(#clip1_356_1358)">
<path d="M93.9087 23.5455C91.1702 22.7828 89.0038 21.2737 87.3005 19.1581C87.206 18.9584 87.1116 18.7568 87.0172 18.5571C86.4052 17.5964 86.0856 16.5123 85.5299 15.5281L85.5335 15.5426C85.3756 14.2805 85.0378 13.0003 85.174 11.7509C85.539 8.39505 87.0226 5.53676 89.85 3.30316C91.2265 2.21541 92.8082 1.54532 94.4081 0.867979C96.5109 0.116179 98.6465 0.257823 100.791 0.664594C102.157 1.07681 103.466 1.60707 104.71 2.27533C105.551 2.94178 106.49 3.50291 107.207 4.30011C108.236 5.30977 108.823 6.59001 109.617 7.74313C109.591 8.67471 110.118 9.48825 110.268 10.3871C111.258 16.3398 107.154 22.1599 100.884 23.6707C100.45 23.7743 100.023 23.8959 99.5926 24.0103C97.6731 24.1138 95.7755 23.9867 93.9087 23.5455Z" fill="url(#paint0_linear_356_1358)"/>
<path d="M108.75 12.2285C108.647 17.4021 104.695 21.5025 99.4837 21.4971C93.8525 21.4916 90.2805 17.157 90.1915 12.2812C90.0953 7.02768 94.4045 2.86191 99.6798 2.87825C104.507 2.89278 108.874 6.92235 108.75 12.2285Z" fill="url(#paint1_linear_356_1358)" stroke="#BC741D" stroke-width="0.544782" stroke-miterlimit="10"/>
<path d="M110.804 12.2395C110.679 18.5571 105.85 23.5655 99.4853 23.56C92.6083 23.5528 88.2446 18.2593 88.1357 12.303C88.0195 5.88549 93.2839 0.797222 99.725 0.817197C105.621 0.835357 110.955 5.75656 110.804 12.2395Z" stroke="#BC741D" stroke-width="1.63435" stroke-miterlimit="10"/>
<path d="M107.357 12.9423C107.339 17.1879 103.893 20.5892 99.6779 20.5856C95.4376 20.5819 92.0055 17.1462 92.0073 12.9096C92.0055 8.69477 95.4158 5.23177 99.6869 5.23358C103.942 5.2354 107.376 8.68387 107.357 12.9423Z" fill="black"/>
<path d="M99.6798 9.7317C100.604 9.7317 101.53 9.71717 102.455 9.73533C103.577 9.75712 104.57 10.5598 104.799 11.6965C105.019 12.797 104.527 13.8702 103.55 14.3914C102.671 14.8599 101.634 14.8145 100.8 14.139C100.588 13.9665 100.361 13.8248 100.096 13.7504C99.6471 13.6233 99.2294 13.6995 98.8372 13.9429C98.741 14.0028 98.6502 14.0718 98.5594 14.1426C98.198 14.4277 97.7912 14.6129 97.3372 14.6692C96.4238 14.7836 95.6666 14.4786 95.0746 13.7758C94.7314 13.3672 94.5534 12.8878 94.5225 12.3539C94.4517 11.1191 95.2798 10.0368 96.4965 9.77891C96.6762 9.74078 96.8578 9.72807 97.0412 9.72807C97.4825 9.72807 97.9238 9.72625 98.3669 9.72625C98.8045 9.72625 99.2422 9.72625 99.6798 9.72625C99.6798 9.72807 99.6798 9.72988 99.6798 9.7317Z" fill="url(#paint2_linear_356_1358)"/>
<path d="M104.049 14.8217C104.032 14.8508 104.023 14.8708 104.011 14.8889C103.546 15.5663 102.985 16.1437 102.273 16.565C101.746 16.8774 101.179 17.0735 100.575 17.1716C100.166 17.2369 99.7558 17.2551 99.3454 17.2315C97.9689 17.1498 96.8121 16.5995 95.8878 15.5772C95.7044 15.3738 95.5428 15.1504 95.3739 14.9361C95.3539 14.9107 95.3394 14.878 95.3176 14.8453C95.3685 14.8217 95.4048 14.849 95.4393 14.8617C95.6518 14.9361 95.8606 15.0124 96.0731 15.085C96.4907 15.2285 96.9211 15.2721 97.3569 15.2303C97.8781 15.1813 98.3521 14.9888 98.7824 14.691C98.8642 14.6347 98.9386 14.5693 99.0221 14.5148C99.1402 14.4386 99.2582 14.3605 99.3835 14.3006C99.596 14.2007 99.8157 14.2098 100.023 14.3151C100.148 14.3786 100.266 14.4567 100.377 14.5439C100.824 14.8944 101.325 15.125 101.884 15.2085C102.598 15.3157 103.277 15.1958 103.92 14.8635C103.951 14.8472 103.981 14.8326 104.012 14.8199C104.018 14.8145 104.025 14.8181 104.049 14.8217Z" fill="url(#paint3_linear_356_1358)"/>
<path d="M1.90947 27.4352C1.7079 27.1646 1.55355 26.9576 1.3665 26.7052C1.628 26.589 1.85136 26.4873 2.12375 26.3656C1.94579 26.1205 1.78962 25.9044 1.59531 25.6393C1.87134 25.5285 2.09833 25.4359 2.38161 25.3215C2.19094 25.0691 2.02932 24.8548 1.8332 24.5933C2.10196 24.4789 2.32895 24.3808 2.61224 24.261C2.42883 24.0158 2.26903 23.8033 2.11104 23.5909C2.1746 23.3911 2.7212 23.4093 2.21818 23.0243C3.71996 22.5304 5.13458 22.0637 6.55101 21.597C8.60121 20.9196 10.6532 20.2477 12.6998 19.5486C12.9994 19.4451 13.1792 19.5286 13.3898 19.732C16.0684 22.3252 18.7106 24.9764 21.4508 27.4752C24.6142 30.3607 28.1371 32.6107 31.68 34.8134C32.0014 35.0131 32.3174 35.2256 32.6806 35.4617C32.4699 35.5888 32.2956 35.6923 32.0632 35.8321C32.2702 35.9938 32.4427 36.1299 32.6534 36.2952C32.3319 36.4732 32.0468 36.6293 31.6982 36.8218C31.9597 37.007 32.1667 37.1541 32.4445 37.3521C32.1068 37.5319 31.8271 37.6789 31.4766 37.866C31.7327 38.0639 31.9361 38.2183 32.1794 38.4071C31.8634 38.5887 31.5838 38.7485 31.2533 38.9392C31.502 39.1244 31.7 39.2697 31.9615 39.4622C31.631 39.642 31.3495 39.7927 31.0027 39.9797C31.2587 40.174 31.4694 40.3339 31.7218 40.5245C31.3876 40.7025 31.1007 40.855 30.7611 41.0366C31.0226 41.2309 31.2315 41.3871 31.4875 41.5778C31.1643 41.7557 30.8792 41.9119 30.5432 42.0953C30.7902 42.2824 30.999 42.4385 31.2569 42.6328C30.9318 42.8072 30.6449 42.9597 30.2908 43.1504C30.5505 43.3374 30.7575 43.4881 31.0263 43.6824C30.2781 44.0711 29.5753 44.4433 28.8689 44.8011C25.7056 46.4009 22.5386 47.9917 19.3788 49.6024C19.0992 49.7441 18.9067 49.7441 18.6652 49.5479C13.5097 45.3713 8.76828 40.6062 4.27382 35.4889C2.9718 34.0071 1.70427 32.4908 0.375 30.9382C0.669182 30.822 0.901623 30.7293 1.19944 30.6095C1.01421 30.3607 0.852592 30.1446 0.645575 29.8668C0.908887 29.7614 1.14496 29.667 1.43551 29.5508C1.23576 29.2875 1.07232 29.0714 0.874384 28.8081C1.14314 28.7028 1.37377 28.6101 1.68429 28.4885C1.4918 28.2397 1.32837 28.0272 1.1159 27.753C1.38285 27.6441 1.60984 27.5533 1.90947 27.4352ZM28.3205 33.9C26.5899 32.5961 24.8902 31.305 23.176 30.0411C23.0488 29.9467 22.8019 29.9848 22.6348 30.0593C20.6609 30.9364 18.6906 31.8316 16.7203 32.7232C15.6997 33.1863 14.6792 33.653 13.6532 34.1197C13.6804 34.1978 13.6858 34.2432 13.7076 34.2613C15.3057 35.6342 16.9001 37.0107 18.5108 38.3636C18.6143 38.4507 18.8431 38.4217 18.9848 38.3472C20.1651 37.7334 21.3782 37.6444 22.317 38.4689C23.1197 39.1735 23.7879 39.0445 24.5942 38.5252C24.6233 38.5052 24.6578 38.4979 24.6886 38.4834C25.6674 38.004 26.6444 37.5264 27.6123 37.0524C27.447 35.538 27.5669 35.0259 28.3205 33.9ZM18.6924 26.224C17.3468 24.9674 16.0502 23.7507 14.7427 22.5522C14.6556 22.4723 14.4703 22.5031 14.3341 22.5322C13.1265 22.7882 11.9407 22.672 11.04 21.824C10.3318 21.1575 9.70167 21.2483 8.91719 21.5879C8.14904 21.9202 7.36092 22.1635 6.57462 22.4486C6.75803 23.7779 6.42753 24.9201 5.67392 26.0224C6.87425 27.3499 8.05643 28.6428 9.22226 29.9558C9.42383 30.1827 9.6018 30.2009 9.86874 30.0829C11.494 29.3583 13.1247 28.6501 14.7518 27.9401C16.0484 27.3753 17.345 26.8124 18.6924 26.224ZM13.0775 34.6826C13.0448 34.6917 13.0103 34.7008 12.9776 34.7081C13.0575 34.8751 13.1029 35.093 13.2228 35.2002C15.6035 37.3593 17.9878 39.5094 20.3867 41.6413C20.5174 41.7575 20.7916 41.783 20.9569 41.7013C22.7801 40.7878 24.6015 39.8617 26.412 38.9011C27.3908 38.3817 28.3478 37.7879 29.3156 37.2286C29.1704 37.1905 29.0487 37.2304 28.9325 37.2867C26.4265 38.4961 23.9187 39.6983 21.4199 40.9313C20.9932 41.1419 20.679 41.151 20.314 40.8351C17.9097 38.7685 15.4909 36.731 13.0775 34.6826ZM28.9289 38.4307C28.9107 38.3672 28.8907 38.3018 28.8726 38.2383C28.7527 38.2946 28.6329 38.3472 28.5148 38.4071C26.0252 39.671 23.5337 40.9295 21.0477 42.2043C20.7553 42.355 20.5447 42.3623 20.2941 42.1389C18.6888 40.7206 17.058 39.3369 15.4546 37.9168C14.5884 37.1487 13.7549 36.3297 12.9032 35.5289C12.6889 35.9011 12.8069 36.1045 13.023 36.297C15.3983 38.4326 17.7681 40.5772 20.1488 42.7018C20.2704 42.8108 20.5192 42.8544 20.6645 42.7781C23.4229 41.3435 26.1741 39.8853 28.9289 38.4307ZM12.6925 36.6529C12.6362 36.6856 12.5818 36.7183 12.5255 36.7492C12.6235 36.958 12.678 37.2304 12.8251 37.363C15.1785 39.5076 17.5411 41.6377 19.9145 43.7515C20.0435 43.8659 20.3086 43.8876 20.472 43.8077C21.8648 43.1268 23.2595 42.444 24.6323 41.6994C25.6493 41.1492 26.639 40.5082 27.6395 39.9071C27.4234 39.8998 27.2382 39.9852 27.0548 40.0778C24.9665 41.1365 22.8818 42.2006 20.788 43.2412C20.6046 43.332 20.3195 43.3592 20.176 43.2484C19.3298 42.5911 18.4945 41.9119 17.6864 41.191C16.0121 39.6983 14.3559 38.1693 12.6925 36.6529ZM27.7739 40.8841C27.7503 40.8242 27.7267 40.7642 27.7031 40.7061C27.5941 40.7552 27.4852 40.7987 27.378 40.8532C25.1208 42.0009 22.8636 43.1431 20.6118 44.3017C20.3086 44.4579 20.0816 44.4869 19.811 44.2472C18.1295 42.7581 16.4261 41.3054 14.7427 39.8199C13.9764 39.1426 13.2428 38.4126 12.4891 37.7026C12.2204 38.1257 12.4256 38.3145 12.6326 38.5052C14.6211 40.3175 16.6495 42.0735 18.5798 43.9676C19.5023 44.8719 20.314 45.0008 21.4871 44.2908C23.5428 43.0451 25.6747 42.0082 27.7739 40.8841ZM12.2894 38.803C12.2295 38.852 12.1677 38.8993 12.1078 38.9483C12.2095 39.1535 12.2694 39.4223 12.4165 39.5566C14.7209 41.6504 17.0399 43.7242 19.3461 45.8162C19.5858 46.0341 19.7874 46.0686 20.0907 45.9088C21.2983 45.2714 22.5277 44.703 23.7298 44.0475C24.9828 43.3628 26.214 42.6056 27.4543 41.8792C27.2582 41.8629 27.0911 41.9391 26.9259 42.0227C24.7141 43.1431 22.5059 44.2726 20.2886 45.3695C20.0979 45.4639 19.7892 45.4494 19.6349 45.3204C18.3274 44.2399 17.0272 43.1431 15.7524 42.01C14.5811 40.9694 13.4425 39.8744 12.2894 38.803ZM25.8726 43.7133C25.849 43.657 25.8254 43.5989 25.8036 43.5426C25.682 43.5971 25.5585 43.6443 25.4386 43.7042C23.6644 44.6049 21.8866 45.4984 20.1179 46.4173C19.8001 46.5825 19.5749 46.5643 19.3189 46.3355C17.0544 44.3017 14.7827 42.2805 12.5109 40.2558C12.3566 40.1178 12.2022 39.9761 12.0497 39.8363C11.9934 39.8908 11.9371 39.9452 11.8808 39.9997C11.9807 40.2067 12.0388 40.4755 12.1859 40.6099C14.3178 42.5693 16.4788 44.4869 18.5943 46.4717C19.1972 47.0365 19.7257 47.0946 20.472 46.6588C22.2535 45.6237 24.0694 44.6885 25.8726 43.7133ZM25.6202 44.7357C25.6057 44.6885 25.5912 44.6394 25.5748 44.5922C25.4713 44.6376 25.366 44.6794 25.2625 44.7321C23.4393 45.6546 21.6197 46.5861 19.791 47.4887C19.6149 47.5758 19.3298 47.5577 19.1863 47.4414C18.015 46.4863 16.8492 45.5184 15.7124 44.5069C14.4013 43.341 13.1193 42.1262 11.8227 40.9313C11.6774 41.4016 11.6629 41.4252 11.9716 41.7031C14.3051 43.815 16.644 45.9197 18.992 48.0117C19.1028 48.1115 19.3352 48.146 19.4678 48.0752C21.5216 46.9747 23.57 45.8525 25.6202 44.7357ZM23.3049 46.7877C23.2958 46.7568 23.2867 46.7278 23.2776 46.6969C23.1269 46.7641 22.9762 46.8222 22.8273 46.8985C21.7523 47.4451 20.6772 47.9844 19.6076 48.551C19.328 48.6999 19.1264 48.6981 18.8921 48.4911C17.0453 46.8567 15.1858 45.2423 13.339 43.6098C12.7543 43.0923 12.1931 42.5384 11.6211 42.0009C11.5685 42.0499 11.5158 42.0989 11.4613 42.148C11.5685 42.3713 11.632 42.6601 11.7918 42.8072C13.6695 44.5487 15.5581 46.2738 17.4521 47.988C17.9406 48.4293 18.4236 49.1067 18.9775 49.1539C19.5314 49.2011 20.1706 48.5982 20.7698 48.2731C21.0785 48.1061 21.3818 47.9209 21.6869 47.7429C22.228 47.4233 22.7674 47.1055 23.3049 46.7877ZM8.77009 31.966C8.83728 31.9297 8.90266 31.8915 8.96985 31.8552C8.92445 31.6736 8.92627 31.4321 8.82639 31.3177C6.91965 29.1349 5.00383 26.9631 3.08075 24.8021C2.98269 24.6913 2.79383 24.6932 2.64856 24.6441C2.6195 24.7077 2.59045 24.7731 2.56139 24.8366C4.63157 27.2119 6.70174 29.5889 8.77009 31.966ZM8.28342 34.0561C8.35243 34.0162 8.41962 33.9744 8.48862 33.9345C8.43415 33.7547 8.42507 33.5223 8.32156 33.4042C6.42571 31.2324 4.52261 29.0732 2.61042 26.9231C2.51236 26.8124 2.33077 26.8105 2.18731 26.7561C2.15825 26.8251 2.13101 26.8941 2.10196 26.9631C4.16305 29.3274 6.22415 31.6918 8.28342 34.0561ZM2.4252 25.6719C2.39433 25.75 2.36346 25.8263 2.33258 25.9044C4.4082 28.2851 6.48564 30.6658 8.56126 33.0465C8.61756 32.9993 8.67567 32.9521 8.73196 32.9048C8.68111 32.7196 8.67567 32.4763 8.57216 32.3582C6.67995 30.1882 4.77866 28.029 2.8701 25.8808C2.76296 25.7591 2.57592 25.7391 2.4252 25.6719ZM1.49544 29.8795C1.45367 29.9521 1.41009 30.0229 1.36832 30.0956C3.44031 32.4745 5.5123 34.8552 7.58429 37.234C7.6424 37.1923 7.69869 37.1487 7.7568 37.1069C7.7114 36.9235 7.71503 36.682 7.61516 36.5676C5.73566 34.4103 3.84345 32.2638 1.94579 30.1264C1.8332 29.9975 1.64797 29.9594 1.49544 29.8795ZM7.82762 36.1826C7.88392 36.139 7.94203 36.0973 7.99832 36.0537C7.95111 35.8721 7.94929 35.6306 7.8476 35.5143C5.95539 33.3407 4.05228 31.1797 2.14191 29.0296C2.04022 28.9152 1.84773 28.9152 1.69882 28.8626C1.6734 28.9297 1.64616 28.9951 1.62074 29.0623C3.68909 31.4357 5.75745 33.8092 7.82762 36.1826ZM1.27571 30.9454C1.23576 31.0235 1.19399 31.1034 1.15404 31.1815C3.22058 33.5513 5.28712 35.9193 7.35548 38.2891C7.41903 38.2292 7.48259 38.1693 7.54615 38.1093C7.46988 37.9223 7.4263 37.6935 7.31008 37.5555C6.86154 37.0288 6.38032 36.5404 5.92633 36.0192C4.54077 34.4302 3.16429 32.8304 1.77327 31.2487C1.64253 31.1016 1.44277 31.0453 1.27571 30.9454ZM1.96395 27.7893C1.93308 27.8674 1.90039 27.9455 1.86952 28.0236C3.93606 30.3934 6.0026 32.7632 8.06914 35.133C8.12725 35.0876 8.18536 35.0404 8.24347 34.995C8.20171 34.8207 8.20715 34.5882 8.11454 34.4811C6.2078 32.2983 4.29198 30.1264 2.3689 27.9655C2.27266 27.8565 2.10014 27.8456 1.96395 27.7893ZM5.5014 26.7506C5.47416 26.7869 5.44511 26.8251 5.41787 26.8614C6.63636 28.2143 7.85486 29.5653 9.07154 30.9182C9.11694 30.8583 9.16234 30.7983 9.20774 30.7384C7.9729 29.411 6.73806 28.0817 5.5014 26.7506Z" fill="#005400"/>
<path d="M28.3203 33.9C27.5667 35.0259 27.4469 35.538 27.6139 37.0543C26.646 37.5282 25.6691 38.0076 24.6903 38.4852C24.6594 38.4998 24.6249 38.507 24.5958 38.527C23.7896 39.0464 23.1213 39.1753 22.3186 38.4707C21.3798 37.6463 20.1667 37.7334 18.9864 38.349C18.8447 38.4235 18.6159 38.4526 18.5124 38.3654C16.9035 37.0125 15.3073 35.636 13.7093 34.2632C13.6875 34.245 13.6838 34.1978 13.6548 34.1215C14.6808 33.6548 15.6995 33.1881 16.7219 32.7251C18.6922 31.8334 20.6625 30.9382 22.6364 30.0611C22.8035 29.9866 23.0505 29.9485 23.1776 30.0429C24.8918 31.305 26.5915 32.5961 28.3203 33.9ZM14.7098 34.3158C15.8503 34.9569 16.958 35.2983 18.1492 35.3037C19.6492 35.311 21.0747 34.9333 22.2623 33.5659C22.9978 32.7196 23.3537 31.69 23.4227 30.4424C20.5045 31.739 17.6571 33.0065 14.7098 34.3158Z" fill="white"/>
<path d="M18.6924 26.224C17.345 26.8106 16.0484 27.3735 14.7537 27.9401C13.1248 28.6519 11.4959 29.3583 9.87061 30.0829C9.60366 30.2009 9.4257 30.1828 9.22413 29.9558C8.0583 28.6428 6.87793 27.3499 5.67578 26.0224C6.42758 24.922 6.75808 23.7797 6.57649 22.4487C7.36279 22.1636 8.15091 21.9184 8.91905 21.5879C9.70354 21.2483 10.3355 21.1575 11.0419 21.824C11.9426 22.6738 13.1284 22.7882 14.336 22.5322C14.4722 22.5031 14.6556 22.4705 14.7446 22.5522C16.0503 23.7507 17.3468 24.9674 18.6924 26.224ZM9.31493 29.3547C12.008 28.2034 14.6974 27.0539 17.3868 25.9044C17.0218 25.6175 16.6731 25.4413 16.3063 25.3215C14.6084 24.7622 12.8996 24.6768 11.1763 25.7591C9.92327 26.5454 9.13515 28.3396 9.31493 29.3547Z" fill="white"/>
<path d="M13.0775 34.6826C15.4909 36.7292 17.9116 38.7667 20.3122 40.8351C20.6772 41.1492 20.9914 41.1419 21.4181 40.9313C23.9169 39.6983 26.4247 38.4979 28.9307 37.2867C29.0469 37.2304 29.1686 37.1905 29.3139 37.2286C28.346 37.7879 27.389 38.3817 26.4102 38.9011C24.5997 39.8617 22.7801 40.7878 20.9551 41.7013C20.7898 41.783 20.5174 41.7576 20.3849 41.6413C17.9878 39.5094 15.6017 37.3593 13.221 35.2002C13.1029 35.093 13.0557 34.8733 12.9758 34.7081C13.0103 34.7008 13.0448 34.6917 13.0775 34.6826Z" fill="white"/>
<path d="M28.9289 38.4308C26.1759 39.8854 23.423 41.3436 20.6645 42.78C20.5193 42.8562 20.2705 42.8127 20.1488 42.7037C17.7663 40.579 15.3983 38.4344 13.0231 36.2989C12.807 36.1046 12.6907 35.903 12.9032 35.5307C13.7549 36.3297 14.5884 37.1505 15.4546 37.9187C17.0599 39.3406 18.6888 40.7225 20.2941 42.1408C20.5447 42.3623 20.7553 42.355 21.0477 42.2061C23.5337 40.9313 26.0252 39.6711 28.5149 38.409C28.6329 38.3491 28.7527 38.2964 28.8726 38.2401C28.8908 38.3037 28.9089 38.3672 28.9289 38.4308Z" fill="white"/>
<path d="M12.6926 36.653C14.356 38.1693 16.0121 39.6965 17.6882 41.1946C18.4963 41.9156 19.3317 42.5965 20.1779 43.2521C20.3195 43.3629 20.6065 43.3356 20.7899 43.2448C22.8837 42.2043 24.9684 41.1383 27.0567 40.0815C27.2401 39.9888 27.4253 39.9035 27.6414 39.9108C26.6408 40.5118 25.6512 41.1529 24.6342 41.7031C23.2596 42.4458 21.8667 43.1304 20.4739 43.8114C20.3123 43.8913 20.0453 43.8695 19.9164 43.7551C17.543 41.6413 15.1804 39.5094 12.827 37.3666C12.6799 37.2322 12.6254 36.9598 12.5273 36.7528C12.58 36.7183 12.6363 36.6856 12.6926 36.653Z" fill="white"/>
<path d="M27.7741 40.8841C25.6749 42.0082 23.543 43.0451 21.4873 44.289C20.3142 44.999 19.5025 44.8701 18.58 43.9657C16.6478 42.0717 14.6213 40.3157 12.6328 38.5034C12.424 38.3145 12.2206 38.1239 12.4893 37.7007C13.243 38.4108 13.9766 39.1408 14.7429 39.8181C16.4245 41.3054 18.1297 42.7563 19.8112 44.2454C20.0818 44.4851 20.3088 44.456 20.612 44.2999C22.8656 43.1413 25.1228 41.9991 27.3782 40.8514C27.4854 40.7969 27.5962 40.7533 27.7033 40.7043C27.7269 40.7642 27.7505 40.8242 27.7741 40.8841Z" fill="white"/>
<path d="M12.2894 38.8031C13.4425 39.8745 14.5811 40.9695 15.7542 42.0118C17.029 43.145 18.3274 44.2418 19.6367 45.3223C19.7911 45.4494 20.0998 45.4658 20.2904 45.3713C22.5077 44.2727 24.7159 43.1432 26.9277 42.0246C27.093 41.941 27.26 41.8647 27.4561 41.8811C26.2159 42.6057 24.9846 43.3629 23.7316 44.0493C22.5295 44.7067 21.3001 45.2751 20.0925 45.9107C19.7892 46.0705 19.5877 46.0341 19.348 45.8181C17.0417 43.7261 14.7228 41.6541 12.4183 39.5585C12.2712 39.4241 12.2095 39.1554 12.1096 38.9502C12.1677 38.9011 12.2295 38.8521 12.2894 38.8031Z" fill="white"/>
<path d="M25.8725 43.7134C24.0693 44.6885 22.2516 45.6238 20.4701 46.6607C19.7238 47.0947 19.1953 47.0384 18.5924 46.4736C16.4769 44.4888 14.3159 42.5712 12.184 40.6118C12.0369 40.4756 11.9788 40.2068 11.8789 40.0016C11.9352 39.9471 11.9915 39.8926 12.0478 39.8382C12.2021 39.978 12.3547 40.1196 12.509 40.2576C14.779 42.2824 17.0525 44.3036 19.317 46.3374C19.573 46.568 19.7982 46.5844 20.116 46.4191C21.8847 45.5003 23.6625 44.6068 25.4367 43.7061C25.5566 43.6444 25.6801 43.5972 25.8017 43.5445C25.8272 43.599 25.8508 43.6553 25.8725 43.7134Z" fill="white"/>
<path d="M25.6201 44.7357C23.5699 45.8525 21.5215 46.973 19.4659 48.0734C19.3333 48.1442 19.1027 48.1097 18.9901 48.0099C16.6421 45.9179 14.305 43.8132 11.9697 41.7013C11.661 41.4216 11.6755 41.3998 11.8208 40.9295C13.1192 42.1262 14.3994 43.3393 15.7105 44.5051C16.8473 45.5166 18.0132 46.4827 19.1844 47.4397C19.3297 47.5577 19.613 47.574 19.7891 47.4869C21.6178 46.5862 23.4374 45.6528 25.2606 44.7303C25.3623 44.6776 25.4676 44.6377 25.5729 44.5904C25.5893 44.6413 25.6038 44.6885 25.6201 44.7357Z" fill="white"/>
<path d="M23.3049 46.7877C22.7656 47.1055 22.228 47.4251 21.6887 47.7411C21.3836 47.9208 21.0804 48.1042 20.7716 48.2713C20.1724 48.5964 19.5332 49.1993 18.9793 49.152C18.4255 49.1048 17.9406 48.4275 17.4539 47.9862C15.5581 46.272 13.6713 44.545 11.7936 42.8053C11.6356 42.6582 11.5721 42.3695 11.4631 42.1461C11.5158 42.0971 11.5685 42.0481 11.6229 41.9991C12.195 42.5366 12.7561 43.0904 13.3408 43.608C15.1894 45.2405 17.049 46.8549 18.894 48.4892C19.1282 48.6962 19.3298 48.6981 19.6094 48.5492C20.6772 47.9826 21.7541 47.4432 22.8291 46.8966C22.9762 46.8222 23.1287 46.7623 23.2795 46.6951C23.2867 46.726 23.2958 46.7568 23.3049 46.7877Z" fill="white"/>
<path d="M8.77036 31.966C6.70201 29.589 4.63183 27.2137 2.56348 24.8367C2.59253 24.7731 2.62159 24.7077 2.65064 24.6442C2.79773 24.695 2.98477 24.6914 3.08284 24.8022C5.00592 26.9631 6.92173 29.135 8.82847 31.3177C8.92835 31.4322 8.92653 31.6737 8.97193 31.8553C8.90474 31.8916 8.83755 31.9279 8.77036 31.966Z" fill="white"/>
<path d="M8.28341 34.0562C6.22413 31.6919 4.16304 29.3275 2.10376 26.9632C2.13281 26.8941 2.16005 26.8251 2.18911 26.7561C2.33257 26.8088 2.51416 26.8124 2.61222 26.9232C4.52441 29.0733 6.42752 31.2342 8.32336 33.4043C8.42687 33.5223 8.43776 33.7548 8.49042 33.9345C8.42142 33.9745 8.35241 34.0163 8.28341 34.0562Z" fill="white"/>
<path d="M2.42538 25.6719C2.5761 25.7391 2.76314 25.7609 2.87028 25.8826C4.77884 28.0308 6.68013 30.19 8.57234 32.36C8.67585 32.4799 8.68129 32.7214 8.73214 32.9066C8.67585 32.9539 8.61774 33.0011 8.56144 33.0483C6.48582 30.6676 4.40838 28.2869 2.33276 25.9062C2.36363 25.8263 2.39451 25.7482 2.42538 25.6719Z" fill="white"/>
<path d="M1.49552 29.8795C1.64806 29.9594 1.83329 29.9976 1.94588 30.1247C3.84354 32.262 5.73393 34.4085 7.61524 36.5676C7.71512 36.682 7.71149 36.9236 7.75689 37.107C7.69878 37.1487 7.64248 37.1923 7.58437 37.2341C5.51239 34.8552 3.4404 32.4745 1.36841 30.0956C1.41017 30.0248 1.45376 29.9522 1.49552 29.8795Z" fill="white"/>
<path d="M7.82784 36.1826C5.75767 33.8092 3.68931 31.4357 1.61914 29.0623C1.64456 28.9951 1.6718 28.9297 1.69723 28.8625C1.84613 28.9152 2.03862 28.9152 2.14032 29.0296C4.05069 31.1797 5.95379 33.3425 7.846 35.5143C7.94769 35.6306 7.94951 35.8703 7.99673 36.0537C7.94225 36.0954 7.88414 36.139 7.82784 36.1826Z" fill="white"/>
<path d="M1.27572 30.9455C1.44279 31.0454 1.64436 31.1017 1.77329 31.2488C3.1643 32.8323 4.54078 34.4321 5.92635 36.0192C6.38033 36.5404 6.86155 37.0289 7.31009 37.5555C7.42631 37.6935 7.4699 37.9223 7.54616 38.1094C7.48261 38.1693 7.41905 38.2292 7.35549 38.2892C5.28895 35.9194 3.22241 33.5514 1.15405 31.1816C1.194 31.1035 1.23395 31.0254 1.27572 30.9455Z" fill="white"/>
<path d="M1.96381 27.7894C2.10001 27.8457 2.27252 27.8566 2.36695 27.9637C4.29003 30.1265 6.20585 32.2965 8.11259 34.4793C8.20702 34.5864 8.20157 34.8189 8.24152 34.9932C8.18341 35.0386 8.1253 35.0858 8.06719 35.1312C6.00428 32.7632 3.93774 30.3934 1.86938 28.0236C1.90207 27.9455 1.93294 27.8675 1.96381 27.7894Z" fill="white"/>
<path d="M5.5015 26.7506C6.73634 28.0799 7.973 29.4091 9.20784 30.7384C9.16244 30.7983 9.11704 30.8583 9.07164 30.9182C7.85315 29.5653 6.63465 28.2143 5.41797 26.8614C5.44521 26.8251 5.47426 26.7887 5.5015 26.7506Z" fill="white"/>
<path d="M14.7102 34.3158C17.6575 33.0047 20.5049 31.739 23.4213 30.4424C23.3541 31.6918 22.9963 32.7196 22.2609 33.5659C21.0751 34.9333 19.6477 35.311 18.1478 35.3037C16.9583 35.2983 15.8506 34.9569 14.7102 34.3158Z" fill="#005400"/>
<path d="M9.31477 29.3547C9.13499 28.3414 9.92311 26.5454 11.1761 25.7591C12.8994 24.6786 14.6064 24.7622 16.3061 25.3215C16.673 25.4413 17.0216 25.6175 17.3866 25.9044C14.6954 27.0539 12.006 28.2034 9.31477 29.3547Z" fill="#005400"/>
<path d="M63.4826 167.306C61.4124 168.256 59.2714 168.982 56.9452 168.964C53.3914 168.937 51.5991 166.091 53.119 162.863C54.0724 160.838 55.7104 159.525 57.7152 158.69C59.8326 157.807 62.0135 157.074 64.1436 156.216C65.0643 155.846 65.9831 155.416 66.7985 154.858C68.3439 153.803 68.2222 152.485 66.5352 151.722C63.7296 150.454 60.7442 150.091 57.7533 150.596C52.5434 151.477 47.3716 152.568 42.1798 153.558C39.4432 154.079 36.7302 154.079 34.0026 153.362C29.8859 152.281 27.0766 148.569 27.7449 144.2C28.6129 138.515 30.4343 133.29 34.0498 128.798C35.3319 127.205 36.9154 125.857 38.33 124.367C38.695 123.982 38.9347 123.48 39.247 123.012C39.2707 123.037 39.4068 123.186 39.6393 123.435C39.7265 123.105 39.7936 122.85 39.8608 122.594C39.9789 122.66 40.0987 122.729 40.2603 122.819C40.3003 122.552 40.3348 122.311 40.3675 122.098C41.2609 121.285 41.2609 121.285 41.1992 120.726C41.4225 120.978 41.5842 121.16 41.8892 121.503C42.0164 121.105 42.1871 120.829 42.178 120.557C42.1398 119.393 42.6755 118.601 43.658 118.054C44.4243 117.628 45.1688 117.159 45.9533 116.769C46.687 116.404 46.8776 115.903 46.6161 115.142C46.46 114.689 46.3674 114.206 46.3129 113.731C46.0877 111.771 47.0701 110.475 49.0332 110.139C49.5271 110.055 49.9502 110.021 50.0519 109.356C50.4042 107.039 50.6185 104.715 49.9793 102.434C49.7559 101.638 49.2819 100.739 48.6409 100.269C46.529 98.7164 44.3026 97.3145 42.0926 95.8981C37.6599 93.058 33.683 89.7638 31.1825 85.0006C30.832 84.3306 30.3217 84.247 29.6879 84.2525C26.8569 84.2743 24.1221 83.8857 21.4127 82.9323C15.9576 81.0146 13.2882 76.9705 12.1496 71.5826C11.3669 67.8836 12.0769 64.3098 12.8596 60.7179C13.3463 58.4788 13.8348 56.2234 14.0581 53.948C14.2052 52.4444 14.0472 50.8591 13.7313 49.3737C13.1847 46.8078 11.2598 45.3605 8.99166 44.3708C7.80766 43.855 6.52379 43.5681 5.32345 43.0815C4.47359 42.7364 3.5402 42.3841 2.91007 41.7631C2.02752 40.8951 1.98212 39.7038 2.49967 38.5507C2.98271 37.4775 3.84165 36.9581 4.9984 36.8909C5.2036 36.8782 5.4088 36.8473 5.43241 36.8437C5.27261 35.1095 5.04743 33.4206 4.98024 31.7264C4.91668 30.1501 5.62672 28.8227 6.83795 27.8566C8.15451 26.8088 9.54007 25.8391 10.9547 24.9257C12.6562 23.827 14.6864 24.9565 14.7518 26.9958C14.7663 27.4734 14.7264 27.9692 14.612 28.4323C14.1489 30.3118 13.655 32.1785 13.862 34.147C13.9837 35.3056 14.2325 36.3933 15.2803 37.4393C15.3456 36.5404 15.3928 35.8431 15.4473 35.1458C15.5944 33.2627 16.1301 31.5302 17.3995 30.0793C18.1603 29.2095 19.1046 28.7555 20.2686 28.7718C21.2057 28.7845 22.0192 29.293 22.0446 30.2119C22.0719 31.1997 21.9084 32.2548 21.5598 33.1791C21.0114 34.6319 20.3903 36.0211 20.5701 37.6354C20.6645 38.4799 21.0077 39.0773 21.6814 39.6039C22.5313 40.2704 23.3539 41.004 24.0567 41.8212C24.9919 42.9089 25.4205 44.2037 25.2879 45.6891C25.2443 46.1794 25.3842 46.8132 25.682 47.1909C28.6365 50.9354 30.536 55.1829 31.8108 59.7409C31.8925 60.0314 31.9143 60.3638 32.0759 60.5998C32.2012 60.7832 32.5444 60.9939 32.7169 60.9431C36.505 59.8281 40.0097 60.3765 43.2367 62.6646C43.3329 62.7317 43.4546 62.7608 43.7342 62.8788C43.9721 61.6059 44.1991 60.3856 44.4352 59.118C44.1628 59.0254 43.9721 58.9619 43.7833 58.8983C42.572 58.4952 41.9601 57.4292 42.4431 56.2507C43.4982 53.6757 42.4921 51.5801 41.043 49.5644C40.7089 49.0995 40.2549 48.7181 39.9407 48.2424C39.7737 47.9881 39.6266 47.4615 39.7537 47.3308C39.9789 47.0983 40.4619 46.9095 40.7597 46.9894C41.5932 47.2145 42.3868 47.585 43.2112 47.9046C43.2675 47.0275 43.3729 46.0941 43.3493 45.1643C43.3456 44.9882 42.8317 44.6813 42.5557 44.6849C42.0218 44.6922 41.4952 44.9101 40.9577 44.9791C39.652 45.1462 38.4571 44.9065 37.6563 43.7552C36.9117 42.6856 36.9117 41.547 37.5764 40.4284C37.7344 40.1614 37.9795 39.9453 38.2919 39.5785C38.2919 40.5119 38.2919 41.2419 38.2919 42.2116C38.8167 41.4235 39.1962 40.8533 39.5775 40.2831C39.6284 40.314 39.6811 40.3448 39.7319 40.3739C39.6683 40.7462 39.5558 41.1166 39.5485 41.4889C39.5322 42.464 39.8953 42.8926 40.8542 42.9743C41.773 43.0524 42.6392 43.1704 43.3474 43.8714C43.52 44.0421 44.0212 44.1002 44.2336 43.9767C45.6991 43.1178 47.3171 42.9852 48.9424 42.9453C49.716 42.9253 50.2625 42.6692 50.7292 42.0827C50.9689 41.7794 51.2613 41.4762 51.5973 41.3018C51.9151 41.1366 52.4054 40.9786 52.6632 41.113C52.9175 41.2473 53.0882 41.7485 53.099 42.0954C53.1208 42.8163 53.001 43.5409 52.9628 44.2654C52.9501 44.4943 53.0101 44.7267 53.0536 45.1099C53.6111 44.329 54.0797 43.6753 54.5463 43.0215C54.648 43.056 54.7516 43.0923 54.8532 43.1269C54.8532 43.4301 54.875 43.7352 54.8496 44.0366C54.7697 44.97 54.6608 45.8998 54.5863 46.8332C54.5355 47.4579 54.6989 47.9064 55.2745 48.3586C55.7794 48.7544 56.1861 49.5262 56.2551 50.1727C56.4349 51.8742 57.2267 53.1272 58.5523 54.1151C59.6183 54.9105 60.7042 55.6823 61.7338 56.523C62.2278 56.928 62.4965 56.6066 62.827 56.3614C65.4148 54.442 68.3075 53.2852 71.5127 52.9838C72.4969 52.8912 73.503 52.9602 74.4908 53.0473C75.0737 53.0982 75.4515 52.9765 75.7856 52.4789C78.5513 48.3677 80.6614 43.9694 81.3533 39.0228C81.7873 35.9157 83.2182 33.5242 85.7678 31.7445C86.5596 31.1907 87.295 30.5569 88.0686 29.974C89.6267 28.7991 90.64 27.3082 91.0268 25.3542C91.1339 24.8113 91.5825 24.1884 92.0546 23.8924C93.008 23.2968 94.1084 23.068 95.1145 23.8524C96.1296 24.6442 96.0224 25.7737 95.8299 26.8578C95.6157 28.0727 94.8711 28.9807 93.9523 29.7724C93.442 30.2119 92.9989 30.7294 92.4686 31.2706C93.3566 31.5611 95.7954 30.9927 96.1677 30.4588C96.3094 30.2555 96.2985 29.9449 96.3584 29.6834C96.776 27.8711 97.1574 26.0479 97.6259 24.2483C97.862 23.3476 100.446 21.6461 101.396 21.6533C102.168 21.6606 102.734 21.9929 103.03 22.7211C103.76 24.5207 103.25 29.1841 101.565 30.5787C101.955 29.0406 102.362 27.5061 102.718 25.9608C102.774 25.7192 102.678 25.2616 102.518 25.1853C101.772 24.8294 102.033 24.3264 102.215 23.8107C102.384 23.3313 102.687 22.8174 102.059 22.4542C101.487 22.1219 100.922 22.1564 100.344 22.6739C101.706 23.482 102.01 24.7713 101.935 26.1442C101.87 27.3409 101.599 28.5267 101.458 29.7216C101.425 29.9903 101.545 30.2772 101.596 30.5569C101.145 31.7427 100.717 32.9376 100.237 34.1107C98.9388 37.2904 96.4673 39.1281 93.2731 40.1069C91.7695 40.5682 91.7477 40.5537 92.0183 42.0736C92.6847 45.8235 93.4384 49.5589 94.0231 53.3215C94.6914 57.6326 94.488 61.851 91.9511 65.6336C89.6975 68.9931 86.4633 70.6184 82.4701 70.8363C82.2049 70.8508 81.9398 70.869 81.5494 70.8926C81.751 71.3302 81.9071 71.6807 82.0724 72.0257C84.3841 76.8452 85.7805 81.8736 85.3956 87.2706C85.1286 91.0241 84.3859 94.7032 83.1565 98.2588C81.8181 102.129 80.0603 105.806 77.7359 109.196C75.1464 112.973 71.9485 116.171 68.4002 119.037C68.2821 119.131 68.1732 119.24 68.0461 119.318C67.0309 119.939 66.6078 120.751 66.7222 122.017C66.8639 123.569 65.5401 124.964 63.9675 125.411C63.4354 125.561 62.7835 125.888 62.5329 126.331C61.5159 128.135 59.9125 128.774 58.0003 128.821C56.4676 128.859 55.1801 129.353 53.8781 130.185C50.8854 132.097 47.88 133.998 45.5774 136.733C44.506 138.006 43.5599 139.49 42.9606 141.035C41.5678 144.629 43.7669 147.571 47.6349 147.714C51.2795 147.85 54.5918 146.744 57.8786 145.373C60.2993 144.364 62.7199 143.309 65.2277 142.571C68.6017 141.58 71.9449 142.11 75.1282 143.53C78.4805 145.025 79.4066 147.79 77.8885 151.152C76.2468 154.785 73.5011 157.31 69.9927 158.957C67.0473 160.339 63.9529 161.403 60.9312 162.623C60.0922 162.963 59.2387 163.293 58.4561 163.742C57.5118 164.283 57.5118 165.211 58.3907 165.87C59.1806 166.462 60.114 166.531 60.9966 166.28M32.2557 84.3106C32.2194 84.4014 32.1849 84.4904 32.1485 84.5812C32.2266 84.7373 32.292 84.9008 32.3828 85.0479C34.0371 87.7191 36.0001 90.1361 38.5061 92.0465C40.5727 93.6227 42.6973 95.1245 44.8365 96.6027C46.9811 98.0863 49.1585 99.5391 50.7474 101.644C51.6481 102.835 52.369 104.164 53.1699 105.43C53.0845 105.483 52.9992 105.533 52.9156 105.586C52.5216 104.983 52.1366 104.373 51.728 103.781C51.3358 103.213 50.9199 102.662 50.515 102.105C51.116 105.374 51.2141 108.01 50.4332 111.257C49.6942 114.339 50.7238 116.738 52.9828 118.708C55.1819 120.626 57.8423 121.483 60.7133 121.717C62.2605 121.842 63.7804 121.901 65.1042 120.787C66.5388 119.582 68.0951 118.521 69.5224 117.306C76.1669 111.65 80.2746 104.422 82.6371 96.096C84.0082 91.2693 84.8835 86.4116 83.9337 81.4087C82.6862 74.8332 80.28 68.8097 75.3026 64.0755C74.7741 63.5725 74.3038 63.006 73.7263 62.3831C73.9624 62.5193 74.1095 62.5974 74.2511 62.6864C76.8534 64.3443 78.8618 66.5815 80.5179 69.1529C81.3642 70.4677 81.5258 70.5657 83.0839 70.2824C83.3799 70.228 83.674 70.1481 83.961 70.0573C89.8955 68.1469 93.3003 63.4218 93.4147 57.1913C93.4765 53.7955 92.7792 50.5159 92.2798 47.2C92.2616 47.0747 92.1618 46.9603 92.08 46.8023C91.7604 47.0457 91.4989 47.249 91.2338 47.447C89.1654 48.9942 86.812 49.4845 84.2878 49.2829C82.4392 49.134 81.1009 48.1461 80.182 46.6316C78.9399 48.9106 77.7196 51.1533 76.4938 53.4033C77.3255 53.8645 78.2934 54.3094 79.1542 54.9069C79.9732 55.4771 80.6814 56.2071 81.4368 56.8663C81.3732 56.9407 81.3079 57.0152 81.2443 57.0896C80.7867 56.6992 80.3527 56.2779 79.8678 55.9256C74.1077 51.7362 67.5576 53.8663 63.0994 57.1259C62.9596 57.2276 62.8488 57.589 62.9215 57.7252C63.7895 59.3559 64.0074 61.3698 66.0231 62.3105C67.2053 62.8625 67.6139 64.0846 67.4286 65.4121C67.2979 66.3491 66.5497 67.0065 65.698 66.9393C64.9862 66.8848 64.5885 66.449 64.5377 65.768C64.4941 65.1942 64.6684 64.6403 65.324 64.5168C65.5564 64.4732 65.965 64.6276 66.063 64.8146C66.1738 65.0235 66.0721 65.3921 65.9541 65.6409C65.9214 65.7117 65.5056 65.5991 65.0207 65.541C65.3294 65.8225 65.6327 66.1929 65.7089 66.1512C65.9886 65.9968 66.3354 65.7389 66.4008 65.4611C66.7095 64.1191 65.3566 63.0623 63.9293 63.5943C63.0631 63.9176 62.2714 64.4569 61.476 64.9472C58.1292 67.0083 54.5609 67.82 50.7056 66.7722C47.9182 66.0132 46.3855 64.0973 46.1367 61.2263C46.0659 60.4128 46.0441 59.5956 45.9987 58.7803C45.9842 58.5097 45.9588 58.2409 45.9406 57.9704C45.8353 57.954 45.73 57.9395 45.6246 57.9231C45.3958 58.4933 45.0926 59.0454 44.9545 59.6374C44.7421 60.549 44.6894 61.4969 44.4842 62.4085C44.3244 63.1222 44.5351 63.6016 45.0581 64.0828C45.8607 64.8219 46.5925 65.6409 47.3534 66.4254C47.288 66.4907 47.2208 66.5561 47.1555 66.6215C46.5271 66.0331 45.9061 65.4375 45.2687 64.86C41.8021 61.7185 37.8179 60.4927 33.1945 61.575C32.5771 61.7185 32.3664 61.9509 32.4155 62.6155C32.5208 64.0301 32.568 65.4557 32.5335 66.8739C32.4917 68.6281 32.0505 70.2933 30.9918 71.7279C30.6649 72.1692 30.1982 72.507 29.7951 72.8919C29.737 72.8411 29.6789 72.7884 29.6189 72.7376C30.7085 71.1214 31.3568 69.3672 31.4603 67.4078C31.7527 61.8419 30.2817 56.6901 27.8393 51.7598C27.7267 51.531 27.5869 51.3149 27.3908 50.9717C26.6353 53.9299 25.5785 56.5212 22.5386 57.5545C19.6494 58.5369 16.9309 58.3662 14.6265 55.8965C14.1053 58.8692 13.6386 61.6676 13.1193 64.4569C12.7053 66.6887 12.7507 68.9005 13.1374 71.1341C14.1507 76.9687 17.2996 80.9493 23.1524 82.3857C25.4858 82.9595 27.9228 83.1556 30.3271 83.3844C33.792 83.7168 37.2876 83.8548 40.5454 85.2476C41.6586 85.7234 42.7028 86.359 43.7778 86.9219C41.8529 86.4062 40.0225 85.7143 38.1321 85.273C36.2017 84.8299 34.2169 84.6247 32.2557 84.3106ZM65.9505 165.901C65.9468 165.859 65.9414 165.817 65.9377 165.776C64.5304 166.041 63.1321 166.378 61.7139 166.544C60.7187 166.66 59.6473 166.718 58.703 166.46C58.1437 166.308 57.5772 165.559 57.3574 164.953C57.0887 164.214 57.7115 163.638 58.3544 163.313C59.3768 162.797 60.4118 162.276 61.4941 161.911C64.9699 160.744 68.3693 159.438 71.4963 157.475C74.5235 155.572 76.8879 153.206 77.6324 149.545C78.0646 147.424 77.4345 145.9 75.644 144.836C72.1247 142.744 68.3039 142.541 64.5032 143.505C62.0426 144.129 59.7399 145.39 57.381 146.399C54.1069 147.8 50.7365 148.559 47.1446 148.304C43.687 148.059 41.4679 145.846 41.7694 142.693C41.8493 141.869 42.1271 141.035 42.4558 140.265C44.0212 136.613 46.8195 134.08 50.1064 132.017C51.5773 131.093 53.0718 130.208 54.7861 129.164C49.4672 128.369 44.5387 127.341 42.2088 121.566C40.2022 123.464 38.3046 125.062 36.6412 126.873C31.9034 132.028 29.1813 138.106 28.6656 145.13C28.5203 147.095 29.0088 148.811 30.3725 150.3C31.8943 151.963 33.8864 152.456 35.9693 152.77C39.1962 153.258 42.3614 152.712 45.5175 152.114C49.6143 151.337 53.6892 150.425 57.8096 149.812C61.0093 149.334 64.149 149.899 67.0255 151.482C68.7216 152.416 68.8578 153.992 67.3433 155.212C66.7458 155.693 66.0068 156.037 65.2858 156.324C62.7036 157.353 60.0813 158.281 57.5136 159.343C55.4017 160.217 53.8581 161.661 53.3624 164.027C52.9066 166.204 54.116 168.229 56.0645 168.363C57.9785 168.494 59.8707 168.358 61.6794 167.611C63.0958 167.027 64.5249 166.471 65.9505 165.901ZM15.8396 37.9333C14.5157 37.5864 13.7603 36.6912 13.4661 35.2802C13.0848 33.4588 13.3535 31.6792 13.7403 29.8868C13.9474 28.9244 14.1417 27.9038 14.0363 26.9414C13.8693 25.4069 12.3856 24.8403 11.1218 25.7301C10.735 26.0025 10.4081 26.3766 10.0976 26.7416C9.64903 27.2682 9.89236 27.5806 10.488 27.6496C11.0255 27.7113 11.5739 27.7077 12.1169 27.6968C12.6054 27.6877 12.7507 27.8857 12.6853 28.3632C12.5019 29.7161 11.0636 30.7094 9.74527 30.3644C9.49467 30.299 9.2477 30.221 8.90449 30.1211C8.65389 33.2826 9.09698 36.2154 10.517 38.9865C8.48138 36.6512 8.21443 33.7748 8.0855 31.0236C7.24472 31.0962 6.54558 31.1562 5.75202 31.2234C5.33253 35.3056 7.11397 38.6269 9.52191 41.7377C8.08005 40.817 7.11397 39.5204 6.26956 38.1058C6.08797 37.8025 5.76473 37.4557 5.44876 37.3848C4.61342 37.1996 3.64008 37.7807 3.18791 38.5943C2.71758 39.4387 2.7993 40.4556 3.45485 41.2655C3.63463 40.8805 3.75448 40.5028 3.97058 40.1923C4.20302 39.86 4.52626 39.5912 4.80954 39.2934C5.17273 39.6602 5.57042 39.9998 5.87913 40.4084C5.99535 40.5646 5.91545 40.8787 5.90456 41.1184C5.84463 42.5276 5.83373 42.5585 7.21203 43.007C10.6841 44.1365 13.3481 46.0759 14.3868 49.7986C14.494 50.1854 15.0569 50.574 15.4909 50.7229C18.6615 51.8143 22.9581 49.7768 24.1493 46.6443C24.6069 45.4404 24.7304 44.1565 24.0258 43.0506C23.3085 41.9229 22.4805 40.8024 21.4817 39.9326C20.4303 39.0156 19.9 38.0023 20.1234 36.6893C20.3249 35.509 20.7662 34.3704 21.0386 33.1973C21.2275 32.3837 21.4417 31.543 21.4109 30.7222C21.3691 29.6181 20.3195 29.2204 19.2045 29.9032C19.5677 30.1392 19.8582 30.4134 20.2033 30.5351C20.8243 30.753 20.8134 31.0799 20.5501 31.5756C19.8619 32.8686 18.9012 33.023 17.8825 31.9806C17.7173 31.8117 17.5629 31.6319 17.3704 31.4231C15.9376 33.3825 15.8541 35.6197 15.8396 37.9333ZM91.7495 31.7336C92.6847 30.6731 93.4892 29.7434 94.3136 28.8299C95.247 27.7967 95.3778 26.5637 95.238 25.2598C95.1635 24.5589 94.7458 24.192 94.0612 24.0849C92.781 23.8851 91.8349 24.399 91.41 25.7301C90.6327 28.1689 89.1291 30.0266 87.1062 31.5284C86.4506 32.0133 85.8532 32.5744 85.2194 33.0901C83.6559 34.3613 82.7443 36.0283 82.2068 37.9405C82.0397 38.5361 82.1523 38.9538 82.5881 39.3987C84.8054 41.6632 87.5583 41.6886 90.3349 40.7807C91.0014 40.5627 91.6115 40.1778 92.2707 39.9344C94.8657 38.9774 97.2246 37.6699 98.9552 35.4382C100.148 33.8982 100.535 32.1023 100.662 30.1011C100.261 30.2518 99.9848 30.3553 99.7088 30.4588C99.213 30.6441 98.7391 30.704 98.4867 30.1065C98.2452 29.5363 98.1562 28.9861 98.8753 28.6556C99.1222 28.543 99.3547 28.3977 99.5889 28.2597C100.059 27.9819 100.448 27.6895 100.134 27.034C99.8268 26.3929 99.4146 26.1242 98.6864 26.3348C97.753 26.6054 97.3317 27.2446 97.1265 28.1453C96.7797 29.6744 96.4456 31.2143 95.977 32.7088C95.5921 33.9364 94.6423 34.8407 93.8034 35.0187C94.9529 33.9636 95.7537 32.7705 96.0388 31.1489C94.626 31.6719 93.3857 32.6598 91.7495 31.7336ZM43.1023 52.0758C43.3293 54.4892 43.5599 55.034 44.5805 55.5788C45.2378 54.5074 44.0756 53.011 45.483 52.0722C44.546 53.4414 45.4612 54.4983 45.8825 55.6786C46.2421 56.6865 46.3746 57.7851 46.5126 58.8565C46.6452 59.8735 46.6016 60.914 46.7396 61.9309C46.8377 62.65 47.1083 63.3455 47.3026 64.0501C47.3098 63.0586 47.1972 62.1198 47.1518 61.1773C47.0701 59.4558 47.0483 57.7306 46.9485 56.011C46.9303 55.6823 46.667 55.3699 46.4709 54.9486C47.584 53.1654 49.5761 54.3966 51.2595 53.7846C50.5658 55.0794 49.4762 54.2695 48.4738 54.5037C49.8649 55.4371 51.1451 56.0745 52.8775 55.9474C52.389 55.6005 52.0422 55.3554 51.6971 55.1084C51.728 55.0485 51.7589 54.9886 51.7916 54.9287C52.6124 55.2955 53.4332 55.6605 54.4574 56.1181C54.3557 55.3754 54.3212 54.8415 54.205 54.3258C53.9961 53.4014 53.6693 52.5915 52.4853 52.5461C52.2274 52.5371 51.886 52.212 51.7534 51.9469C51.3485 51.1442 50.8491 50.3271 50.7202 49.4645C50.5676 48.4566 50.6475 47.3707 50.8527 46.3647C50.9998 45.6419 51.4956 45.5239 52.0712 45.7818C51.8152 45.9706 51.5591 46.1577 51.3031 46.3465C52.0676 46.194 52.5125 46.5898 52.8212 47.1437C53.0682 47.5868 53.1953 48.0934 53.4114 48.5547C53.524 48.7944 53.7128 48.9996 53.9362 49.3192C53.8073 50.189 53.1935 51.1733 53.662 52.37C55.0457 50.3725 55.0457 50.3725 55.763 50.4778C55.0112 51.393 56.0699 51.6218 56.2824 52.1757C56.1989 51.4439 56.03 50.7429 55.9138 50.0329C55.8012 49.3464 55.487 48.818 54.8115 48.6164C53.6402 48.266 53.1408 47.3689 52.8848 46.2993C52.7032 45.5384 52.6723 44.7394 52.4889 43.9785C52.3999 43.6063 52.182 43.0687 51.9078 42.987C51.6063 42.8962 51.1287 43.1813 50.811 43.4174C50.4223 43.7061 50.1227 44.1129 49.7123 44.5451C49.7123 44.0657 49.7123 43.717 49.7123 43.2503C48.5628 43.3411 47.4496 43.4301 46.1585 43.5318C46.5762 44.082 46.834 44.4216 47.1954 44.8974C44.4316 44.605 45.7063 46.6098 45.1906 47.7593C44.7929 46.9766 44.3971 46.194 43.9503 45.3114C43.0587 47.0111 44.023 48.364 44.8056 49.9275C43.322 48.818 42.158 47.5323 40.2022 47.4633C41.2155 48.8362 42.1326 50.0765 42.9843 51.2314C43.4564 49.6279 41.684 49.1757 41.0739 48.048C42.5648 48.9524 43.7106 50.1582 44.5387 51.6527C44.477 51.7126 44.4152 51.7725 44.3553 51.8307C44.092 51.4965 43.8287 51.1642 43.5654 50.8301C43.4709 50.8936 43.3765 50.9572 43.2803 51.0207C43.6616 51.7453 44.0448 52.4699 44.4261 53.1944C44.3771 53.2326 44.328 53.2689 44.279 53.307C43.8995 52.9093 43.5218 52.5134 43.1023 52.0758ZM58.5414 56.3778C59.6292 56.9807 59.66 57.017 59.2024 58.0593C58.2454 60.2366 56.5729 61.5478 54.2558 62.0471C51.2432 62.6972 49.4799 61.5405 48.8679 58.5297C48.6445 57.4347 48.4284 56.3378 48.1488 55.2573C48.0725 54.9595 47.7802 54.718 47.5877 54.4511C47.3425 54.7071 47.2862 54.8233 47.2989 54.9323C47.5931 57.3293 47.8637 59.73 48.2051 62.1216C48.4284 63.6797 49.4417 64.7365 50.8564 65.196C54.0088 66.2202 57.1341 66.084 60.0396 64.3443C63.913 62.0253 63.9293 58.3045 60.1394 55.8584C59.1788 55.2374 58.2599 54.5419 57.3647 53.83C56.7854 53.3688 56.2788 52.8149 55.6232 52.192C55.6232 52.6133 55.5433 52.9057 55.6359 53.1236C56.0845 54.1696 56.5166 55.2301 57.0832 56.2125C57.3756 56.7264 57.924 57.1713 58.5414 56.3778ZM81.8327 39.4623C81.3587 41.5488 80.8993 43.4537 80.5143 45.375C80.4471 45.7091 80.5906 46.174 80.7976 46.4609C81.5476 47.4887 82.5118 48.2859 83.8102 48.4712C86.0021 48.7817 88.1558 48.6528 90.1842 47.6431C91.9311 46.7714 92.1091 46.4373 91.8748 44.516C91.8567 44.3653 91.8403 44.2164 91.8222 44.0657C91.6914 42.9761 91.5607 41.8866 91.4299 40.7934C87.9306 42.3133 84.6783 42.7201 81.8327 39.4623ZM14.7446 51.0407C14.7446 52.1739 14.7663 53.2562 14.7391 54.3385C14.7137 55.3318 15.1767 56.0436 16.0121 56.4613C16.7021 56.8082 17.4521 57.1804 18.2003 57.244C22.2971 57.5926 24.7758 56.1017 26.3085 52.8367C27.2963 50.7284 26.8405 48.7672 24.9592 47.3326C22.3751 50.8264 19.101 52.4208 14.7446 51.0407ZM50.1645 59.9334C50.0192 60.0823 49.8758 60.2294 49.7305 60.3783C50.1463 60.7197 50.5113 61.2336 50.9853 61.3734C53.8708 62.2251 57.4555 61.3153 58.9155 57.8759C59.1207 57.3911 59.0753 57.0733 58.3253 56.8699C58.1891 57.3112 58.0584 57.7361 57.964 58.0412C57.7152 58.1374 57.3411 58.1647 57.2249 58.3535C57.0033 58.7076 56.9307 59.1562 56.7618 59.6683C56.6692 59.4758 56.5493 59.2288 56.4077 58.9382C55.7158 59.6011 54.4755 59.4122 54.7824 60.4727C54.3575 60.4182 53.8726 60.2548 53.435 60.3383C53.188 60.3856 53.021 60.8414 52.8267 61.0992C52.2456 60.3946 51.2341 60.2348 50.7292 60.8069C50.5422 60.5163 50.3533 60.2258 50.1645 59.9334ZM53.5567 57.1931C53.9671 57.1441 54.372 57.1514 54.7388 57.037C55.349 56.8463 55.398 55.9601 56.1171 55.8366C56.1571 55.8294 56.197 55.3881 56.1171 55.1992C55.9737 54.8615 55.7376 54.5618 55.418 54.0515C55.162 54.8033 54.9477 55.3282 54.8097 55.8711C54.6825 56.3687 54.4901 56.5158 53.9271 56.4613C52.1584 56.2888 50.3334 56.445 48.7644 55.2029C48.6918 56.6229 49.3346 57.3838 50.4151 57.7633C50.7056 57.865 51.0979 57.6725 51.1796 57.6598C51.8624 57.7216 52.3273 57.8596 52.7449 57.7724C53.0718 57.707 53.3387 57.3602 53.5567 57.1931ZM53.1281 50.3543C53.1862 50.338 53.2443 50.3216 53.3024 50.3053C53.0446 49.3301 52.8248 48.3422 52.5034 47.3889C52.4217 47.1455 51.9968 46.8404 51.7734 46.8713C51.5319 46.9058 51.1542 47.3035 51.1596 47.536C51.1796 48.3586 51.2849 49.1885 51.4647 49.9911C51.5882 50.5395 51.866 51.0607 52.1311 51.5637C52.2383 51.7671 52.4943 51.8906 52.6832 52.0504C52.8121 51.8761 53.0173 51.7144 53.0555 51.5219C53.1281 51.1424 53.1081 50.7447 53.1281 50.3543ZM12.3257 28.2488C11.3669 28.1163 10.4716 27.9946 9.50375 27.8602C9.42567 28.0854 9.30036 28.3887 9.2132 28.7028C8.94626 29.6507 9.18415 29.9776 10.1629 30.0285C11.2598 30.0848 12.0134 29.4782 12.3257 28.2488ZM98.0182 25.4505C98.6138 25.4505 99.1513 25.4832 99.6816 25.4414C100.313 25.3906 100.994 24.6841 100.915 24.2247C100.827 23.7217 100.03 23.3222 99.3601 23.4457C98.5829 23.5873 98.1289 24.2574 98.0182 25.4505ZM18.5272 29.7797C18.2675 30.3499 17.7499 30.9582 17.8861 31.316C18.0586 31.77 18.765 32.2766 19.2426 32.2802C19.6476 32.282 20.058 31.6011 20.4738 31.2143C19.7783 30.7022 19.2735 30.3299 18.5272 29.7797ZM43.3656 55.5261C42.5321 56.4304 42.5266 57.293 43.2076 57.9576C43.756 58.4915 44.5423 58.546 45.0907 58.0866C45.8316 57.4692 45.9061 56.4377 45.2342 55.5007C45.1888 56.4177 45.434 57.7125 44.2681 57.7216C43.0097 57.7306 43.2857 56.4649 43.3656 55.5261ZM5.48689 42.4422C5.48689 41.6232 5.54863 40.9731 5.45602 40.3466C5.4197 40.1015 5.04198 39.9054 4.82044 39.6856C4.64974 39.8654 4.44454 40.0234 4.31924 40.2304C4.1667 40.4865 4.10496 40.7952 3.96332 41.0585C3.67095 41.6015 3.85254 41.9084 4.40459 42.0754C4.66064 42.1553 4.91487 42.2498 5.48689 42.4422ZM6.50745 30.8656C7.44447 30.8602 7.96202 30.3753 8.0056 29.7325C8.05645 29.0025 7.50258 29.1042 7.09581 29.0678C6.58009 29.0224 5.95177 29.7797 6.05891 30.3717C6.10068 30.6023 6.42573 30.7803 6.50745 30.8656ZM100.446 28.1998C99.9322 28.4704 99.431 28.6447 99.0569 28.968C98.8589 29.1387 98.7645 29.5981 98.8444 29.8614C98.8934 30.0248 99.3837 30.1919 99.6253 30.1356C100.497 29.9359 100.713 29.4092 100.446 28.1998ZM54.4901 43.7225C53.1808 45.1044 53.0555 46.5862 54.1596 47.6431C54.2685 46.3374 54.3738 45.0935 54.4901 43.7225ZM50.8709 59.819C52.6015 60.1241 53.9271 59.6664 55.2201 59.0345C53.7764 58.8511 52.389 58.9818 50.8709 59.819ZM54.9858 51.0898C54.0924 52.2701 54.136 53.4087 54.9858 54.3584C54.9858 53.2943 54.9858 52.3173 54.9858 51.0898ZM6.92511 28.494C8.28889 29.0842 8.60668 28.5085 8.63936 27.1665C8.04192 27.6296 7.5044 28.0455 6.92511 28.494ZM101.409 24.9656C101.261 24.9293 101.114 24.8912 100.967 24.8548C100.831 25.2598 100.697 25.6648 100.56 26.0679C100.767 26.1242 100.973 26.1787 101.18 26.235C101.254 25.8137 101.332 25.3906 101.409 24.9656ZM44.0157 56.0346C43.894 56.149 43.7706 56.2616 43.6489 56.376C43.8777 56.6665 44.1065 56.9571 44.3371 57.2494C44.4697 57.1078 44.7348 56.8735 44.7112 56.8408C44.5078 56.5503 44.2536 56.2979 44.0157 56.0346Z" fill="#1A0123"/>
<path d="M32.2554 84.3106C34.2166 84.6229 36.2033 84.8281 38.1318 85.2803C40.0222 85.7215 41.8527 86.4152 43.7775 86.9291C42.7025 86.3662 41.6583 85.7306 40.5452 85.2548C37.2856 83.8602 33.7917 83.7222 30.3269 83.3917C27.9244 83.1611 25.4856 82.9649 23.1521 82.3929C17.2993 80.9565 14.1505 76.976 13.1372 71.1414C12.7486 68.9096 12.705 66.6977 13.119 64.4641C13.6366 61.6748 14.1051 58.8765 14.6262 55.9038C16.9307 58.3735 19.6491 58.546 22.5383 57.5617C25.5782 56.5267 26.6351 53.9353 27.3905 50.979C27.5866 51.3222 27.7246 51.5383 27.839 51.7671C30.2797 56.6974 31.7506 61.8492 31.46 67.415C31.3583 69.3726 30.7082 71.1286 29.6187 72.7448C29.6768 72.7957 29.7349 72.8483 29.7948 72.8992C30.1979 72.5142 30.6665 72.1764 30.9915 71.7352C32.052 70.3006 32.4915 68.6335 32.5332 66.8811C32.5677 65.4629 32.5187 64.0374 32.4152 62.6228C32.3662 61.9581 32.5768 61.7257 33.1942 61.5822C37.8176 60.5017 41.8018 61.7275 45.2684 64.8673C45.9058 65.4447 46.5269 66.0422 47.1552 66.6287C47.2206 66.5634 47.2878 66.498 47.3531 66.4326C46.5923 65.6481 45.8604 64.831 45.0578 64.09C44.5348 63.6088 44.3241 63.1294 44.4839 62.4158C44.6892 61.5023 44.7436 60.5544 44.9543 59.6446C45.0923 59.0526 45.3955 58.5006 45.6244 57.9304C45.7297 57.9467 45.835 57.9612 45.9403 57.9776C45.9603 58.2482 45.9839 58.5169 45.9984 58.7875C46.0457 59.6029 46.0675 60.42 46.1365 61.2336C46.3852 64.1028 47.9161 66.0204 50.7054 66.7795C54.5588 67.8273 58.1271 67.0155 61.4757 64.9544C62.2711 64.4641 63.0628 63.9248 63.9291 63.6016C65.3582 63.0695 66.7111 64.1264 66.4005 65.4683C66.337 65.7462 65.9883 66.0041 65.7087 66.1584C65.6324 66.2002 65.3291 65.8297 65.0204 65.5483C65.5053 65.6064 65.9211 65.719 65.9538 65.6481C66.0719 65.4012 66.1717 65.0307 66.0628 64.8219C65.9647 64.6366 65.5561 64.4805 65.3237 64.5241C64.6681 64.6475 64.4938 65.1996 64.5374 65.7752C64.5882 66.4562 64.9859 66.892 65.6978 66.9465C66.5495 67.0119 67.2976 66.3545 67.4284 65.4193C67.6136 64.0919 67.205 62.8697 66.0228 62.3177C64.0053 61.377 63.7892 59.3632 62.9212 57.7324C62.8486 57.5962 62.9593 57.2349 63.0992 57.1332C67.5573 53.8717 74.1092 51.7435 79.8676 55.9328C80.3524 56.2851 80.7864 56.7083 81.244 57.0969C81.3076 57.0224 81.373 56.948 81.4365 56.8735C80.6793 56.2143 79.9729 55.4825 79.1539 54.9141C78.2931 54.3167 77.3252 53.8717 76.4935 53.4105C77.7193 51.1587 78.9414 48.9179 80.1817 46.6389C81.0988 48.1533 82.4389 49.1412 84.2876 49.2901C86.8135 49.4935 89.1652 49.0014 91.2335 47.4542C91.4987 47.2563 91.7602 47.0529 92.0798 46.8096C92.1615 46.9675 92.2614 47.0801 92.2795 47.2072C92.7789 50.5232 93.478 53.8046 93.4145 57.1986C93.3001 63.4272 89.8952 68.1541 83.9607 70.0645C83.6738 70.1571 83.3796 70.237 83.0836 70.2897C81.5255 70.5711 81.3657 70.4731 80.5177 69.1602C78.8615 66.5888 76.8531 64.3515 74.2509 62.6936C74.111 62.6046 73.9621 62.5265 73.7261 62.3903C74.3035 63.0132 74.772 63.578 75.3023 64.0828C80.2798 68.8169 82.6859 74.8404 83.9335 81.4159C84.8814 86.4189 84.0061 91.2765 82.6369 96.1033C80.2725 104.429 76.1667 111.655 69.5221 117.313C68.0966 118.528 66.5386 119.587 65.104 120.795C63.7801 121.908 62.2602 121.85 60.713 121.724C57.8402 121.492 55.1817 120.633 52.9826 118.715C50.7217 116.745 49.6921 114.346 50.433 111.265C51.212 108.018 51.1158 105.381 50.5147 102.112C50.9196 102.67 51.3373 103.22 51.7277 103.788C52.1363 104.382 52.5213 104.99 52.9154 105.593C53.0007 105.541 53.0861 105.49 53.1696 105.437C52.3688 104.17 51.6478 102.842 50.7471 101.651C49.1564 99.5463 46.9809 98.0935 44.8362 96.6099C42.6989 95.1317 40.5742 93.6282 38.5059 92.0537C35.9981 90.1434 34.0368 87.7263 32.3825 85.0551C32.2917 84.908 32.2263 84.7446 32.1483 84.5884C32.1828 84.4903 32.2191 84.4014 32.2554 84.3106ZM82.9946 88.647C78.4003 86.5006 73.7079 86.5206 69.001 88.2766C65.34 89.644 59.7778 94.4235 59.3492 96.6353C65.6778 88.9957 73.4555 86.1937 82.9946 88.647Z" fill="url(#paint4_linear_356_1358)"/>
<path d="M15.8398 37.9332C15.8543 35.6197 15.9378 33.3825 17.3688 31.4285C17.5613 31.6373 17.7156 31.8171 17.8809 31.986C18.8996 33.0283 19.8603 32.874 20.5485 31.581C20.8118 31.0853 20.8209 30.7566 20.2017 30.5405C19.8566 30.4188 19.5661 30.1446 19.2029 29.9086C20.3179 29.2276 21.3675 29.6235 21.4093 30.7276C21.4401 31.5484 21.2258 32.3891 21.037 33.2027C20.7646 34.374 20.3233 35.5126 20.1217 36.6947C19.8984 38.0058 20.4286 39.0191 21.4801 39.938C22.4788 40.8097 23.3069 41.9283 24.0242 43.056C24.7288 44.1619 24.6053 45.4458 24.1477 46.6497C22.9564 49.7822 18.6599 51.8197 15.4893 50.7283C15.0553 50.5794 14.4923 50.1908 14.3852 49.804C13.3483 46.0813 10.6825 44.1419 7.21041 43.0124C5.83029 42.5639 5.84301 42.533 5.90293 41.1238C5.91383 40.8823 5.99554 40.5681 5.87751 40.4138C5.57061 40.0052 5.17111 39.6656 4.80792 39.2988C4.52463 39.5948 4.20139 39.8654 3.96895 40.1977C3.75286 40.5082 3.633 40.8859 3.45323 41.2709C2.79767 40.4628 2.71777 39.4441 3.18628 38.5997C3.63845 37.7861 4.6118 37.2068 5.44713 37.3902C5.7631 37.4592 6.08634 37.8079 6.26794 38.1112C7.11416 39.5258 8.08024 40.8224 9.52029 41.743C7.11235 38.6323 5.33091 35.3092 5.75039 31.2288C6.54396 31.1597 7.24491 31.0998 8.08388 31.029C8.21281 33.7801 8.47975 36.6566 10.5154 38.9919C9.09536 36.2208 8.65227 33.288 8.90287 30.1265C9.24608 30.2264 9.49305 30.3044 9.74365 30.3698C11.062 30.7148 12.5002 29.7197 12.6837 28.3686C12.749 27.8911 12.6019 27.6931 12.1153 27.7022C11.5723 27.7131 11.0239 27.7167 10.4864 27.655C9.89074 27.5878 9.64922 27.2736 10.0959 26.747C10.4065 26.382 10.7333 26.0079 11.1201 25.7355C12.384 24.8457 13.8676 25.4105 14.0347 26.9468C14.14 27.9092 13.9457 28.9298 13.7387 29.8922C13.3537 31.6827 13.085 33.4642 13.4645 35.2856C13.7623 36.6911 14.5178 37.5864 15.8398 37.9332Z" fill="url(#paint5_linear_356_1358)"/>
<path d="M91.7496 31.7336C93.3858 32.6579 94.626 31.6701 96.0425 31.1489C95.7574 32.7705 94.9547 33.9618 93.8071 35.0186C94.646 34.8407 95.5957 33.9363 95.9807 32.7088C96.4492 31.2142 96.7834 29.6761 97.1302 28.1453C97.3354 27.2446 97.7567 26.6072 98.6901 26.3348C99.4183 26.1242 99.8287 26.3929 100.137 27.034C100.452 27.6895 100.063 27.9819 99.5926 28.2597C99.3584 28.3977 99.1259 28.543 98.879 28.6556C98.1599 28.9861 98.2488 29.5381 98.4904 30.1065C98.7428 30.7022 99.2167 30.644 99.7125 30.4588C99.9885 30.3553 100.265 30.2518 100.666 30.1011C100.539 32.1004 100.154 33.8982 98.9589 35.4381C97.2283 37.6699 94.8694 38.9774 92.2744 39.9344C91.6152 40.1777 91.0051 40.5627 90.3386 40.7806C87.5602 41.6886 84.8091 41.6632 82.5918 39.3987C82.156 38.9538 82.0434 38.5361 82.2105 37.9405C82.748 36.0265 83.6596 34.3613 85.2231 33.0901C85.8569 32.5744 86.4543 32.0133 87.1099 31.5284C89.1328 30.0284 90.6364 28.1689 91.4136 25.7301C91.8386 24.399 92.7847 23.8851 94.0649 24.0849C94.7477 24.192 95.1654 24.5588 95.2416 25.2598C95.3797 26.5636 95.2507 27.7966 94.3173 28.8299C93.4893 29.7433 92.6848 30.6749 91.7496 31.7336ZM91.0432 34.4975C88.3175 33.4951 84.2606 36.5241 84.5984 39.2316C85.6825 36.2099 87.8925 34.8498 91.0432 34.4975Z" fill="url(#paint6_linear_356_1358)"/>
<path d="M43.1026 52.0758C43.522 52.5134 43.8998 52.9093 44.2775 53.3052C44.3265 53.267 44.3755 53.2307 44.4246 53.1926C44.0432 52.468 43.6601 51.7435 43.2787 51.0189C43.3731 50.9553 43.4676 50.8918 43.5638 50.8282C43.8271 51.1624 44.0904 51.4947 44.3537 51.8288C44.4155 51.7689 44.4772 51.709 44.5372 51.6508C43.7091 50.1563 42.5632 48.9505 41.0723 48.0462C41.6825 49.1757 43.4567 49.6279 42.9827 51.2295C42.131 50.0764 41.2158 48.8343 40.2007 47.4615C42.1565 47.5305 43.3187 48.8143 44.8041 49.9257C44.0214 48.3622 43.0572 47.0093 43.9488 45.3096C44.3955 46.1903 44.7932 46.973 45.1891 47.7575C45.7048 46.608 44.43 44.6032 47.1939 44.8955C46.8325 44.4198 46.5746 44.0802 46.157 43.53C47.4463 43.4283 48.5595 43.3393 49.7108 43.2485C49.7108 43.7152 49.7108 44.062 49.7108 44.5433C50.1212 44.1111 50.4208 43.7043 50.8094 43.4156C51.1254 43.1795 51.6048 42.8944 51.9062 42.9852C52.1804 43.0669 52.3984 43.6044 52.4873 43.9767C52.6689 44.7376 52.6998 45.5366 52.8832 46.2975C53.1393 47.367 53.6387 48.2641 54.8099 48.6146C55.4855 48.8162 55.7996 49.3446 55.9122 50.031C56.0284 50.7411 56.1973 51.442 56.2808 52.1738C56.0684 51.6182 55.0115 51.3894 55.7615 50.4759C55.0442 50.3724 55.0442 50.3724 53.6604 52.3681C53.1919 51.1714 53.8057 50.1872 53.9346 49.3174C53.7113 48.9978 53.5224 48.7944 53.4098 48.5529C53.1937 48.0916 53.0666 47.585 52.8197 47.1419C52.5109 46.588 52.066 46.1921 51.3015 46.3447C51.5576 46.1558 51.8136 45.9688 52.0697 45.7817C51.494 45.5257 50.9983 45.6419 50.8512 46.3646C50.646 47.3707 50.5661 48.4566 50.7186 49.4645C50.8475 50.327 51.3469 51.1442 51.7519 51.9468C51.8845 52.212 52.2277 52.5352 52.4837 52.5461C53.6677 52.5915 53.9946 53.4014 54.2034 54.3257C54.3196 54.8415 54.3541 55.3772 54.4558 56.1181C53.4316 55.6604 52.6108 55.2954 51.79 54.9286C51.7592 54.9886 51.7283 55.0485 51.6956 55.1084C52.0406 55.3536 52.3875 55.5987 52.876 55.9474C51.1417 56.0745 49.8633 55.4371 48.4723 54.5037C49.4747 54.2694 50.5643 55.0793 51.258 53.7846C49.5746 54.3966 47.5825 53.1653 46.4693 54.9486C46.6654 55.3699 46.9287 55.6841 46.9469 56.0109C47.0468 57.7306 47.0668 59.4558 47.1503 61.1773C47.1957 62.1198 47.3083 63.0586 47.301 64.0501C47.1067 63.3437 46.8361 62.65 46.7381 61.9309C46.6001 60.9158 46.6436 59.8752 46.5111 58.8565C46.3713 57.7851 46.2387 56.6865 45.8809 55.6786C45.4596 54.4982 44.5444 53.4414 45.4814 52.0721C44.0759 53.011 45.2363 54.5073 44.5789 55.5787C43.5602 55.0339 43.3314 54.4892 43.1026 52.0758ZM48.5813 47.8755C48.5359 47.7829 48.4923 47.6921 48.4469 47.5995C48.031 47.9518 47.3646 48.2423 47.2556 48.6727C47.0613 49.4427 47.2011 50.2998 47.203 51.1188C47.203 51.3894 47.203 51.6617 47.203 52.0104C47.8494 52.2537 48.6539 52.5933 49.482 52.853C49.8488 52.9674 50.448 53.0945 50.6169 52.9129C50.8911 52.6187 51.0564 52.0485 50.9874 51.6436C50.7676 50.3851 50.0867 49.3555 49.1151 48.5165C48.9063 48.3386 48.7574 48.0916 48.5813 47.8755Z" fill="#0052D4"/>
<path d="M58.5414 56.3777C57.9258 57.1713 57.3774 56.7264 57.0814 56.2143C56.5148 55.2319 56.0826 54.1713 55.6341 53.1254C55.5415 52.9074 55.6214 52.6151 55.6214 52.1938C56.2769 52.8167 56.7836 53.3705 57.3629 53.8318C58.26 54.5436 59.177 55.2391 60.1376 55.8602C63.9257 58.3044 63.9112 62.0271 60.0378 64.3461C57.1323 66.0857 54.007 66.2219 50.8545 65.1977C49.4399 64.7383 48.4266 63.6814 48.2033 62.1234C47.8619 59.7336 47.5913 57.3311 47.2971 54.934C47.2844 54.8251 47.3389 54.7089 47.5859 54.4528C47.7783 54.7198 48.0707 54.9613 48.147 55.2591C48.4266 56.3396 48.6445 57.4364 48.8661 58.5314C49.4781 61.5423 51.2432 62.699 54.254 62.0489C56.5693 61.5495 58.2418 60.2384 59.2006 58.0611C59.66 57.0169 59.6292 56.9806 58.5414 56.3777Z" fill="#0052D4"/>
<path d="M81.8327 39.4622C84.6783 42.72 87.9306 42.3133 91.4317 40.7897C91.5625 41.8829 91.6932 42.9725 91.824 44.062C91.8421 44.2128 91.8585 44.3617 91.8767 44.5124C92.1109 46.4336 91.9329 46.7678 90.186 47.6394C88.1576 48.6509 86.0039 48.7798 83.8121 48.4675C82.5137 48.2841 81.5476 47.4851 80.7994 46.4573C80.5906 46.1703 80.4489 45.7055 80.5161 45.3713C80.8993 43.4537 81.3569 41.5488 81.8327 39.4622Z" fill="#0FA3F4"/>
<path d="M14.7447 51.0407C19.1012 52.419 22.3735 50.8264 24.9594 47.3307C26.8407 48.7653 27.2965 50.7265 26.3086 52.8348C24.7778 56.1017 22.299 57.5908 18.2005 57.2421C17.4523 57.1786 16.7023 56.8063 16.0123 56.4595C15.1769 56.04 14.7139 55.3281 14.7393 54.3366C14.7665 53.2579 14.7447 52.1756 14.7447 51.0407Z" fill="#0FA3F4"/>
<path d="M50.1646 59.9334C50.3535 60.2239 50.5423 60.5145 50.7312 60.8032C51.2378 60.2312 52.2475 60.391 52.8286 61.0956C53.0229 60.8377 53.19 60.3819 53.4369 60.3347C53.8746 60.2512 54.3594 60.4146 54.7844 60.4691C54.4775 59.4104 55.7178 59.5974 56.4096 58.9346C56.5513 59.227 56.6711 59.4739 56.7637 59.6646C56.9326 59.1525 57.0053 58.7058 57.2268 58.3499C57.343 58.1628 57.7189 58.1338 57.9659 58.0375C58.0603 57.7324 58.1911 57.3075 58.3273 56.8662C59.0773 57.0696 59.1245 57.3874 58.9175 57.8723C57.4574 61.3135 53.8728 62.2215 50.9872 61.3698C50.5133 61.23 50.1483 60.716 49.7324 60.3746C49.8759 60.2312 50.0193 60.0823 50.1646 59.9334Z" fill="white"/>
<path d="M53.5568 57.1931C53.337 57.3602 53.0719 57.707 52.7468 57.7742C52.3274 57.8614 51.8625 57.7234 51.1815 57.6616C51.0998 57.6743 50.7075 57.8668 50.417 57.7651C49.3365 57.3838 48.6937 56.6229 48.7663 55.2047C50.3353 56.4486 52.1603 56.2906 53.929 56.4631C54.492 56.5176 54.6845 56.3705 54.8116 55.8729C54.9514 55.3299 55.1639 54.8051 55.4199 54.0533C55.7395 54.5636 55.9756 54.8633 56.1191 55.201C56.199 55.3899 56.159 55.8311 56.1191 55.8384C55.3981 55.9601 55.3509 56.8481 54.7408 57.0388C54.3739 57.1532 53.969 57.1441 53.5568 57.1931Z" fill="white"/>
<path d="M53.128 50.3542C53.108 50.7447 53.128 51.1424 53.0553 51.5237C53.0172 51.7162 52.812 51.8778 52.6831 52.0521C52.4942 51.8923 52.2382 51.7689 52.131 51.5655C51.8659 51.0625 51.588 50.5413 51.4646 49.9929C51.283 49.1902 51.1795 48.3585 51.1595 47.5377C51.154 47.3071 51.5318 46.9076 51.7733 46.8731C51.9966 46.8422 52.4216 47.1473 52.5033 47.3906C52.8247 48.344 53.0444 49.3319 53.3023 50.307C53.2442 50.3216 53.1861 50.3379 53.128 50.3542Z" fill="white"/>
<path d="M101.596 30.5715C101.547 30.2918 101.425 30.0049 101.458 29.7361C101.601 28.5412 101.87 27.3554 101.935 26.1587C102.01 24.7859 101.706 23.4966 100.344 22.6885C100.922 22.1709 101.487 22.1364 102.059 22.4687C102.687 22.8319 102.384 23.3476 102.215 23.8252C102.031 24.3428 101.77 24.8458 102.518 25.1999C102.678 25.2762 102.772 25.7338 102.718 25.9753C102.362 27.5207 101.955 29.0551 101.565 30.5932C101.565 30.5951 101.596 30.5715 101.596 30.5715Z" fill="url(#paint7_linear_356_1358)"/>
<path d="M12.3257 28.2488C12.0134 29.4782 11.258 30.0847 10.163 30.0284C9.18417 29.9776 8.94447 29.6507 9.21322 28.7028C9.30221 28.3886 9.42569 28.0853 9.50378 27.8602C10.4717 27.9927 11.3669 28.1162 12.3257 28.2488Z" fill="white"/>
<path d="M98.0183 25.4504C98.1291 24.2592 98.5831 23.5873 99.3603 23.4456C100.03 23.3221 100.828 23.7216 100.915 24.2247C100.995 24.6841 100.314 25.3923 99.6817 25.4413C99.1515 25.4831 98.6139 25.4504 98.0183 25.4504Z" fill="url(#paint8_linear_356_1358)"/>
<path d="M17.8862 31.3159C17.75 30.9564 18.2676 30.348 18.5272 29.7796C19.2736 30.3299 19.7784 30.7021 20.4739 31.2142C20.0581 31.601 19.6477 32.282 19.2427 32.2802" fill="white"/>
<path d="M43.3658 55.526C43.2859 56.4631 43.0098 57.7288 44.2701 57.7197C45.4359 57.7106 45.1908 56.4159 45.2362 55.4988C45.9081 56.4358 45.8318 57.4673 45.0927 58.0847C44.5425 58.5441 43.7562 58.4897 43.2096 57.9558C42.5268 57.293 42.5304 56.4322 43.3658 55.526Z" fill="#FFFE89"/>
<path d="M5.48674 42.4422C4.91472 42.2479 4.66231 42.1553 4.40444 42.0772C3.8524 41.9102 3.6708 41.6014 3.96317 41.0603C4.10481 40.797 4.16656 40.4883 4.31909 40.2322C4.44258 40.0252 4.6496 39.8672 4.82029 39.6874C5.04184 39.9054 5.42137 40.1015 5.45587 40.3484C5.54667 40.9731 5.48674 41.6232 5.48674 42.4422Z" fill="white"/>
<path d="M6.50734 30.8656C6.4238 30.7802 6.10057 30.6023 6.0588 30.3716C5.94984 29.7797 6.57997 29.0224 7.0957 29.0678C7.50429 29.1023 8.05633 29.0006 8.00549 29.7324C7.96191 30.3753 7.44618 30.8601 6.50734 30.8656Z" fill="white"/>
<path d="M100.446 28.1998C100.713 29.4092 100.497 29.9341 99.6234 30.1356C99.3819 30.1919 98.8916 30.023 98.8426 29.8614C98.7645 29.5981 98.8571 29.1387 99.055 28.968C99.4309 28.6466 99.9321 28.4704 100.446 28.1998Z" fill="white"/>
<path d="M54.4902 43.7225C54.374 45.0935 54.2687 46.3356 54.1597 47.6431C53.0556 46.5862 53.1809 45.1044 54.4902 43.7225Z" fill="white"/>
<path d="M50.8708 59.819C52.3908 58.9818 53.7764 58.8511 55.22 59.0345C53.9271 59.6682 52.6014 60.124 50.8708 59.819Z" fill="white"/>
<path d="M54.9858 51.0897C54.9858 52.3155 54.9858 53.2924 54.9858 54.3584C54.1341 53.4086 54.0924 52.2719 54.9858 51.0897Z" fill="white"/>
<path d="M6.92529 28.494C7.50458 28.0454 8.04028 27.6296 8.63954 27.1665C8.60685 28.5085 8.29088 29.0842 6.92529 28.494Z" fill="url(#paint9_linear_356_1358)"/>
<path d="M101.409 24.9656C101.332 25.3887 101.256 25.8118 101.18 26.2349C100.973 26.1787 100.768 26.1242 100.561 26.0679C100.697 25.6629 100.831 25.258 100.967 24.8548C101.114 24.893 101.261 24.9293 101.409 24.9656Z" fill="white"/>
<path d="M44.016 56.0346C44.2539 56.2979 44.5081 56.5503 44.7115 56.8409C44.7351 56.8735 44.4682 57.1078 44.3374 57.2494C44.1086 56.9589 43.8798 56.6683 43.6492 56.376C43.7708 56.2616 43.8925 56.1472 44.016 56.0346Z" fill="white"/>
<path d="M82.995 88.647C73.4558 86.1937 65.68 88.9957 59.3496 96.6372C59.7782 94.4254 65.3404 89.644 69.0013 88.2784C73.7083 86.5206 78.4006 86.5006 82.995 88.647Z" fill="black"/>
<path d="M91.0432 34.4975C87.8925 34.8498 85.6825 36.2081 84.5984 39.2317C84.2606 36.5259 88.3193 33.4969 91.0432 34.4975Z" fill="black"/>
<path d="M48.5808 47.8755C48.757 48.0916 48.9059 48.3386 49.1129 48.5165C50.0862 49.3555 50.7654 50.3851 50.9851 51.6436C51.056 52.0485 50.8889 52.6188 50.6147 52.9129C50.4458 53.0945 49.8465 52.9674 49.4797 52.853C48.6517 52.5933 47.8472 52.2537 47.2007 52.0104C47.2007 51.6617 47.2007 51.3912 47.2007 51.1188C47.2007 50.298 47.0591 49.4427 47.2534 48.6727C47.3623 48.2423 48.0288 47.9536 48.4446 47.5995C48.4918 47.6921 48.5372 47.7847 48.5808 47.8755ZM48.5118 50.8736C48.7207 51.2949 48.8151 51.7217 49.0802 51.9596C49.4289 52.2737 49.9101 52.439 50.3332 52.6678C50.4186 52.2774 50.6437 51.8561 50.562 51.5038C50.2878 50.3143 49.5524 49.3973 48.5954 48.6527C48.0379 48.2187 47.6275 48.4239 47.5675 49.0286C47.4967 49.7477 47.622 50.4868 47.6692 51.3766C48.0724 51.1351 48.2431 51.0334 48.5118 50.8736Z" fill="black"/>
<path d="M48.5121 50.8737C48.2451 51.0335 48.0726 51.1352 47.6695 51.3749C47.6205 50.485 47.497 49.746 47.5678 49.0268C47.6277 48.4221 48.0381 48.2169 48.5956 48.6509C49.5526 49.3973 50.2881 50.3125 50.5623 51.502C50.644 51.8543 50.4188 52.2756 50.3335 52.666C49.9104 52.4372 49.4291 52.2719 49.0805 51.9578C48.8153 51.7217 48.7209 51.295 48.5121 50.8737Z" fill="white"/>
<path d="M50.0827 46.1976C51.6971 45.7635 53.306 45.3041 54.9276 44.9028C56.8961 44.4161 59.0062 45.3495 59.9378 47.229C60.8385 49.045 60.4808 51.1496 59.0208 52.517C57.7078 53.7482 55.8756 54.155 54.1032 53.3651C53.6528 53.1635 53.188 53.0219 52.6904 53.0164C51.8496 53.0037 51.1541 53.336 50.5857 53.9425C50.4459 54.0933 50.3188 54.2567 50.1953 54.422C49.6995 55.0884 49.0767 55.6023 48.3085 55.9147C46.7686 56.5412 45.3013 56.3632 43.9412 55.4153C43.1494 54.8632 42.6137 54.1114 42.3105 53.1926C41.6059 51.0697 42.5447 48.7944 44.5495 47.7738C44.8455 47.6231 45.1561 47.5159 45.4757 47.4306C46.2474 47.2254 47.0174 47.0147 47.7874 46.8059C48.5519 46.6007 49.3164 46.3955 50.0791 46.1903C50.0809 46.1921 50.0827 46.1957 50.0827 46.1976Z" fill="url(#paint10_linear_356_1358)"/>
<path opacity="0.81" d="M49.952 45.9706C51.5791 45.5329 53.1989 45.0717 54.8333 44.6667C56.8163 44.1764 58.9409 45.1153 59.8798 47.0093C60.7877 48.838 60.4264 50.9572 58.9573 52.3355C57.6353 53.5758 55.7903 53.9843 54.0034 53.189C53.5494 52.9874 53.0809 52.8439 52.5815 52.8367C51.7353 52.824 51.0343 53.1581 50.4623 53.7701C50.3206 53.9208 50.1935 54.086 50.07 54.2531C49.5707 54.9232 48.9423 55.4425 48.1706 55.7567C46.6179 56.3886 45.1416 56.2089 43.7724 55.2537C42.9752 54.698 42.4358 53.9408 42.1289 53.0146C41.4189 50.8773 42.365 48.5837 44.3843 47.5559C44.6821 47.4052 44.9945 47.2962 45.3177 47.2091C46.095 47.002 46.8704 46.7896 47.6458 46.5807C48.4157 46.3737 49.1857 46.1667 49.9538 45.9597C49.9502 45.9651 49.9502 45.9688 49.952 45.9706Z" fill="#DC1FFF"/>
<path d="M76.957 36.1354C73.4686 35.1638 70.7101 33.2408 68.5401 30.5477C68.4202 30.2917 68.3004 30.0374 68.1805 29.7814C67.4015 28.5593 66.9947 27.1773 66.2865 25.9243L66.2901 25.9425C66.0886 24.3354 65.66 22.7047 65.8325 21.1139C66.2974 16.8392 68.186 13.2 71.787 10.3563C73.5394 8.97071 75.5533 8.11722 77.5926 7.25464C80.2693 6.29764 82.9895 6.47742 85.7207 6.99496C87.4604 7.51795 89.1256 8.19712 90.7109 9.04698C91.7823 9.89502 92.9772 10.6087 93.8906 11.6256C95.2017 12.9113 95.9481 14.5402 96.9578 16.0111C96.9251 17.1987 97.597 18.232 97.7876 19.3779C99.0479 26.9594 93.8216 34.3703 85.8351 36.2952C85.2831 36.4277 84.7383 36.5821 84.1899 36.7274C81.7492 36.8581 79.334 36.6983 76.957 36.1354Z" fill="url(#paint11_linear_356_1358)"/>
<path d="M95.8573 21.7241C95.7266 28.3124 90.6928 33.5332 84.0555 33.5277C76.8844 33.5205 72.3354 28.0018 72.221 21.7895C72.0976 15.0996 77.5871 9.79521 84.3043 9.81518C90.4531 9.83516 96.0135 14.9652 95.8573 21.7241Z" fill="url(#paint12_linear_356_1358)" stroke="#BC741D" stroke-width="0.544782" stroke-miterlimit="10"/>
<path d="M98.4739 21.7368C98.3123 29.7833 92.1653 36.1609 84.0589 36.1536C75.3007 36.1445 69.7439 29.4037 69.6041 21.8167C69.4533 13.645 76.1578 7.16572 84.3622 7.19115C91.8711 7.21294 98.6646 13.4797 98.4739 21.7368Z" stroke="#BC741D" stroke-width="1.63435" stroke-miterlimit="10"/>
<path d="M73.9043 21.6715C73.9007 15.8096 78.6439 10.9937 84.5857 10.9974C90.5002 11.001 95.2761 15.7987 95.2525 21.7187C95.2271 27.6241 90.433 32.3547 84.573 32.3474C78.6748 32.342 73.9025 27.566 73.9043 21.6715ZM90.088 22.7738C90.0535 22.7265 90.0353 22.6975 90.0153 22.6721C89.5123 22.0056 89.0075 21.341 88.5045 20.6727C88.4536 20.6055 88.401 20.5747 88.3138 20.5747C85.2848 20.5783 82.254 20.5801 79.225 20.5801C79.1851 20.5801 79.1451 20.5801 79.0797 20.5801C79.1269 20.6437 79.1578 20.6872 79.1905 20.7308C79.679 21.3755 80.1693 22.0201 80.6541 22.6666C80.7123 22.7429 80.7704 22.7719 80.8666 22.7719C83.8956 22.7701 86.9264 22.7719 89.9554 22.7738C89.9917 22.7738 90.028 22.7738 90.088 22.7738ZM79.0852 26.1351C79.1469 26.1351 79.1832 26.1351 79.2196 26.1351C82.2485 26.1369 85.2775 26.1369 88.3065 26.1405C88.3937 26.1405 88.4464 26.1151 88.499 26.0461C89.0002 25.3778 89.5051 24.7132 90.0099 24.0485C90.0317 24.0195 90.0498 23.9904 90.0807 23.945C90.0262 23.945 89.9899 23.945 89.9536 23.945C86.9173 23.9469 83.8811 23.9469 80.8448 23.9469C80.7595 23.9469 80.7104 23.9741 80.6596 24.0395C80.1602 24.7041 79.659 25.3669 79.1578 26.0316C79.1397 26.0552 79.1215 26.0824 79.0852 26.1351ZM79.0906 19.3925C79.1469 19.3943 79.1869 19.3979 79.225 19.3979C79.9714 19.3997 80.7177 19.4034 81.4641 19.4034C83.7431 19.4052 86.0239 19.4052 88.3029 19.4088C88.3955 19.4088 88.4518 19.3798 88.5045 19.3071C88.9385 18.7278 89.3761 18.1522 89.8138 17.5747C89.8374 17.5438 89.8592 17.5093 89.8828 17.4767C89.8247 17.4076 89.7684 17.3477 89.7211 17.2823C89.6794 17.2242 89.6285 17.2097 89.5595 17.2097C86.6486 17.2115 83.7376 17.2133 80.8267 17.2115C80.7504 17.2115 80.705 17.2388 80.6614 17.2969C80.1584 17.9633 79.6554 18.6298 79.1524 19.2962C79.1342 19.3217 79.1179 19.3489 79.0906 19.3925Z" fill="black"/>
<path d="M89.9919 22.7738C89.9319 22.7738 89.8956 22.7738 89.8593 22.7738C86.8303 22.772 83.7995 22.7701 80.7705 22.772C80.6743 22.772 80.6162 22.7447 80.5581 22.6666C80.0732 22.0183 79.5829 21.3755 79.0944 20.7308C79.0617 20.6873 79.0309 20.6437 78.9836 20.5801C79.0508 20.5801 79.089 20.5801 79.1289 20.5801C82.1579 20.5783 85.1887 20.5783 88.2177 20.5747C88.3067 20.5747 88.3575 20.6055 88.4084 20.6727C88.9096 21.341 89.4144 22.0056 89.9192 22.6721C89.9392 22.6993 89.9574 22.7266 89.9919 22.7738Z" fill="url(#paint13_linear_356_1358)"/>
<path d="M78.989 26.1351C79.0253 26.0842 79.0435 26.057 79.0635 26.0298C79.5647 25.3669 80.0659 24.7041 80.5652 24.0377C80.6143 23.9723 80.6651 23.9451 80.7505 23.9451C83.7867 23.9469 86.823 23.9451 89.8592 23.9432C89.8956 23.9432 89.9301 23.9432 89.9864 23.9432C89.9555 23.9886 89.9373 24.0195 89.9155 24.0467C89.4125 24.7132 88.9059 25.3778 88.4047 26.0443C88.352 26.1133 88.2975 26.1387 88.2122 26.1387C85.1832 26.1351 82.1542 26.1333 79.1252 26.1333C79.0871 26.1351 79.0508 26.1351 78.989 26.1351Z" fill="url(#paint14_linear_356_1358)"/>
<path d="M78.9944 19.3925C79.0216 19.3489 79.038 19.3217 79.0579 19.2962C79.561 18.6298 80.064 17.9633 80.567 17.2969C80.6106 17.2388 80.656 17.2115 80.7322 17.2115C83.6432 17.2133 86.5541 17.2115 89.4651 17.2097C89.5341 17.2097 89.585 17.2242 89.6267 17.2824C89.6739 17.3477 89.7302 17.4077 89.7865 17.4767C89.7629 17.5093 89.7411 17.5439 89.7175 17.5747C89.2817 18.1522 88.8422 18.7278 88.4082 19.3071C88.3537 19.3798 88.2975 19.4088 88.2067 19.4088C85.9276 19.4052 83.6468 19.4052 81.3678 19.4034C80.6215 19.4034 79.8751 19.3997 79.1288 19.3979C79.0906 19.3979 79.0507 19.3943 78.9944 19.3925Z" fill="url(#paint15_linear_356_1358)"/>
</g>
</g>
<defs>
<linearGradient id="paint0_linear_356_1358" x1="85.1434" y1="12.188" x2="110.414" y2="12.188" gradientUnits="userSpaceOnUse">
<stop stop-color="#E68B5E"/>
<stop offset="0.0295" stop-color="#E38F5A"/>
<stop offset="0.1511" stop-color="#DB9A50"/>
<stop offset="0.2809" stop-color="#D89E4C"/>
<stop offset="0.6685" stop-color="#FEFE89"/>
<stop offset="0.8876" stop-color="#F1D774"/>
<stop offset="1" stop-color="#CB6B3B"/>
</linearGradient>
<linearGradient id="paint1_linear_356_1358" x1="90.1902" y1="12.1881" x2="108.753" y2="12.1881" gradientUnits="userSpaceOnUse">
<stop stop-color="#E68B5E"/>
<stop offset="0.0295" stop-color="#E38F5A"/>
<stop offset="0.1511" stop-color="#DB9A50"/>
<stop offset="0.2809" stop-color="#D89E4C"/>
<stop offset="0.6685" stop-color="#FEFE89"/>
<stop offset="0.8876" stop-color="#F1D774"/>
<stop offset="1" stop-color="#CB6B3B"/>
</linearGradient>
<linearGradient id="paint2_linear_356_1358" x1="94.5176" y1="12.214" x2="104.85" y2="12.214" gradientUnits="userSpaceOnUse">
<stop stop-color="#E68B5E"/>
<stop offset="0.0295" stop-color="#E38F5A"/>
<stop offset="0.1511" stop-color="#DB9A50"/>
<stop offset="0.2809" stop-color="#D89E4C"/>
<stop offset="0.6685" stop-color="#FEFE89"/>
<stop offset="0.8876" stop-color="#F1D774"/>
<stop offset="1" stop-color="#CB6B3B"/>
</linearGradient>
<linearGradient id="paint3_linear_356_1358" x1="95.3182" y1="15.7345" x2="104.049" y2="15.7345" gradientUnits="userSpaceOnUse">
<stop stop-color="#E68B5E"/>
<stop offset="0.0295" stop-color="#E38F5A"/>
<stop offset="0.1511" stop-color="#DB9A50"/>
<stop offset="0.2809" stop-color="#D89E4C"/>
<stop offset="0.6685" stop-color="#FEFE89"/>
<stop offset="0.8876" stop-color="#F1D774"/>
<stop offset="1" stop-color="#CB6B3B"/>
</linearGradient>
<linearGradient id="paint4_linear_356_1358" x1="12.8262" y1="84.2092" x2="93.4184" y2="84.2092" gradientUnits="userSpaceOnUse">
<stop stop-color="#87E8B3"/>
<stop offset="0.00953394" stop-color="#72CAAD"/>
<stop offset="0.0235" stop-color="#57A6A5"/>
<stop offset="0.0391" stop-color="#40869F"/>
<stop offset="0.0564" stop-color="#2C6A99"/>
<stop offset="0.076" stop-color="#1C5495"/>
<stop offset="0.0988" stop-color="#104391"/>
<stop offset="0.127" stop-color="#07388F"/>
<stop offset="0.1666" stop-color="#02318D"/>
<stop offset="0.2765" stop-color="#012F8D"/>
<stop offset="0.6732" stop-color="#6F0CE2"/>
<stop offset="1" stop-color="#C72DF1"/>
</linearGradient>
<linearGradient id="paint5_linear_356_1358" x1="2.88633" y1="38.1663" x2="24.52" y2="38.1663" gradientUnits="userSpaceOnUse">
<stop stop-color="#87E8B3"/>
<stop offset="0.00953394" stop-color="#72CAAD"/>
<stop offset="0.0235" stop-color="#57A6A5"/>
<stop offset="0.0391" stop-color="#40869F"/>
<stop offset="0.0564" stop-color="#2C6A99"/>
<stop offset="0.076" stop-color="#1C5495"/>
<stop offset="0.0988" stop-color="#104391"/>
<stop offset="0.127" stop-color="#07388F"/>
<stop offset="0.1666" stop-color="#02318D"/>
<stop offset="0.2765" stop-color="#012F8D"/>
<stop offset="0.6732" stop-color="#6F0CE2"/>
<stop offset="1" stop-color="#C72DF1"/>
</linearGradient>
<linearGradient id="paint6_linear_356_1358" x1="82.1351" y1="32.6925" x2="100.664" y2="32.6925" gradientUnits="userSpaceOnUse">
<stop stop-color="#87E8B3"/>
<stop offset="0.00953394" stop-color="#72CAAD"/>
<stop offset="0.0235" stop-color="#57A6A5"/>
<stop offset="0.0391" stop-color="#40869F"/>
<stop offset="0.0564" stop-color="#2C6A99"/>
<stop offset="0.076" stop-color="#1C5495"/>
<stop offset="0.0988" stop-color="#104391"/>
<stop offset="0.127" stop-color="#07388F"/>
<stop offset="0.1666" stop-color="#02318D"/>
<stop offset="0.2765" stop-color="#012F8D"/>
<stop offset="0.6732" stop-color="#6F0CE2"/>
<stop offset="1" stop-color="#C72DF1"/>
</linearGradient>
<linearGradient id="paint7_linear_356_1358" x1="100.345" y1="26.4248" x2="102.733" y2="26.4248" gradientUnits="userSpaceOnUse">
<stop stop-color="#87E8B3"/>
<stop offset="0.00953394" stop-color="#72CAAD"/>
<stop offset="0.0235" stop-color="#57A6A5"/>
<stop offset="0.0391" stop-color="#40869F"/>
<stop offset="0.0564" stop-color="#2C6A99"/>
<stop offset="0.076" stop-color="#1C5495"/>
<stop offset="0.0988" stop-color="#104391"/>
<stop offset="0.127" stop-color="#07388F"/>
<stop offset="0.1666" stop-color="#02318D"/>
<stop offset="0.2765" stop-color="#012F8D"/>
<stop offset="0.6732" stop-color="#6F0CE2"/>
<stop offset="1" stop-color="#C72DF1"/>
</linearGradient>
<linearGradient id="paint8_linear_356_1358" x1="98.0182" y1="24.4422" x2="100.922" y2="24.4422" gradientUnits="userSpaceOnUse">
<stop stop-color="#87E8B3"/>
<stop offset="0.00953394" stop-color="#72CAAD"/>
<stop offset="0.0235" stop-color="#57A6A5"/>
<stop offset="0.0391" stop-color="#40869F"/>
<stop offset="0.0564" stop-color="#2C6A99"/>
<stop offset="0.076" stop-color="#1C5495"/>
<stop offset="0.0988" stop-color="#104391"/>
<stop offset="0.127" stop-color="#07388F"/>
<stop offset="0.1666" stop-color="#02318D"/>
<stop offset="0.2765" stop-color="#012F8D"/>
<stop offset="0.6732" stop-color="#6F0CE2"/>
<stop offset="1" stop-color="#C72DF1"/>
</linearGradient>
<linearGradient id="paint9_linear_356_1358" x1="6.92593" y1="27.9462" x2="8.63956" y2="27.9462" gradientUnits="userSpaceOnUse">
<stop stop-color="#87E8B3"/>
<stop offset="0.00953394" stop-color="#72CAAD"/>
<stop offset="0.0235" stop-color="#57A6A5"/>
<stop offset="0.0391" stop-color="#40869F"/>
<stop offset="0.0564" stop-color="#2C6A99"/>
<stop offset="0.076" stop-color="#1C5495"/>
<stop offset="0.0988" stop-color="#104391"/>
<stop offset="0.127" stop-color="#07388F"/>
<stop offset="0.1666" stop-color="#02318D"/>
<stop offset="0.2765" stop-color="#012F8D"/>
<stop offset="0.6732" stop-color="#6F0CE2"/>
<stop offset="1" stop-color="#C72DF1"/>
</linearGradient>
<linearGradient id="paint10_linear_356_1358" x1="42.2416" y1="52.9471" x2="60.2747" y2="48.1037" gradientUnits="userSpaceOnUse">
<stop stop-color="#DC1FFF"/>
<stop offset="0.5056" stop-color="#0000FF"/>
<stop offset="1" stop-color="#E2004D"/>
</linearGradient>
<linearGradient id="paint11_linear_356_1358" x1="65.7928" y1="21.6716" x2="97.9759" y2="21.6716" gradientUnits="userSpaceOnUse">
<stop stop-color="#E68B5E"/>
<stop offset="0.0295" stop-color="#E38F5A"/>
<stop offset="0.1511" stop-color="#DB9A50"/>
<stop offset="0.2809" stop-color="#D89E4C"/>
<stop offset="0.6685" stop-color="#FEFE89"/>
<stop offset="0.8876" stop-color="#F1D774"/>
<stop offset="1" stop-color="#CB6B3B"/>
</linearGradient>
<linearGradient id="paint12_linear_356_1358" x1="72.2199" y1="21.6716" x2="95.8603" y2="21.6716" gradientUnits="userSpaceOnUse">
<stop stop-color="#E68B5E"/>
<stop offset="0.0295" stop-color="#E38F5A"/>
<stop offset="0.1511" stop-color="#DB9A50"/>
<stop offset="0.2809" stop-color="#D89E4C"/>
<stop offset="0.6685" stop-color="#FEFE89"/>
<stop offset="0.8876" stop-color="#F1D774"/>
<stop offset="1" stop-color="#CB6B3B"/>
</linearGradient>
<linearGradient id="paint13_linear_356_1358" x1="83.0635" y1="24.1433" x2="85.9146" y2="19.2051" gradientUnits="userSpaceOnUse">
<stop stop-color="#D724FC"/>
<stop offset="0.0266" stop-color="#CB30F7"/>
<stop offset="0.0815" stop-color="#B943F0"/>
<stop offset="0.1381" stop-color="#AF4EEB"/>
<stop offset="0.1983" stop-color="#AB52EA"/>
<stop offset="0.2439" stop-color="#9865E3"/>
<stop offset="0.3159" stop-color="#807DD9"/>
<stop offset="0.3829" stop-color="#728BD4"/>
<stop offset="0.4395" stop-color="#6D90D2"/>
<stop offset="0.7703" stop-color="#3EC0BE"/>
<stop offset="1" stop-color="#1CE2AD"/>
</linearGradient>
<linearGradient id="paint14_linear_356_1358" x1="82.6377" y1="28.2413" x2="86.3352" y2="21.837" gradientUnits="userSpaceOnUse">
<stop stop-color="#D724FC"/>
<stop offset="0.0266" stop-color="#CB30F7"/>
<stop offset="0.0815" stop-color="#B943F0"/>
<stop offset="0.1381" stop-color="#AF4EEB"/>
<stop offset="0.1983" stop-color="#AB52EA"/>
<stop offset="0.2439" stop-color="#9865E3"/>
<stop offset="0.3159" stop-color="#807DD9"/>
<stop offset="0.3829" stop-color="#728BD4"/>
<stop offset="0.4395" stop-color="#6D90D2"/>
<stop offset="0.7703" stop-color="#3EC0BE"/>
<stop offset="1" stop-color="#1CE2AD"/>
</linearGradient>
<linearGradient id="paint15_linear_356_1358" x1="82.6269" y1="21.4898" x2="86.2076" y2="15.288" gradientUnits="userSpaceOnUse">
<stop stop-color="#D724FC"/>
<stop offset="0.0266" stop-color="#CB30F7"/>
<stop offset="0.0815" stop-color="#B943F0"/>
<stop offset="0.1381" stop-color="#AF4EEB"/>
<stop offset="0.1983" stop-color="#AB52EA"/>
<stop offset="0.2439" stop-color="#9865E3"/>
<stop offset="0.3159" stop-color="#807DD9"/>
<stop offset="0.3829" stop-color="#728BD4"/>
<stop offset="0.4395" stop-color="#6D90D2"/>
<stop offset="0.7703" stop-color="#3EC0BE"/>
<stop offset="1" stop-color="#1CE2AD"/>
</linearGradient>
<clipPath id="clip0_356_1358">
<rect width="111.25" height="96.6036" fill="white" transform="translate(0.375)"/>
</clipPath>
<clipPath id="clip1_356_1358">
<rect width="111.25" height="168.966" fill="white" transform="translate(0.375)"/>
</clipPath>
</defs>
</svg>
